<?xml version="1.0" encoding="UTF-8"?><svg xmlns="http://www.w3.org/2000/svg" viewBox="0 0 817.39 382.13"><defs><style>.cls-1{fill:#49b6e1;}.cls-1,.cls-2,.cls-3{opacity:.6;}.cls-1,.cls-2,.cls-3,.cls-4{stroke-width:0px;}.cls-2{fill:#69c5e1;}.cls-3{fill:#b1def2;}.cls-4{fill:#0581bc;}</style></defs><g id="Ebene_3"><path class="cls-2" d="m207.41,103.2c-43.78,36.26-81.51,96.84-66.33,148.6-2.33-59.35,49.51-112.1,66.72-129.86,19.51-20.13,48.2-46.57,55.21-53.36C313.33,18.12,316.35.26,316.35.26h-28s-8.66,43.07-80.94,102.95Z"/><path class="cls-2" d="m32.49,103.2c-21.03,20.29-41.83,45.51-55.07,72.18,15.48-25.39,34.77-45.08,44.03-54.63,19.51-20.13,48.2-46.57,55.21-53.36C126.98,16.93,129.99.26,129.99.26h-18.58S62.52,74.24,32.49,103.2Z"/><path class="cls-3" d="m228.87,103.37c-48.91,40.59-93.91,111.32-62.24,166.34,7.67,13.33,16.31,23.07,25.94,30.54-49.23-77.49,28.88-156.88,50.8-179.5,15.03-15.51,35.51-34.77,47.33-45.89C316.87,41.67,343.8.26,343.8.26h-27.45s5.32,26.11-87.48,103.12Z"/><path class="cls-2" d="m207.8,121.94c-17.21,17.76-69.05,70.51-66.72,129.86,1.79,6.11,4.31,12.1,7.66,17.91,14.9,25.88,33.41,38.23,55.88,46.7-3.72-4.3-7.19-8.84-10.4-13.62-.57-.85-1.1-1.7-1.64-2.54-9.64-7.47-18.27-17.21-25.94-30.54-31.67-55.02,13.33-125.75,62.24-166.34C321.67,26.36,316.35.26,316.35.26c0,0-3.01,17.86-53.34,68.33-7.01,6.79-35.7,33.23-55.21,53.36Z"/><path class="cls-3" d="m207.8,121.94c-17.21,17.76-69.05,70.51-66.72,129.86,1.79,6.11,4.31,12.1,7.66,17.91,14.9,25.88,33.41,38.23,55.88,46.7-3.72-4.3-7.19-8.84-10.4-13.62-.57-.85-1.1-1.7-1.64-2.54-9.64-7.47-18.27-17.21-25.94-30.54-31.67-55.02,13.33-125.75,62.24-166.34C321.67,26.36,316.35.26,316.35.26c0,0-3.01,17.86-53.34,68.33-7.01,6.79-35.7,33.23-55.21,53.36Z"/><path class="cls-3" d="m-139.52,302.79c-52.61-78.29,26.99-159.17,49.16-182.04,19.51-20.13,48.2-46.57,55.21-53.36C15.17,16.93,18.18.26,18.18.26H-5.06s-3.01,16.67-53.34,67.14c-7.01,6.79-35.7,33.23-55.21,53.36-22.16,22.87-101.77,103.75-49.16,182.04,11.12,16.55,25.21,30.23,42.77,40.93h23.24c-17.56-10.71-31.65-24.39-42.77-40.93Z"/><path class="cls-3" d="m185.93,94.24c-19.5,17.93-39.01,41.86-52.83,67.65,13.38-18.84,27.58-33.35,35.12-41.14,19.51-20.13,48.2-46.57,55.21-53.36C273.75,16.93,275.87.26,275.87.26h-14.25s0,24.4-75.69,93.98Z"/><path class="cls-2" d="m168.22,120.75c-7.54,7.79-21.75,22.3-35.12,41.14-19.32,36.05-27.53,75.75-9.07,107.82,10.57,18.36,22.95,29.91,37.28,38.09-.91-1.26-1.8-2.53-2.67-3.82-11.75-17.49-16.89-35.11-17.56-52.18-15.18-51.75,22.56-112.34,66.33-148.6C279.69,43.33,288.35.26,288.35.26h-12.48s-2.12,16.67-52.44,67.14c-7.01,6.79-35.7,33.23-55.21,53.36Z"/><path class="cls-3" d="m168.22,120.75c-7.54,7.79-21.75,22.3-35.12,41.14-19.32,36.05-27.53,75.75-9.07,107.82,10.57,18.36,22.95,29.91,37.28,38.09-.91-1.26-1.8-2.53-2.67-3.82-11.75-17.49-16.89-35.11-17.56-52.18-15.18-51.75,22.56-112.34,66.33-148.6C279.69,43.33,288.35.26,288.35.26h-12.48s-2.12,16.67-52.44,67.14c-7.01,6.79-35.7,33.23-55.21,53.36Z"/><path class="cls-2" d="m204.61,316.41c-22.46-8.47-40.98-20.82-55.88-46.7-3.35-5.81-5.87-11.8-7.66-17.91.67,17.07,5.81,34.69,17.56,52.18.87,1.29,1.76,2.56,2.67,3.82,15.49,8.86,33.26,13.78,53.44,19.11-3.57-3.32-6.95-6.83-10.13-10.51Z"/><path class="cls-3" d="m204.61,316.41c-22.46-8.47-40.98-20.82-55.88-46.7-3.35-5.81-5.87-11.8-7.66-17.91.67,17.07,5.81,34.69,17.56,52.18.87,1.29,1.76,2.56,2.67,3.82,15.49,8.86,33.26,13.78,53.44,19.11-3.57-3.32-6.95-6.83-10.13-10.51Z"/><path class="cls-3" d="m204.61,316.41c-22.46-8.47-40.98-20.82-55.88-46.7-3.35-5.81-5.87-11.8-7.66-17.91.67,17.07,5.81,34.69,17.56,52.18.87,1.29,1.76,2.56,2.67,3.82,15.49,8.86,33.26,13.78,53.44,19.11-3.57-3.32-6.95-6.83-10.13-10.51Z"/><path class="cls-3" d="m9.98,93.12c-44.59,43.02-111.95,117.81-85.8,172.52-13.03-65.3,46.3-125.64,64.95-144.89,19.51-20.13,48.2-46.57,55.21-53.36C94.67,16.93,97.68.26,97.68.26h-14.17S40.01,64.15,9.98,93.12Z"/><path class="cls-2" d="m-10.87,120.75c-18.65,19.25-77.98,79.59-64.95,144.89.65,1.37,1.35,2.73,2.12,4.07,15.06,26.16,33.82,38.5,56.61,46.98-3.81-4.38-7.35-9.01-10.63-13.89-30.63-45.58-16.44-92.03,5.13-127.41,13.25-26.68,34.05-51.9,55.07-72.18C62.52,74.24,111.41.26,111.41.26h-13.73s-3.01,16.67-53.34,67.14c-7.01,6.79-35.7,33.23-55.21,53.36Z"/><path class="cls-3" d="m-10.87,120.75c-18.65,19.25-77.98,79.59-64.95,144.89.65,1.37,1.35,2.73,2.12,4.07,15.06,26.16,33.82,38.5,56.61,46.98-3.81-4.38-7.35-9.01-10.63-13.89-30.63-45.58-16.44-92.03,5.13-127.41,13.25-26.68,34.05-51.9,55.07-72.18C62.52,74.24,111.41.26,111.41.26h-13.73s-3.01,16.67-53.34,67.14c-7.01,6.79-35.7,33.23-55.21,53.36Z"/><path class="cls-3" d="m123.9,103.2c-43.68,39.39-83.91,101.4-64.51,154.05-6.72-62.02,48.38-118.08,66.23-136.5,19.51-20.13,48.2-46.57,55.21-53.36C231.15,16.93,234.16.26,234.16.26h-31.35s6.09,26.29-78.92,102.95Z"/><path class="cls-1" d="m251.69,101.62c-43.74,46.02-77.15,114.27-45.48,169.29,26.99,46.89,65.84,49.37,118.56,64.81,6.45,1.89,9.01,4.8,9.09,8.02h35.49c.57-3.68-1.78-7.09-9.01-9.21-52.72-15.43-91.57-17.92-118.56-64.81-31.67-55.02-4.98-131.38,40.73-175.48C312.54,65.27,359.32.26,359.32.26h-33.86s8.41,14.9-73.78,101.36Z"/><path class="cls-3" d="m243.37,120.75c-21.92,22.62-100.03,102.01-50.8,179.5,24.26,18.81,54.89,23.22,92.62,34.27,7.23,2.12,9.58,5.53,9.01,9.21h39.66c-.08-3.22-2.65-6.13-9.09-8.02-52.72-15.43-91.57-17.92-118.56-64.81-31.67-55.02,12.96-122.41,58.67-166.51,7.74-7.47-6.48.85-21.51,16.36Z"/><path class="cls-2" d="m276.31,343.73h17.89c.57-3.68-1.78-7.09-9.01-9.21-37.73-11.05-68.36-15.46-92.62-34.27.54.85,1.07,1.7,1.64,2.54,3.21,4.78,6.68,9.32,10.4,13.62,18.23,6.87,39.07,11.19,62.69,18.11,7.23,2.12,9.58,5.53,9.01,9.21Z"/><path class="cls-3" d="m276.31,343.73h17.89c.57-3.68-1.78-7.09-9.01-9.21-37.73-11.05-68.36-15.46-92.62-34.27.54.85,1.07,1.7,1.64,2.54,3.21,4.78,6.68,9.32,10.4,13.62,18.23,6.87,39.07,11.19,62.69,18.11,7.23,2.12,9.58,5.53,9.01,9.21Z"/><path class="cls-1" d="m276.31,343.73h17.89c.57-3.68-1.78-7.09-9.01-9.21-37.73-11.05-68.36-15.46-92.62-34.27.54.85,1.07,1.7,1.64,2.54,3.21,4.78,6.68,9.32,10.4,13.62,18.23,6.87,39.07,11.19,62.69,18.11,7.23,2.12,9.58,5.53,9.01,9.21Z"/><path class="cls-2" d="m214.75,326.92c8.82,2.33,18.09,4.74,27.85,7.6,7.23,2.12,9.58,5.53,9.01,9.21h24.71c.57-3.68-1.78-7.09-9.01-9.21-23.62-6.91-44.45-11.23-62.69-18.11,3.18,3.68,6.56,7.18,10.13,10.51Z"/><path class="cls-3" d="m214.75,326.92c8.82,2.33,18.09,4.74,27.85,7.6,7.23,2.12,9.58,5.53,9.01,9.21h24.71c.57-3.68-1.78-7.09-9.01-9.21-23.62-6.91-44.45-11.23-62.69-18.11,3.18,3.68,6.56,7.18,10.13,10.51Z"/><path class="cls-3" d="m214.75,326.92c8.82,2.33,18.09,4.74,27.85,7.6,7.23,2.12,9.58,5.53,9.01,9.21h24.71c.57-3.68-1.78-7.09-9.01-9.21-23.62-6.91-44.45-11.23-62.69-18.11,3.18,3.68,6.56,7.18,10.13,10.51Z"/><path class="cls-1" d="m214.75,326.92c8.82,2.33,18.09,4.74,27.85,7.6,7.23,2.12,9.58,5.53,9.01,9.21h24.71c.57-3.68-1.78-7.09-9.01-9.21-23.62-6.91-44.45-11.23-62.69-18.11,3.18,3.68,6.56,7.18,10.13,10.51Z"/><path class="cls-1" d="m-33.28,103.2c-45.71,44.1-90.35,111.49-58.67,166.51,2.04,3.54,4.15,6.83,6.32,9.89-25.61-70.54,40.8-138.48,61.04-158.85C31.22,64.59,65.67.26,65.67.26h-20.03S-3.26,74.24-33.28,103.2Z"/><path class="cls-3" d="m-85.63,279.6c8.25,11.61,17.49,19.93,27.76,26.3-.73-1.03-1.45-2.06-2.16-3.11-8.33-12.4-13.34-24.87-15.79-37.16-26.15-54.71,41.2-129.5,85.8-172.52C40.01,64.15,83.51.26,83.51.26h-17.85S31.22,64.59-24.59,120.75c-20.24,20.36-86.65,88.31-61.04,158.85Z"/><path class="cls-1" d="m-85.63,279.6c8.25,11.61,17.49,19.93,27.76,26.3-.73-1.03-1.45-2.06-2.16-3.11-8.33-12.4-13.34-24.87-15.79-37.16-26.15-54.71,41.2-129.5,85.8-172.52C40.01,64.15,83.51.26,83.51.26h-17.85S31.22,64.59-24.59,120.75c-20.24,20.36-86.65,88.31-61.04,158.85Z"/><path class="cls-2" d="m106.89,89.76C61.29,133.97-11.82,214.7,19.86,269.71c4.99,8.66,10.38,15.8,16.18,21.79C-2.37,216.87,70.78,142.52,91.88,120.75c19.51-20.13,48.2-46.57,55.21-53.36C197.41,16.93,200.42.26,200.42.26h-17.29c-.06,2.14-3.28,18.76-76.25,89.5Z"/><path class="cls-3" d="m91.88,120.75c-21.1,21.77-94.25,96.12-55.84,170.75,15.5,15.99,33.97,23.77,55.65,30.2-5.6-5.82-10.66-12.12-15.23-18.91-10.24-15.23-15.45-30.56-17.07-45.55-19.4-52.64,20.83-114.66,64.51-154.05C208.9,26.55,202.81.26,202.81.26h-2.39s-3.01,16.67-53.34,67.14c-7.01,6.79-35.7,33.23-55.21,53.36Z"/><path class="cls-2" d="m91.88,120.75c-21.1,21.77-94.25,96.12-55.84,170.75,15.5,15.99,33.97,23.77,55.65,30.2-5.6-5.82-10.66-12.12-15.23-18.91-10.24-15.23-15.45-30.56-17.07-45.55-19.4-52.64,20.83-114.66,64.51-154.05C208.9,26.55,202.81.26,202.81.26h-2.39s-3.01,16.67-53.34,67.14c-7.01,6.79-35.7,33.23-55.21,53.36Z"/><path class="cls-2" d="m-56.52,103.2c-10.97,10.35-21.82,22.07-31.57,34.67,6.42-7.28,12.09-13.1,15.99-17.12,19.51-20.13,48.2-46.57,55.21-53.36C33.43,16.93,36.44.26,36.44.26h-14.05s-3.03,31.33-78.92,102.95Z"/><path class="cls-3" d="m-90.37,120.75c-22.16,22.87-101.77,103.75-49.16,182.04,11.12,16.55,25.21,30.23,42.77,40.93h18.26c-17.56-10.71-31.65-24.39-42.77-40.93-43.36-64.53,3.09-130.81,33.17-164.92,9.75-12.59,20.6-24.32,31.57-34.67C19.36,31.58,22.39.26,22.39.26h-4.21s-3.01,16.67-53.34,67.14c-7.01,6.79-35.7,33.23-55.21,53.36Z"/><path class="cls-2" d="m-90.37,120.75c-22.16,22.87-101.77,103.75-49.16,182.04,11.12,16.55,25.21,30.23,42.77,40.93h18.26c-17.56-10.71-31.65-24.39-42.77-40.93-43.36-64.53,3.09-130.81,33.17-164.92,9.75-12.59,20.6-24.32,31.57-34.67C19.36,31.58,22.39.26,22.39.26h-4.21s-3.01,16.67-53.34,67.14c-7.01,6.79-35.7,33.23-55.21,53.36Z"/><path class="cls-1" d="m-72.1,120.75c-3.9,4.02-9.57,9.84-15.99,17.12-31.32,40.45-51.26,89.89-27.1,131.84,13.53,23.5,30.04,35.85,49.78,44.26-2.95-3.57-5.73-7.29-8.34-11.18-5.19-7.72-9.08-15.48-11.88-23.2-2.18-3.06-4.28-6.34-6.32-9.89-31.67-55.02,12.96-122.41,58.67-166.51C-3.26,74.24,45.63.26,45.63.26h-9.19s-3.01,16.67-53.34,67.14c-7.01,6.79-35.7,33.23-55.21,53.36Z"/><path class="cls-2" d="m-72.1,120.75c-3.9,4.02-9.57,9.84-15.99,17.12-31.32,40.45-51.26,89.89-27.1,131.84,13.53,23.5,30.04,35.85,49.78,44.26-2.95-3.57-5.73-7.29-8.34-11.18-5.19-7.72-9.08-15.48-11.88-23.2-2.18-3.06-4.28-6.34-6.32-9.89-31.67-55.02,12.96-122.41,58.67-166.51C-3.26,74.24,45.63.26,45.63.26h-9.19s-3.01,16.67-53.34,67.14c-7.01,6.79-35.7,33.23-55.21,53.36Z"/><path class="cls-2" d="m.77,333.77c-3.6-2.86-7.02-5.88-10.27-9.06-18.16-4.94-34.24-10.04-48.37-18.81,3.83,5.38,7.98,10.45,12.49,15.2,14,4.25,29.36,7.84,46.15,12.66Z"/><path class="cls-3" d="m.77,333.77c-3.6-2.86-7.02-5.88-10.27-9.06-18.16-4.94-34.24-10.04-48.37-18.81,3.83,5.38,7.98,10.45,12.49,15.2,14,4.25,29.36,7.84,46.15,12.66Z"/><path class="cls-1" d="m.77,333.77c-3.6-2.86-7.02-5.88-10.27-9.06-18.16-4.94-34.24-10.04-48.37-18.81,3.83,5.38,7.98,10.45,12.49,15.2,14,4.25,29.36,7.84,46.15,12.66Z"/><path class="cls-2" d="m.77,333.77c-3.6-2.86-7.02-5.88-10.27-9.06-18.16-4.94-34.24-10.04-48.37-18.81,3.83,5.38,7.98,10.45,12.49,15.2,14,4.25,29.36,7.84,46.15,12.66Z"/><path class="cls-2" d="m12.38,343.73h2.68c-.88-.54-1.76-1.09-2.63-1.64.05.54.04,1.09-.05,1.64Z"/><path class="cls-3" d="m12.38,343.73h2.68c-.88-.54-1.76-1.09-2.63-1.64.05.54.04,1.09-.05,1.64Z"/><path class="cls-1" d="m12.38,343.73h2.68c-.88-.54-1.76-1.09-2.63-1.64.05.54.04,1.09-.05,1.64Z"/><path class="cls-2" d="m12.38,343.73h2.68c-.88-.54-1.76-1.09-2.63-1.64.05.54.04,1.09-.05,1.64Z"/><path class="cls-2" d="m12.43,342.09c-4.08-2.61-7.96-5.38-11.65-8.32-16.79-4.83-32.15-8.41-46.15-12.66,8.18,8.61,17.52,16.16,28.12,22.63H12.38c.09-.55.1-1.1.05-1.64Z"/><path class="cls-3" d="m12.43,342.09c-4.08-2.61-7.96-5.38-11.65-8.32-16.79-4.83-32.15-8.41-46.15-12.66,8.18,8.61,17.52,16.16,28.12,22.63H12.38c.09-.55.1-1.1.05-1.64Z"/><path class="cls-3" d="m12.43,342.09c-4.08-2.61-7.96-5.38-11.65-8.32-16.79-4.83-32.15-8.41-46.15-12.66,8.18,8.61,17.52,16.16,28.12,22.63H12.38c.09-.55.1-1.1.05-1.64Z"/><path class="cls-1" d="m12.43,342.09c-4.08-2.61-7.96-5.38-11.65-8.32-16.79-4.83-32.15-8.41-46.15-12.66,8.18,8.61,17.52,16.16,28.12,22.63H12.38c.09-.55.1-1.1.05-1.64Z"/><path class="cls-2" d="m12.43,342.09c-4.08-2.61-7.96-5.38-11.65-8.32-16.79-4.83-32.15-8.41-46.15-12.66,8.18,8.61,17.52,16.16,28.12,22.63H12.38c.09-.55.1-1.1.05-1.64Z"/><path class="cls-1" d="m148.96,103.2c-48.54,32.65-84.2,99.53-64.99,152.86-5.89-61.55,48.62-117.01,66.36-135.31,19.51-20.13,48.2-46.57,55.21-53.36C255.86,16.93,258.87.26,258.87.26h-16.48s-31.03,60.97-93.43,102.95Z"/><path class="cls-3" d="m150.32,120.75c-17.74,18.3-72.25,73.76-66.36,135.31,1.68,4.66,3.77,9.23,6.32,13.65,8.28,14.38,17.67,24.58,28.24,32.26-33.91-51.38-11.21-103.77,14.57-140.08,13.82-25.79,33.33-49.72,52.83-67.65C261.62,24.65,261.62.26,261.62.26h-2.75s-3.01,16.67-53.34,67.14c-7.01,6.79-35.7,33.23-55.21,53.36Z"/><path class="cls-1" d="m150.32,120.75c-17.74,18.3-72.25,73.76-66.36,135.31,1.68,4.66,3.77,9.23,6.32,13.65,8.28,14.38,17.67,24.58,28.24,32.26-33.91-51.38-11.21-103.77,14.57-140.08,13.82-25.79,33.33-49.72,52.83-67.65C261.62,24.65,261.62.26,261.62.26h-2.75s-3.01,16.67-53.34,67.14c-7.01,6.79-35.7,33.23-55.21,53.36Z"/><path class="cls-2" d="m161.31,307.81c-14.32-8.19-26.71-19.74-37.28-38.09-18.46-32.07-10.25-71.77,9.07-107.82-25.78,36.31-48.48,88.71-14.57,140.08,16.48,11.98,35.81,17.83,58.21,23.81-5.65-5.53-10.78-11.52-15.43-17.98Z"/><path class="cls-3" d="m161.31,307.81c-14.32-8.19-26.71-19.74-37.28-38.09-18.46-32.07-10.25-71.77,9.07-107.82-25.78,36.31-48.48,88.71-14.57,140.08,16.48,11.98,35.81,17.83,58.21,23.81-5.65-5.53-10.78-11.52-15.43-17.98Z"/><path class="cls-1" d="m161.31,307.81c-14.32-8.19-26.71-19.74-37.28-38.09-18.46-32.07-10.25-71.77,9.07-107.82-25.78,36.31-48.48,88.71-14.57,140.08,16.48,11.98,35.81,17.83,58.21,23.81-5.65-5.53-10.78-11.52-15.43-17.98Z"/><path class="cls-2" d="m176.74,325.79c10.08,2.69,20.78,5.41,32.12,8.73,7.23,2.12,9.58,5.53,9.01,9.21h19.12c-8.14-4.97-15.54-10.57-22.24-16.81-20.18-5.34-37.94-10.26-53.44-19.11,4.65,6.46,9.78,12.45,15.43,17.98Z"/><path class="cls-3" d="m176.74,325.79c10.08,2.69,20.78,5.41,32.12,8.73,7.23,2.12,9.58,5.53,9.01,9.21h19.12c-8.14-4.97-15.54-10.57-22.24-16.81-20.18-5.34-37.94-10.26-53.44-19.11,4.65,6.46,9.78,12.45,15.43,17.98Z"/><path class="cls-3" d="m176.74,325.79c10.08,2.69,20.78,5.41,32.12,8.73,7.23,2.12,9.58,5.53,9.01,9.21h19.12c-8.14-4.97-15.54-10.57-22.24-16.81-20.18-5.34-37.94-10.26-53.44-19.11,4.65,6.46,9.78,12.45,15.43,17.98Z"/><path class="cls-1" d="m176.74,325.79c10.08,2.69,20.78,5.41,32.12,8.73,7.23,2.12,9.58,5.53,9.01,9.21h19.12c-8.14-4.97-15.54-10.57-22.24-16.81-20.18-5.34-37.94-10.26-53.44-19.11,4.65,6.46,9.78,12.45,15.43,17.98Z"/><path class="cls-3" d="m125.62,120.75c-17.85,18.42-72.95,74.48-66.23,136.5,1.56,4.22,3.48,8.38,5.84,12.46,11.47,19.92,25.08,31.83,40.98,40.11-1.74-2.28-3.42-4.63-5.04-7.03-10.51-15.64-15.73-31.37-17.2-46.73-19.21-53.33,16.45-120.21,64.99-152.86C211.36,61.23,242.39.26,242.39.26h-8.23s-3.01,16.67-53.34,67.14c-7.01,6.79-35.7,33.23-55.21,53.36Z"/><path class="cls-1" d="m125.62,120.75c-17.85,18.42-72.95,74.48-66.23,136.5,1.56,4.22,3.48,8.38,5.84,12.46,11.47,19.92,25.08,31.83,40.98,40.11-1.74-2.28-3.42-4.63-5.04-7.03-10.51-15.64-15.73-31.37-17.2-46.73-19.21-53.33,16.45-120.21,64.99-152.86C211.36,61.23,242.39.26,242.39.26h-8.23s-3.01,16.67-53.34,67.14c-7.01,6.79-35.7,33.23-55.21,53.36Z"/><path class="cls-3" d="m119.06,302.79c-.18-.27-.35-.55-.53-.82-10.57-7.68-19.96-17.88-28.24-32.26-2.55-4.43-4.64-8.99-6.32-13.65,1.47,15.36,6.69,31.1,17.2,46.73,1.62,2.41,3.3,4.75,5.04,7.03,8.35,4.35,17.33,7.71,26.96,10.7-5.15-5.49-9.85-11.4-14.11-17.73Z"/><path class="cls-3" d="m119.06,302.79c-.18-.27-.35-.55-.53-.82-10.57-7.68-19.96-17.88-28.24-32.26-2.55-4.43-4.64-8.99-6.32-13.65,1.47,15.36,6.69,31.1,17.2,46.73,1.62,2.41,3.3,4.75,5.04,7.03,8.35,4.35,17.33,7.71,26.96,10.7-5.15-5.49-9.85-11.4-14.11-17.73Z"/><path class="cls-1" d="m119.06,302.79c-.18-.27-.35-.55-.53-.82-10.57-7.68-19.96-17.88-28.24-32.26-2.55-4.43-4.64-8.99-6.32-13.65,1.47,15.36,6.69,31.1,17.2,46.73,1.62,2.41,3.3,4.75,5.04,7.03,8.35,4.35,17.33,7.71,26.96,10.7-5.15-5.49-9.85-11.4-14.11-17.73Z"/><path class="cls-2" d="m133.17,320.53c15.21,4.73,32.05,8.56,50.62,13.99,7.23,2.12,9.58,5.53,9.01,9.21h6.7c-8.38-5.29-15.94-11.27-22.76-17.94-22.4-5.99-41.73-11.84-58.21-23.81.18.27.35.55.53.82,4.26,6.33,8.95,12.24,14.11,17.73Z"/><path class="cls-3" d="m133.17,320.53c15.21,4.73,32.05,8.56,50.62,13.99,7.23,2.12,9.58,5.53,9.01,9.21h6.7c-8.38-5.29-15.94-11.27-22.76-17.94-22.4-5.99-41.73-11.84-58.21-23.81.18.27.35.55.53.82,4.26,6.33,8.95,12.24,14.11,17.73Z"/><path class="cls-3" d="m133.17,320.53c15.21,4.73,32.05,8.56,50.62,13.99,7.23,2.12,9.58,5.53,9.01,9.21h6.7c-8.38-5.29-15.94-11.27-22.76-17.94-22.4-5.99-41.73-11.84-58.21-23.81.18.27.35.55.53.82,4.26,6.33,8.95,12.24,14.11,17.73Z"/><path class="cls-1" d="m133.17,320.53c15.21,4.73,32.05,8.56,50.62,13.99,7.23,2.12,9.58,5.53,9.01,9.21h6.7c-8.38-5.29-15.94-11.27-22.76-17.94-22.4-5.99-41.73-11.84-58.21-23.81.18.27.35.55.53.82,4.26,6.33,8.95,12.24,14.11,17.73Z"/><path class="cls-2" d="m208.85,334.52c-11.34-3.32-22.04-6.04-32.12-8.73,6.82,6.67,14.38,12.65,22.76,17.94h18.37c.57-3.68-1.78-7.09-9.01-9.21Z"/><path class="cls-3" d="m208.85,334.52c-11.34-3.32-22.04-6.04-32.12-8.73,6.82,6.67,14.38,12.65,22.76,17.94h18.37c.57-3.68-1.78-7.09-9.01-9.21Z"/><path class="cls-3" d="m208.85,334.52c-11.34-3.32-22.04-6.04-32.12-8.73,6.82,6.67,14.38,12.65,22.76,17.94h18.37c.57-3.68-1.78-7.09-9.01-9.21Z"/><path class="cls-3" d="m208.85,334.52c-11.34-3.32-22.04-6.04-32.12-8.73,6.82,6.67,14.38,12.65,22.76,17.94h18.37c.57-3.68-1.78-7.09-9.01-9.21Z"/><path class="cls-1" d="m208.85,334.52c-11.34-3.32-22.04-6.04-32.12-8.73,6.82,6.67,14.38,12.65,22.76,17.94h18.37c.57-3.68-1.78-7.09-9.01-9.21Z"/><path class="cls-2" d="m242.59,334.52c-9.75-2.86-19.03-5.27-27.85-7.6,6.7,6.23,14.09,11.84,22.24,16.81h14.62c.57-3.68-1.78-7.09-9.01-9.21Z"/><path class="cls-3" d="m242.59,334.52c-9.75-2.86-19.03-5.27-27.85-7.6,6.7,6.23,14.09,11.84,22.24,16.81h14.62c.57-3.68-1.78-7.09-9.01-9.21Z"/><path class="cls-3" d="m242.59,334.52c-9.75-2.86-19.03-5.27-27.85-7.6,6.7,6.23,14.09,11.84,22.24,16.81h14.62c.57-3.68-1.78-7.09-9.01-9.21Z"/><path class="cls-1" d="m242.59,334.52c-9.75-2.86-19.03-5.27-27.85-7.6,6.7,6.23,14.09,11.84,22.24,16.81h14.62c.57-3.68-1.78-7.09-9.01-9.21Z"/><path class="cls-1" d="m242.59,334.52c-9.75-2.86-19.03-5.27-27.85-7.6,6.7,6.23,14.09,11.84,22.24,16.81h14.62c.57-3.68-1.78-7.09-9.01-9.21Z"/><path class="cls-3" d="m106.21,309.83c-15.9-8.29-29.51-20.19-40.98-40.11-2.35-4.08-4.28-8.24-5.84-12.46,1.62,14.98,6.84,30.31,17.07,45.55,4.56,6.79,9.63,13.09,15.23,18.91,10.79,3.2,22.37,6.07,34.78,9.45-7.55-6.38-14.28-13.5-20.25-21.32Z"/><path class="cls-2" d="m106.21,309.83c-15.9-8.29-29.51-20.19-40.98-40.11-2.35-4.08-4.28-8.24-5.84-12.46,1.62,14.98,6.84,30.31,17.07,45.55,4.56,6.79,9.63,13.09,15.23,18.91,10.79,3.2,22.37,6.07,34.78,9.45-7.55-6.38-14.28-13.5-20.25-21.32Z"/><path class="cls-1" d="m106.21,309.83c-15.9-8.29-29.51-20.19-40.98-40.11-2.35-4.08-4.28-8.24-5.84-12.46,1.62,14.98,6.84,30.31,17.07,45.55,4.56,6.79,9.63,13.09,15.23,18.91,10.79,3.2,22.37,6.07,34.78,9.45-7.55-6.38-14.28-13.5-20.25-21.32Z"/><path class="cls-3" d="m126.46,331.15c3.9,1.06,7.89,2.18,11.96,3.37,7.23,2.12,9.58,5.53,9.01,9.21h14.39c-10.84-6.61-20.35-14.35-28.66-23.2-9.63-2.99-18.61-6.35-26.96-10.7,5.98,7.83,12.71,14.94,20.25,21.32Z"/><path class="cls-3" d="m126.46,331.15c3.9,1.06,7.89,2.18,11.96,3.37,7.23,2.12,9.58,5.53,9.01,9.21h14.39c-10.84-6.61-20.35-14.35-28.66-23.2-9.63-2.99-18.61-6.35-26.96-10.7,5.98,7.83,12.71,14.94,20.25,21.32Z"/><path class="cls-2" d="m126.46,331.15c3.9,1.06,7.89,2.18,11.96,3.37,7.23,2.12,9.58,5.53,9.01,9.21h14.39c-10.84-6.61-20.35-14.35-28.66-23.2-9.63-2.99-18.61-6.35-26.96-10.7,5.98,7.83,12.71,14.94,20.25,21.32Z"/><path class="cls-1" d="m126.46,331.15c3.9,1.06,7.89,2.18,11.96,3.37,7.23,2.12,9.58,5.53,9.01,9.21h14.39c-10.84-6.61-20.35-14.35-28.66-23.2-9.63-2.99-18.61-6.35-26.96-10.7,5.98,7.83,12.71,14.94,20.25,21.32Z"/><path class="cls-2" d="m183.79,334.52c-18.56-5.43-35.41-9.27-50.62-13.99,8.31,8.85,17.82,16.59,28.66,23.2h30.97c.57-3.68-1.78-7.09-9.01-9.21Z"/><path class="cls-3" d="m183.79,334.52c-18.56-5.43-35.41-9.27-50.62-13.99,8.31,8.85,17.82,16.59,28.66,23.2h30.97c.57-3.68-1.78-7.09-9.01-9.21Z"/><path class="cls-3" d="m183.79,334.52c-18.56-5.43-35.41-9.27-50.62-13.99,8.31,8.85,17.82,16.59,28.66,23.2h30.97c.57-3.68-1.78-7.09-9.01-9.21Z"/><path class="cls-2" d="m183.79,334.52c-18.56-5.43-35.41-9.27-50.62-13.99,8.31,8.85,17.82,16.59,28.66,23.2h30.97c.57-3.68-1.78-7.09-9.01-9.21Z"/><path class="cls-1" d="m183.79,334.52c-18.56-5.43-35.41-9.27-50.62-13.99,8.31,8.85,17.82,16.59,28.66,23.2h30.97c.57-3.68-1.78-7.09-9.01-9.21Z"/><path class="cls-1" d="m46.22,103.2C-5.21,140.61-44.13,214.7-12.45,269.71c8.93,15.51,19.16,26.16,30.76,34.03-.22-.32-.44-.63-.65-.95-52.61-78.29,26.99-159.17,49.16-182.04,19.51-20.13,48.2-46.57,55.21-53.36C172.34,16.93,175.36.26,175.36.26h7.78C183.14.08,183.13,0,183.13,0l-53.13.26h22.08s-13.55,35.8-105.85,102.95Z"/><path class="cls-2" d="m21.45,120.75c-9.26,9.56-28.55,29.24-44.03,54.63-15.55,31.31-20.7,64.62-3.6,94.33,14.36,24.93,32.06,37.31,53.43,45.76-3.17-3.73-6.14-7.64-8.94-11.72-11.6-7.87-21.83-18.52-30.76-34.03-31.67-55.02,7.25-129.1,58.67-166.51C138.51,36.06,152.07.26,152.07.26h-22.08s-3.01,16.67-53.34,67.14c-7.01,6.79-35.7,33.23-55.21,53.36Z"/><path class="cls-1" d="m21.45,120.75c-9.26,9.56-28.55,29.24-44.03,54.63-15.55,31.31-20.7,64.62-3.6,94.33,14.36,24.93,32.06,37.31,53.43,45.76-3.17-3.73-6.14-7.64-8.94-11.72-11.6-7.87-21.83-18.52-30.76-34.03-31.67-55.02,7.25-129.1,58.67-166.51C138.51,36.06,152.07.26,152.07.26h-22.08s-3.01,16.67-53.34,67.14c-7.01,6.79-35.7,33.23-55.21,53.36Z"/><path class="cls-2" d="m51.77,338.01c1.83,1.71,2.43,3.67,2.11,5.72h6.54c-2.98-1.82-5.86-3.73-8.65-5.72Z"/><path class="cls-3" d="m51.77,338.01c1.83,1.71,2.43,3.67,2.11,5.72h6.54c-2.98-1.82-5.86-3.73-8.65-5.72Z"/><path class="cls-1" d="m51.77,338.01c1.83,1.71,2.43,3.67,2.11,5.72h6.54c-2.98-1.82-5.86-3.73-8.65-5.72Z"/><path class="cls-2" d="m49.73,336.52c-8.38-6.22-15.85-13.25-22.48-21.05-21.36-8.45-39.07-20.82-53.43-45.76-17.1-29.71-11.95-63.02,3.6-94.33-21.57,35.38-35.76,81.83-5.13,127.41,3.28,4.88,6.82,9.51,10.63,13.89,18.06,6.71,38.65,11.01,61.95,17.83,1.97.58,3.57,1.25,4.85,2Z"/><path class="cls-3" d="m49.73,336.52c-8.38-6.22-15.85-13.25-22.48-21.05-21.36-8.45-39.07-20.82-53.43-45.76-17.1-29.71-11.95-63.02,3.6-94.33-21.57,35.38-35.76,81.83-5.13,127.41,3.28,4.88,6.82,9.51,10.63,13.89,18.06,6.71,38.65,11.01,61.95,17.83,1.97.58,3.57,1.25,4.85,2Z"/><path class="cls-1" d="m49.73,336.52c-8.38-6.22-15.85-13.25-22.48-21.05-21.36-8.45-39.07-20.82-53.43-45.76-17.1-29.71-11.95-63.02,3.6-94.33-21.57,35.38-35.76,81.83-5.13,127.41,3.28,4.88,6.82,9.51,10.63,13.89,18.06,6.71,38.65,11.01,61.95,17.83,1.97.58,3.57,1.25,4.85,2Z"/><path class="cls-2" d="m-9.5,324.71c11.23,3.05,23.26,6.05,36.11,9.81,7.23,2.12,9.58,5.53,9.01,9.21h18.26c.32-2.05-.28-4.01-2.11-5.72-.69-.49-1.37-.99-2.05-1.49-1.29-.75-2.88-1.42-4.85-2-23.3-6.82-43.89-11.12-61.95-17.83,2.41,2.78,4.94,5.45,7.58,8.02Z"/><path class="cls-3" d="m-9.5,324.71c11.23,3.05,23.26,6.05,36.11,9.81,7.23,2.12,9.58,5.53,9.01,9.21h18.26c.32-2.05-.28-4.01-2.11-5.72-.69-.49-1.37-.99-2.05-1.49-1.29-.75-2.88-1.42-4.85-2-23.3-6.82-43.89-11.12-61.95-17.83,2.41,2.78,4.94,5.45,7.58,8.02Z"/><path class="cls-1" d="m-9.5,324.71c11.23,3.05,23.26,6.05,36.11,9.81,7.23,2.12,9.58,5.53,9.01,9.21h18.26c.32-2.05-.28-4.01-2.11-5.72-.69-.49-1.37-.99-2.05-1.49-1.29-.75-2.88-1.42-4.85-2-23.3-6.82-43.89-11.12-61.95-17.83,2.41,2.78,4.94,5.45,7.58,8.02Z"/><path class="cls-1" d="m-9.5,324.71c11.23,3.05,23.26,6.05,36.11,9.81,7.23,2.12,9.58,5.53,9.01,9.21h18.26c.32-2.05-.28-4.01-2.11-5.72-.69-.49-1.37-.99-2.05-1.49-1.29-.75-2.88-1.42-4.85-2-23.3-6.82-43.89-11.12-61.95-17.83,2.41,2.78,4.94,5.45,7.58,8.02Z"/><path class="cls-2" d="m122.02,67.39c-7.01,6.79-35.7,33.23-55.21,53.36-22.16,22.87-101.77,103.75-49.16,182.04.21.32.44.63.65.95,11.62,7.88,24.62,12.97,39.06,17.36-5.37-5.65-10.24-11.75-14.65-18.31-2.53-3.76-4.74-7.52-6.68-11.29-5.81-5.99-11.2-13.13-16.18-21.79-31.67-55.02,41.44-135.74,87.03-179.95C179.86,19.01,183.07,2.39,183.14.26h-7.78s-3.01,16.67-53.34,67.14Z"/><path class="cls-1" d="m122.02,67.39c-7.01,6.79-35.7,33.23-55.21,53.36-22.16,22.87-101.77,103.75-49.16,182.04.21.32.44.63.65.95,11.62,7.88,24.62,12.97,39.06,17.36-5.37-5.65-10.24-11.75-14.65-18.31-2.53-3.76-4.74-7.52-6.68-11.29-5.81-5.99-11.2-13.13-16.18-21.79-31.67-55.02,41.44-135.74,87.03-179.95C179.86,19.01,183.07,2.39,183.14.26h-7.78s-3.01,16.67-53.34,67.14Z"/><path class="cls-2" d="m57.37,321.1c-14.44-4.38-27.44-9.48-39.06-17.36,2.79,4.09,5.77,7.99,8.94,11.72,10.87,4.3,22.69,7.58,35.5,10.98-1.84-1.73-3.64-3.51-5.38-5.34Z"/><path class="cls-2" d="m57.37,321.1c-14.44-4.38-27.44-9.48-39.06-17.36,2.79,4.09,5.77,7.99,8.94,11.72,10.87,4.3,22.69,7.58,35.5,10.98-1.84-1.73-3.64-3.51-5.38-5.34Z"/><path class="cls-1" d="m57.37,321.1c-14.44-4.38-27.44-9.48-39.06-17.36,2.79,4.09,5.77,7.99,8.94,11.72,10.87,4.3,22.69,7.58,35.5,10.98-1.84-1.73-3.64-3.51-5.38-5.34Z"/><path class="cls-2" d="m49.73,336.52c.8.47,1.48.97,2.05,1.49,2.79,1.99,5.66,3.9,8.65,5.72h25.07c-8.35-5.09-15.91-10.86-22.74-17.28-12.81-3.4-24.63-6.68-35.5-10.98,6.63,7.81,14.1,14.83,22.48,21.05Z"/><path class="cls-3" d="m49.73,336.52c.8.47,1.48.97,2.05,1.49,2.79,1.99,5.66,3.9,8.65,5.72h25.07c-8.35-5.09-15.91-10.86-22.74-17.28-12.81-3.4-24.63-6.68-35.5-10.98,6.63,7.81,14.1,14.83,22.48,21.05Z"/><path class="cls-2" d="m49.73,336.52c.8.47,1.48.97,2.05,1.49,2.79,1.99,5.66,3.9,8.65,5.72h25.07c-8.35-5.09-15.91-10.86-22.74-17.28-12.81-3.4-24.63-6.68-35.5-10.98,6.63,7.81,14.1,14.83,22.48,21.05Z"/><path class="cls-1" d="m49.73,336.52c.8.47,1.48.97,2.05,1.49,2.79,1.99,5.66,3.9,8.65,5.72h25.07c-8.35-5.09-15.91-10.86-22.74-17.28-12.81-3.4-24.63-6.68-35.5-10.98,6.63,7.81,14.1,14.83,22.48,21.05Z"/><path class="cls-3" d="m114.96,341.02c.26.88.3,1.78.16,2.71h4.11c-1.45-.88-2.87-1.79-4.27-2.71Z"/><path class="cls-2" d="m114.96,341.02c.26.88.3,1.78.16,2.71h4.11c-1.45-.88-2.87-1.79-4.27-2.71Z"/><path class="cls-1" d="m114.96,341.02c.26.88.3,1.78.16,2.71h4.11c-1.45-.88-2.87-1.79-4.27-2.71Z"/><path class="cls-3" d="m91.69,321.71c-21.68-6.43-40.15-14.21-55.65-30.2,1.94,3.76,4.15,7.53,6.68,11.29,4.4,6.56,9.28,12.66,14.65,18.31,14.63,4.44,30.74,8.16,48.42,13.32-5.04-3.94-9.73-8.18-14.1-12.72Z"/><path class="cls-2" d="m91.69,321.71c-21.68-6.43-40.15-14.21-55.65-30.2,1.94,3.76,4.15,7.53,6.68,11.29,4.4,6.56,9.28,12.66,14.65,18.31,14.63,4.44,30.74,8.16,48.42,13.32-5.04-3.94-9.73-8.18-14.1-12.72Z"/><path class="cls-1" d="m91.69,321.71c-21.68-6.43-40.15-14.21-55.65-30.2,1.94,3.76,4.15,7.53,6.68,11.29,4.4,6.56,9.28,12.66,14.65,18.31,14.63,4.44,30.74,8.16,48.42,13.32-5.04-3.94-9.73-8.18-14.1-12.72Z"/><path class="cls-2" d="m62.74,326.45c9.35,2.48,19.22,5.02,29.64,8.07,7.23,2.12,9.58,5.53,9.01,9.21h13.73c.14-.93.1-1.83-.16-2.71-3.18-2.09-6.23-4.29-9.17-6.59-17.68-5.16-33.79-8.88-48.42-13.32,1.74,1.83,3.53,3.61,5.38,5.34Z"/><path class="cls-3" d="m62.74,326.45c9.35,2.48,19.22,5.02,29.64,8.07,7.23,2.12,9.58,5.53,9.01,9.21h13.73c.14-.93.1-1.83-.16-2.71-3.18-2.09-6.23-4.29-9.17-6.59-17.68-5.16-33.79-8.88-48.42-13.32,1.74,1.83,3.53,3.61,5.38,5.34Z"/><path class="cls-2" d="m62.74,326.45c9.35,2.48,19.22,5.02,29.64,8.07,7.23,2.12,9.58,5.53,9.01,9.21h13.73c.14-.93.1-1.83-.16-2.71-3.18-2.09-6.23-4.29-9.17-6.59-17.68-5.16-33.79-8.88-48.42-13.32,1.74,1.83,3.53,3.61,5.38,5.34Z"/><path class="cls-1" d="m62.74,326.45c9.35,2.48,19.22,5.02,29.64,8.07,7.23,2.12,9.58,5.53,9.01,9.21h13.73c.14-.93.1-1.83-.16-2.71-3.18-2.09-6.23-4.29-9.17-6.59-17.68-5.16-33.79-8.88-48.42-13.32,1.74,1.83,3.53,3.61,5.38,5.34Z"/><path class="cls-2" d="m92.38,334.52c-10.42-3.05-20.29-5.59-29.64-8.07,6.83,6.42,14.39,12.19,22.74,17.28h15.91c.57-3.68-1.78-7.09-9.01-9.21Z"/><path class="cls-3" d="m92.38,334.52c-10.42-3.05-20.29-5.59-29.64-8.07,6.83,6.42,14.39,12.19,22.74,17.28h15.91c.57-3.68-1.78-7.09-9.01-9.21Z"/><path class="cls-3" d="m92.38,334.52c-10.42-3.05-20.29-5.59-29.64-8.07,6.83,6.42,14.39,12.19,22.74,17.28h15.91c.57-3.68-1.78-7.09-9.01-9.21Z"/><path class="cls-2" d="m92.38,334.52c-10.42-3.05-20.29-5.59-29.64-8.07,6.83,6.42,14.39,12.19,22.74,17.28h15.91c.57-3.68-1.78-7.09-9.01-9.21Z"/><path class="cls-1" d="m92.38,334.52c-10.42-3.05-20.29-5.59-29.64-8.07,6.83,6.42,14.39,12.19,22.74,17.28h15.91c.57-3.68-1.78-7.09-9.01-9.21Z"/><path class="cls-2" d="m51.77,338.01c-.56-.52-1.24-1.02-2.05-1.49.68.5,1.36,1,2.05,1.49Z"/><path class="cls-3" d="m51.77,338.01c-.56-.52-1.24-1.02-2.05-1.49.68.5,1.36,1,2.05,1.49Z"/><path class="cls-1" d="m51.77,338.01c-.56-.52-1.24-1.02-2.05-1.49.68.5,1.36,1,2.05,1.49Z"/><path class="cls-2" d="m51.77,338.01c-.56-.52-1.24-1.02-2.05-1.49.68.5,1.36,1,2.05,1.49Z"/><path class="cls-1" d="m51.77,338.01c-.56-.52-1.24-1.02-2.05-1.49.68.5,1.36,1,2.05,1.49Z"/><path class="cls-2" d="m12.43,342.09c.87.55,1.74,1.1,2.63,1.64h20.57c.57-3.68-1.78-7.09-9.01-9.21-12.85-3.76-24.88-6.76-36.11-9.81,3.25,3.17,6.67,6.2,10.27,9.06.86.25,1.73.5,2.59.75,6.14,1.8,8.76,4.53,9.06,7.57Z"/><path class="cls-3" d="m12.43,342.09c.87.55,1.74,1.1,2.63,1.64h20.57c.57-3.68-1.78-7.09-9.01-9.21-12.85-3.76-24.88-6.76-36.11-9.81,3.25,3.17,6.67,6.2,10.27,9.06.86.25,1.73.5,2.59.75,6.14,1.8,8.76,4.53,9.06,7.57Z"/><path class="cls-1" d="m12.43,342.09c.87.55,1.74,1.1,2.63,1.64h20.57c.57-3.68-1.78-7.09-9.01-9.21-12.85-3.76-24.88-6.76-36.11-9.81,3.25,3.17,6.67,6.2,10.27,9.06.86.25,1.73.5,2.59.75,6.14,1.8,8.76,4.53,9.06,7.57Z"/><path class="cls-2" d="m12.43,342.09c.87.55,1.74,1.1,2.63,1.64h20.57c.57-3.68-1.78-7.09-9.01-9.21-12.85-3.76-24.88-6.76-36.11-9.81,3.25,3.17,6.67,6.2,10.27,9.06.86.25,1.73.5,2.59.75,6.14,1.8,8.76,4.53,9.06,7.57Z"/><path class="cls-1" d="m12.43,342.09c.87.55,1.74,1.1,2.63,1.64h20.57c.57-3.68-1.78-7.09-9.01-9.21-12.85-3.76-24.88-6.76-36.11-9.81,3.25,3.17,6.67,6.2,10.27,9.06.86.25,1.73.5,2.59.75,6.14,1.8,8.76,4.53,9.06,7.57Z"/><path class="cls-2" d="m3.37,334.52c-.87-.25-1.73-.5-2.59-.75,3.7,2.94,7.58,5.71,11.65,8.32-.3-3.04-2.91-5.77-9.06-7.57Z"/><path class="cls-3" d="m3.37,334.52c-.87-.25-1.73-.5-2.59-.75,3.7,2.94,7.58,5.71,11.65,8.32-.3-3.04-2.91-5.77-9.06-7.57Z"/><path class="cls-3" d="m3.37,334.52c-.87-.25-1.73-.5-2.59-.75,3.7,2.94,7.58,5.71,11.65,8.32-.3-3.04-2.91-5.77-9.06-7.57Z"/><path class="cls-1" d="m3.37,334.52c-.87-.25-1.73-.5-2.59-.75,3.7,2.94,7.58,5.71,11.65,8.32-.3-3.04-2.91-5.77-9.06-7.57Z"/><path class="cls-2" d="m3.37,334.52c-.87-.25-1.73-.5-2.59-.75,3.7,2.94,7.58,5.71,11.65,8.32-.3-3.04-2.91-5.77-9.06-7.57Z"/><path class="cls-1" d="m3.37,334.52c-.87-.25-1.73-.5-2.59-.75,3.7,2.94,7.58,5.71,11.65,8.32-.3-3.04-2.91-5.77-9.06-7.57Z"/><path class="cls-3" d="m105.79,334.43c.11.03.22.06.32.09,5.41,1.58,8.08,3.89,8.85,6.5,1.4.92,2.82,1.83,4.27,2.71h24.71c-6.26-3.82-12.07-8.01-17.47-12.58-12.41-3.38-23.99-6.25-34.78-9.45,4.37,4.54,9.06,8.78,14.1,12.72Z"/><path class="cls-2" d="m105.79,334.43c.11.03.22.06.32.09,5.41,1.58,8.08,3.89,8.85,6.5,1.4.92,2.82,1.83,4.27,2.71h24.71c-6.26-3.82-12.07-8.01-17.47-12.58-12.41-3.38-23.99-6.25-34.78-9.45,4.37,4.54,9.06,8.78,14.1,12.72Z"/><path class="cls-1" d="m105.79,334.43c.11.03.22.06.32.09,5.41,1.58,8.08,3.89,8.85,6.5,1.4.92,2.82,1.83,4.27,2.71h24.71c-6.26-3.82-12.07-8.01-17.47-12.58-12.41-3.38-23.99-6.25-34.78-9.45,4.37,4.54,9.06,8.78,14.1,12.72Z"/><path class="cls-1" d="m105.79,334.43c.11.03.22.06.32.09,5.41,1.58,8.08,3.89,8.85,6.5,1.4.92,2.82,1.83,4.27,2.71h24.71c-6.26-3.82-12.07-8.01-17.47-12.58-12.41-3.38-23.99-6.25-34.78-9.45,4.37,4.54,9.06,8.78,14.1,12.72Z"/><path class="cls-2" d="m106.11,334.52c-.11-.03-.22-.06-.32-.09,2.94,2.3,6,4.5,9.17,6.59-.77-2.6-3.44-4.91-8.85-6.5Z"/><path class="cls-3" d="m106.11,334.52c-.11-.03-.22-.06-.32-.09,2.94,2.3,6,4.5,9.17,6.59-.77-2.6-3.44-4.91-8.85-6.5Z"/><path class="cls-2" d="m106.11,334.52c-.11-.03-.22-.06-.32-.09,2.94,2.3,6,4.5,9.17,6.59-.77-2.6-3.44-4.91-8.85-6.5Z"/><path class="cls-1" d="m106.11,334.52c-.11-.03-.22-.06-.32-.09,2.94,2.3,6,4.5,9.17,6.59-.77-2.6-3.44-4.91-8.85-6.5Z"/><path class="cls-1" d="m106.11,334.52c-.11-.03-.22-.06-.32-.09,2.94,2.3,6,4.5,9.17,6.59-.77-2.6-3.44-4.91-8.85-6.5Z"/><path class="cls-3" d="m138.42,334.52c-4.07-1.19-8.05-2.3-11.96-3.37,5.4,4.57,11.21,8.76,17.47,12.58h3.5c.57-3.68-1.78-7.09-9.01-9.21Z"/><path class="cls-3" d="m138.42,334.52c-4.07-1.19-8.05-2.3-11.96-3.37,5.4,4.57,11.21,8.76,17.47,12.58h3.5c.57-3.68-1.78-7.09-9.01-9.21Z"/><path class="cls-2" d="m138.42,334.52c-4.07-1.19-8.05-2.3-11.96-3.37,5.4,4.57,11.21,8.76,17.47,12.58h3.5c.57-3.68-1.78-7.09-9.01-9.21Z"/><path class="cls-1" d="m138.42,334.52c-4.07-1.19-8.05-2.3-11.96-3.37,5.4,4.57,11.21,8.76,17.47,12.58h3.5c.57-3.68-1.78-7.09-9.01-9.21Z"/><path class="cls-1" d="m138.42,334.52c-4.07-1.19-8.05-2.3-11.96-3.37,5.4,4.57,11.21,8.76,17.47,12.58h3.5c.57-3.68-1.78-7.09-9.01-9.21Z"/><path class="cls-2" d="m601.1,103.2c43.78,36.26,81.51,96.84,66.33,148.6,2.33-59.35-49.51-112.1-66.72-129.86-19.51-20.13-48.2-46.57-55.21-53.36C495.18,18.12,492.17.26,492.17.26h28s8.66,43.07,80.94,102.95Z"/><path class="cls-2" d="m776.02,103.2c21.03,20.29,41.83,45.51,55.07,72.18-15.48-25.39-34.77-45.08-44.03-54.63-19.51-20.13-48.2-46.57-55.21-53.36C681.53,16.93,678.52.26,678.52.26h18.58s48.89,73.98,78.92,102.95Z"/><path class="cls-3" d="m579.65,103.37c48.91,40.59,93.91,111.32,62.24,166.34-7.67,13.33-16.31,23.07-25.94,30.54,49.23-77.49-28.88-156.88-50.8-179.5-15.03-15.51-35.51-34.77-47.33-45.89C491.65,41.67,464.71.26,464.71.26h27.45s-5.32,26.11,87.48,103.12Z"/><path class="cls-2" d="m600.71,121.94c17.21,17.76,69.05,70.51,66.72,129.86-1.79,6.11-4.31,12.1-7.66,17.91-14.9,25.88-33.41,38.23-55.88,46.7,3.72-4.3,7.19-8.84,10.4-13.62.57-.85,1.1-1.7,1.64-2.54,9.64-7.47,18.27-17.21,25.94-30.54,31.67-55.02-13.33-125.75-62.24-166.34C486.85,26.36,492.17.26,492.17.26c0,0,3.01,17.86,53.34,68.33,7.01,6.79,35.7,33.23,55.21,53.36Z"/><path class="cls-3" d="m600.71,121.94c17.21,17.76,69.05,70.51,66.72,129.86-1.79,6.11-4.31,12.1-7.66,17.91-14.9,25.88-33.41,38.23-55.88,46.7,3.72-4.3,7.19-8.84,10.4-13.62.57-.85,1.1-1.7,1.64-2.54,9.64-7.47,18.27-17.21,25.94-30.54,31.67-55.02-13.33-125.75-62.24-166.34C486.85,26.36,492.17.26,492.17.26c0,0,3.01,17.86,53.34,68.33,7.01,6.79,35.7,33.23,55.21,53.36Z"/><path class="cls-3" d="m948.04,302.79c52.61-78.29-26.99-159.17-49.16-182.04-19.51-20.13-48.2-46.57-55.21-53.36C793.35,16.93,790.33.26,790.33.26h23.24s3.01,16.67,53.34,67.14c7.01,6.79,35.7,33.23,55.21,53.36,22.16,22.87,101.77,103.75,49.16,182.04-11.12,16.55-25.21,30.23-42.77,40.93h-23.24c17.56-10.71,31.65-24.39,42.77-40.93Z"/><path class="cls-3" d="m622.58,94.24c19.5,17.93,39.01,41.86,52.83,67.65-13.38-18.84-27.58-33.35-35.12-41.14-19.51-20.13-48.2-46.57-55.21-53.36C534.76,16.93,532.64.26,532.64.26h14.25s0,24.4,75.69,93.98Z"/><path class="cls-2" d="m640.29,120.75c7.54,7.79,21.75,22.3,35.12,41.14,19.32,36.05,27.53,75.75,9.07,107.82-10.57,18.36-22.95,29.91-37.28,38.09.91-1.26,1.8-2.53,2.67-3.82,11.75-17.49,16.89-35.11,17.56-52.18,15.18-51.75-22.56-112.34-66.33-148.6C528.82,43.33,520.16.26,520.16.26h12.48s2.12,16.67,52.44,67.14c7.01,6.79,35.7,33.23,55.21,53.36Z"/><path class="cls-3" d="m640.29,120.75c7.54,7.79,21.75,22.3,35.12,41.14,19.32,36.05,27.53,75.75,9.07,107.82-10.57,18.36-22.95,29.91-37.28,38.09.91-1.26,1.8-2.53,2.67-3.82,11.75-17.49,16.89-35.11,17.56-52.18,15.18-51.75-22.56-112.34-66.33-148.6C528.82,43.33,520.16.26,520.16.26h12.48s2.12,16.67,52.44,67.14c7.01,6.79,35.7,33.23,55.21,53.36Z"/><path class="cls-2" d="m603.9,316.41c22.46-8.47,40.98-20.82,55.88-46.7,3.35-5.81,5.87-11.8,7.66-17.91-.67,17.07-5.81,34.69-17.56,52.18-.87,1.29-1.76,2.56-2.67,3.82-15.49,8.86-33.26,13.78-53.44,19.11,3.57-3.32,6.95-6.83,10.13-10.51Z"/><path class="cls-3" d="m603.9,316.41c22.46-8.47,40.98-20.82,55.88-46.7,3.35-5.81,5.87-11.8,7.66-17.91-.67,17.07-5.81,34.69-17.56,52.18-.87,1.29-1.76,2.56-2.67,3.82-15.49,8.86-33.26,13.78-53.44,19.11,3.57-3.32,6.95-6.83,10.13-10.51Z"/><path class="cls-3" d="m603.9,316.41c22.46-8.47,40.98-20.82,55.88-46.7,3.35-5.81,5.87-11.8,7.66-17.91-.67,17.07-5.81,34.69-17.56,52.18-.87,1.29-1.76,2.56-2.67,3.82-15.49,8.86-33.26,13.78-53.44,19.11,3.57-3.32,6.95-6.83,10.13-10.51Z"/><path class="cls-3" d="m798.53,93.12c44.59,43.02,111.95,117.81,85.8,172.52,13.03-65.3-46.3-125.64-64.95-144.89-19.51-20.13-48.2-46.57-55.21-53.36C713.85,16.93,710.83.26,710.83.26h14.17s43.5,63.89,73.53,92.86Z"/><path class="cls-2" d="m819.38,120.75c18.65,19.25,77.98,79.59,64.95,144.89-.65,1.37-1.35,2.73-2.12,4.07-15.06,26.16-33.82,38.5-56.61,46.98,3.81-4.38,7.35-9.01,10.63-13.89,30.63-45.58,16.44-92.03-5.13-127.41-13.25-26.68-34.05-51.9-55.07-72.18C745.99,74.24,697.1.26,697.1.26h13.73s3.01,16.67,53.34,67.14c7.01,6.79,35.7,33.23,55.21,53.36Z"/><path class="cls-3" d="m819.38,120.75c18.65,19.25,77.98,79.59,64.95,144.89-.65,1.37-1.35,2.73-2.12,4.07-15.06,26.16-33.82,38.5-56.61,46.98,3.81-4.38,7.35-9.01,10.63-13.89,30.63-45.58,16.44-92.03-5.13-127.41-13.25-26.68-34.05-51.9-55.07-72.18C745.99,74.24,697.1.26,697.1.26h13.73s3.01,16.67,53.34,67.14c7.01,6.79,35.7,33.23,55.21,53.36Z"/><path class="cls-3" d="m684.62,103.2c43.68,39.39,83.91,101.4,64.51,154.05,6.72-62.02-48.38-118.08-66.23-136.5-19.51-20.13-48.2-46.57-55.21-53.36C577.36,16.93,574.35.26,574.35.26h31.35s-6.09,26.29,78.92,102.95Z"/><path class="cls-1" d="m556.83,101.62c43.74,46.02,77.15,114.27,45.48,169.29-26.99,46.89-65.84,49.37-118.56,64.81-6.45,1.89-9.01,4.8-9.09,8.02h-35.49c-.57-3.68,1.78-7.09,9.01-9.21,52.72-15.43,91.57-17.92,118.56-64.81,31.67-55.02,4.98-131.38-40.73-175.48C495.97,65.27,449.19.26,449.19.26h33.86s-8.41,14.9,73.78,101.36Z"/><path class="cls-3" d="m565.14,120.75c21.92,22.62,100.03,102.01,50.8,179.5-24.26,18.81-54.89,23.22-92.62,34.27-7.23,2.12-9.58,5.53-9.01,9.21h-39.66c.08-3.22,2.65-6.13,9.09-8.02,52.72-15.43,91.57-17.92,118.56-64.81,31.67-55.02-12.96-122.41-58.67-166.51-7.74-7.47,6.48.85,21.51,16.36Z"/><path class="cls-2" d="m532.2,343.73h-17.89c-.57-3.68,1.78-7.09,9.01-9.21,37.73-11.05,68.36-15.46,92.62-34.27-.54.85-1.07,1.7-1.64,2.54-3.21,4.78-6.68,9.32-10.4,13.62-18.23,6.87-39.07,11.19-62.69,18.11-7.23,2.12-9.58,5.53-9.01,9.21Z"/><path class="cls-3" d="m532.2,343.73h-17.89c-.57-3.68,1.78-7.09,9.01-9.21,37.73-11.05,68.36-15.46,92.62-34.27-.54.85-1.07,1.7-1.64,2.54-3.21,4.78-6.68,9.32-10.4,13.62-18.23,6.87-39.07,11.19-62.69,18.11-7.23,2.12-9.58,5.53-9.01,9.21Z"/><path class="cls-1" d="m532.2,343.73h-17.89c-.57-3.68,1.78-7.09,9.01-9.21,37.73-11.05,68.36-15.46,92.62-34.27-.54.85-1.07,1.7-1.64,2.54-3.21,4.78-6.68,9.32-10.4,13.62-18.23,6.87-39.07,11.19-62.69,18.11-7.23,2.12-9.58,5.53-9.01,9.21Z"/><path class="cls-2" d="m593.77,326.92c-8.82,2.33-18.09,4.74-27.85,7.6-7.23,2.12-9.58,5.53-9.01,9.21h-24.71c-.57-3.68,1.78-7.09,9.01-9.21,23.62-6.91,44.45-11.23,62.69-18.11-3.18,3.68-6.56,7.18-10.13,10.51Z"/><path class="cls-3" d="m593.77,326.92c-8.82,2.33-18.09,4.74-27.85,7.6-7.23,2.12-9.58,5.53-9.01,9.21h-24.71c-.57-3.68,1.78-7.09,9.01-9.21,23.62-6.91,44.45-11.23,62.69-18.11-3.18,3.68-6.56,7.18-10.13,10.51Z"/><path class="cls-3" d="m593.77,326.92c-8.82,2.33-18.09,4.74-27.85,7.6-7.23,2.12-9.58,5.53-9.01,9.21h-24.71c-.57-3.68,1.78-7.09,9.01-9.21,23.62-6.91,44.45-11.23,62.69-18.11-3.18,3.68-6.56,7.18-10.13,10.51Z"/><path class="cls-1" d="m593.77,326.92c-8.82,2.33-18.09,4.74-27.85,7.6-7.23,2.12-9.58,5.53-9.01,9.21h-24.71c-.57-3.68,1.78-7.09,9.01-9.21,23.62-6.91,44.45-11.23,62.69-18.11-3.18,3.68-6.56,7.18-10.13,10.51Z"/><path class="cls-1" d="m841.79,103.2c45.71,44.1,90.35,111.49,58.67,166.51-2.04,3.54-4.15,6.83-6.32,9.89,25.61-70.54-40.8-138.48-61.04-158.85C777.29,64.59,742.85.26,742.85.26h20.03s48.89,73.98,78.92,102.95Z"/><path class="cls-3" d="m894.15,279.6c-8.25,11.61-17.49,19.93-27.76,26.3.73-1.03,1.45-2.06,2.16-3.11,8.33-12.4,13.34-24.87,15.79-37.16,26.15-54.71-41.2-129.5-85.8-172.52C768.5,64.15,725,.26,725,.26h17.85s34.45,64.33,90.26,120.49c20.24,20.36,86.65,88.31,61.04,158.85Z"/><path class="cls-1" d="m894.15,279.6c-8.25,11.61-17.49,19.93-27.76,26.3.73-1.03,1.45-2.06,2.16-3.11,8.33-12.4,13.34-24.87,15.79-37.16,26.15-54.71-41.2-129.5-85.8-172.52C768.5,64.15,725,.26,725,.26h17.85s34.45,64.33,90.26,120.49c20.24,20.36,86.65,88.31,61.04,158.85Z"/><path class="cls-2" d="m701.62,89.76c45.6,44.21,118.71,124.94,87.03,179.95-4.99,8.66-10.38,15.8-16.18,21.79,38.41-74.64-34.74-148.98-55.84-170.75-19.51-20.13-48.2-46.57-55.21-53.36C611.1,16.93,608.09.26,608.09.26h17.29c.06,2.14,3.28,18.76,76.25,89.5Z"/><path class="cls-3" d="m716.64,120.75c21.1,21.77,94.25,96.12,55.84,170.75-15.5,15.99-33.97,23.77-55.65,30.2,5.6-5.82,10.66-12.12,15.23-18.91,10.24-15.23,15.45-30.56,17.07-45.55,19.4-52.64-20.83-114.66-64.51-154.05C599.61,26.55,605.7.26,605.7.26h2.39s3.01,16.67,53.34,67.14c7.01,6.79,35.7,33.23,55.21,53.36Z"/><path class="cls-2" d="m716.64,120.75c21.1,21.77,94.25,96.12,55.84,170.75-15.5,15.99-33.97,23.77-55.65,30.2,5.6-5.82,10.66-12.12,15.23-18.91,10.24-15.23,15.45-30.56,17.07-45.55,19.4-52.64-20.83-114.66-64.51-154.05C599.61,26.55,605.7.26,605.7.26h2.39s3.01,16.67,53.34,67.14c7.01,6.79,35.7,33.23,55.21,53.36Z"/><path class="cls-2" d="m865.04,103.2c10.97,10.35,21.82,22.07,31.57,34.67-6.42-7.28-12.09-13.1-15.99-17.12-19.51-20.13-48.2-46.57-55.21-53.36C775.08,16.93,772.07.26,772.07.26h14.05s3.03,31.33,78.92,102.95Z"/><path class="cls-3" d="m898.88,120.75c22.16,22.87,101.77,103.75,49.16,182.04-11.12,16.55-25.21,30.23-42.77,40.93h-18.26c17.56-10.71,31.65-24.39,42.77-40.93,43.36-64.53-3.09-130.81-33.17-164.92-9.75-12.59-20.6-24.32-31.57-34.67C789.15,31.58,786.12.26,786.12.26h4.21s3.01,16.67,53.34,67.14c7.01,6.79,35.7,33.23,55.21,53.36Z"/><path class="cls-2" d="m898.88,120.75c22.16,22.87,101.77,103.75,49.16,182.04-11.12,16.55-25.21,30.23-42.77,40.93h-18.26c17.56-10.71,31.65-24.39,42.77-40.93,43.36-64.53-3.09-130.81-33.17-164.92-9.75-12.59-20.6-24.32-31.57-34.67C789.15,31.58,786.12.26,786.12.26h4.21s3.01,16.67,53.34,67.14c7.01,6.79,35.7,33.23,55.21,53.36Z"/><path class="cls-1" d="m880.62,120.75c3.9,4.02,9.57,9.84,15.99,17.12,31.32,40.45,51.26,89.89,27.1,131.84-13.53,23.5-30.04,35.85-49.78,44.26,2.95-3.57,5.73-7.29,8.34-11.18,5.19-7.72,9.08-15.48,11.88-23.2,2.18-3.06,4.28-6.34,6.32-9.89,31.67-55.02-12.96-122.41-58.67-166.51C811.77,74.24,762.88.26,762.88.26h9.19s3.01,16.67,53.34,67.14c7.01,6.79,35.7,33.23,55.21,53.36Z"/><path class="cls-2" d="m880.62,120.75c3.9,4.02,9.57,9.84,15.99,17.12,31.32,40.45,51.26,89.89,27.1,131.84-13.53,23.5-30.04,35.85-49.78,44.26,2.95-3.57,5.73-7.29,8.34-11.18,5.19-7.72,9.08-15.48,11.88-23.2,2.18-3.06,4.28-6.34,6.32-9.89,31.67-55.02-12.96-122.41-58.67-166.51C811.77,74.24,762.88.26,762.88.26h9.19s3.01,16.67,53.34,67.14c7.01,6.79,35.7,33.23,55.21,53.36Z"/><path class="cls-2" d="m807.74,333.77c3.6-2.86,7.02-5.88,10.27-9.06,18.16-4.94,34.24-10.04,48.37-18.81-3.83,5.38-7.98,10.45-12.49,15.2-14,4.25-29.36,7.84-46.15,12.66Z"/><path class="cls-3" d="m807.74,333.77c3.6-2.86,7.02-5.88,10.27-9.06,18.16-4.94,34.24-10.04,48.37-18.81-3.83,5.38-7.98,10.45-12.49,15.2-14,4.25-29.36,7.84-46.15,12.66Z"/><path class="cls-1" d="m807.74,333.77c3.6-2.86,7.02-5.88,10.27-9.06,18.16-4.94,34.24-10.04,48.37-18.81-3.83,5.38-7.98,10.45-12.49,15.2-14,4.25-29.36,7.84-46.15,12.66Z"/><path class="cls-2" d="m807.74,333.77c3.6-2.86,7.02-5.88,10.27-9.06,18.16-4.94,34.24-10.04,48.37-18.81-3.83,5.38-7.98,10.45-12.49,15.2-14,4.25-29.36,7.84-46.15,12.66Z"/><path class="cls-2" d="m796.14,343.73h-2.68c.88-.54,1.76-1.09,2.63-1.64-.05.54-.04,1.09.05,1.64Z"/><path class="cls-3" d="m796.14,343.73h-2.68c.88-.54,1.76-1.09,2.63-1.64-.05.54-.04,1.09.05,1.64Z"/><path class="cls-1" d="m796.14,343.73h-2.68c.88-.54,1.76-1.09,2.63-1.64-.05.54-.04,1.09.05,1.64Z"/><path class="cls-2" d="m796.14,343.73h-2.68c.88-.54,1.76-1.09,2.63-1.64-.05.54-.04,1.09.05,1.64Z"/><path class="cls-2" d="m796.09,342.09c4.08-2.61,7.96-5.38,11.65-8.32,16.79-4.83,32.15-8.41,46.15-12.66-8.18,8.61-17.52,16.16-28.12,22.63h-29.64c-.09-.55-.1-1.1-.05-1.64Z"/><path class="cls-3" d="m796.09,342.09c4.08-2.61,7.96-5.38,11.65-8.32,16.79-4.83,32.15-8.41,46.15-12.66-8.18,8.61-17.52,16.16-28.12,22.63h-29.64c-.09-.55-.1-1.1-.05-1.64Z"/><path class="cls-3" d="m796.09,342.09c4.08-2.61,7.96-5.38,11.65-8.32,16.79-4.83,32.15-8.41,46.15-12.66-8.18,8.61-17.52,16.16-28.12,22.63h-29.64c-.09-.55-.1-1.1-.05-1.64Z"/><path class="cls-1" d="m796.09,342.09c4.08-2.61,7.96-5.38,11.65-8.32,16.79-4.83,32.15-8.41,46.15-12.66-8.18,8.61-17.52,16.16-28.12,22.63h-29.64c-.09-.55-.1-1.1-.05-1.64Z"/><path class="cls-2" d="m796.09,342.09c4.08-2.61,7.96-5.38,11.65-8.32,16.79-4.83,32.15-8.41,46.15-12.66-8.18,8.61-17.52,16.16-28.12,22.63h-29.64c-.09-.55-.1-1.1-.05-1.64Z"/><path class="cls-1" d="m659.55,103.2c48.54,32.65,84.2,99.53,64.99,152.86,5.89-61.55-48.62-117.01-66.36-135.31-19.51-20.13-48.2-46.57-55.21-53.36C552.66,16.93,549.64.26,549.64.26h16.48s31.03,60.97,93.43,102.95Z"/><path class="cls-3" d="m658.19,120.75c17.74,18.3,72.25,73.76,66.36,135.31-1.68,4.66-3.77,9.23-6.32,13.65-8.28,14.38-17.67,24.58-28.24,32.26,33.91-51.38,11.21-103.77-14.57-140.08-13.82-25.79-33.33-49.72-52.83-67.65C546.89,24.65,546.89.26,546.89.26h2.75s3.01,16.67,53.34,67.14c7.01,6.79,35.7,33.23,55.21,53.36Z"/><path class="cls-1" d="m658.19,120.75c17.74,18.3,72.25,73.76,66.36,135.31-1.68,4.66-3.77,9.23-6.32,13.65-8.28,14.38-17.67,24.58-28.24,32.26,33.91-51.38,11.21-103.77-14.57-140.08-13.82-25.79-33.33-49.72-52.83-67.65C546.89,24.65,546.89.26,546.89.26h2.75s3.01,16.67,53.34,67.14c7.01,6.79,35.7,33.23,55.21,53.36Z"/><path class="cls-2" d="m647.2,307.81c14.32-8.19,26.71-19.74,37.28-38.09,18.46-32.07,10.25-71.77-9.07-107.82,25.78,36.31,48.48,88.71,14.57,140.08-16.48,11.98-35.81,17.83-58.21,23.81,5.65-5.53,10.78-11.52,15.43-17.98Z"/><path class="cls-3" d="m647.2,307.81c14.32-8.19,26.71-19.74,37.28-38.09,18.46-32.07,10.25-71.77-9.07-107.82,25.78,36.31,48.48,88.71,14.57,140.08-16.48,11.98-35.81,17.83-58.21,23.81,5.65-5.53,10.78-11.52,15.43-17.98Z"/><path class="cls-1" d="m647.2,307.81c14.32-8.19,26.71-19.74,37.28-38.09,18.46-32.07,10.25-71.77-9.07-107.82,25.78,36.31,48.48,88.71,14.57,140.08-16.48,11.98-35.81,17.83-58.21,23.81,5.65-5.53,10.78-11.52,15.43-17.98Z"/><path class="cls-2" d="m631.78,325.79c-10.08,2.69-20.78,5.41-32.12,8.73-7.23,2.12-9.58,5.53-9.01,9.21h-19.12c8.14-4.97,15.54-10.57,22.24-16.81,20.18-5.34,37.94-10.26,53.44-19.11-4.65,6.46-9.78,12.45-15.43,17.98Z"/><path class="cls-3" d="m631.78,325.79c-10.08,2.69-20.78,5.41-32.12,8.73-7.23,2.12-9.58,5.53-9.01,9.21h-19.12c8.14-4.97,15.54-10.57,22.24-16.81,20.18-5.34,37.94-10.26,53.44-19.11-4.65,6.46-9.78,12.45-15.43,17.98Z"/><path class="cls-3" d="m631.78,325.79c-10.08,2.69-20.78,5.41-32.12,8.73-7.23,2.12-9.58,5.53-9.01,9.21h-19.12c8.14-4.97,15.54-10.57,22.24-16.81,20.18-5.34,37.94-10.26,53.44-19.11-4.65,6.46-9.78,12.45-15.43,17.98Z"/><path class="cls-1" d="m631.78,325.79c-10.08,2.69-20.78,5.41-32.12,8.73-7.23,2.12-9.58,5.53-9.01,9.21h-19.12c8.14-4.97,15.54-10.57,22.24-16.81,20.18-5.34,37.94-10.26,53.44-19.11-4.65,6.46-9.78,12.45-15.43,17.98Z"/><path class="cls-3" d="m682.89,120.75c17.85,18.42,72.95,74.48,66.23,136.5-1.56,4.22-3.48,8.38-5.84,12.46-11.47,19.92-25.08,31.83-40.98,40.11,1.74-2.28,3.42-4.63,5.04-7.03,10.51-15.64,15.73-31.37,17.2-46.73,19.21-53.33-16.45-120.21-64.99-152.86C597.15,61.23,566.12.26,566.12.26h8.23s3.01,16.67,53.34,67.14c7.01,6.79,35.7,33.23,55.21,53.36Z"/><path class="cls-1" d="m682.89,120.75c17.85,18.42,72.95,74.48,66.23,136.5-1.56,4.22-3.48,8.38-5.84,12.46-11.47,19.92-25.08,31.83-40.98,40.11,1.74-2.28,3.42-4.63,5.04-7.03,10.51-15.64,15.73-31.37,17.2-46.73,19.21-53.33-16.45-120.21-64.99-152.86C597.15,61.23,566.12.26,566.12.26h8.23s3.01,16.67,53.34,67.14c7.01,6.79,35.7,33.23,55.21,53.36Z"/><path class="cls-3" d="m689.45,302.79c.18-.27.35-.55.53-.82,10.57-7.68,19.96-17.88,28.24-32.26,2.55-4.43,4.64-8.99,6.32-13.65-1.47,15.36-6.69,31.1-17.2,46.73-1.62,2.41-3.3,4.75-5.04,7.03-8.35,4.35-17.33,7.71-26.96,10.7,5.15-5.49,9.85-11.4,14.11-17.73Z"/><path class="cls-3" d="m689.45,302.79c.18-.27.35-.55.53-.82,10.57-7.68,19.96-17.88,28.24-32.26,2.55-4.43,4.64-8.99,6.32-13.65-1.47,15.36-6.69,31.1-17.2,46.73-1.62,2.41-3.3,4.75-5.04,7.03-8.35,4.35-17.33,7.71-26.96,10.7,5.15-5.49,9.85-11.4,14.11-17.73Z"/><path class="cls-1" d="m689.45,302.79c.18-.27.35-.55.53-.82,10.57-7.68,19.96-17.88,28.24-32.26,2.55-4.43,4.64-8.99,6.32-13.65-1.47,15.36-6.69,31.1-17.2,46.73-1.62,2.41-3.3,4.75-5.04,7.03-8.35,4.35-17.33,7.71-26.96,10.7,5.15-5.49,9.85-11.4,14.11-17.73Z"/><path class="cls-2" d="m675.34,320.53c-15.21,4.73-32.05,8.56-50.62,13.99-7.23,2.12-9.58,5.53-9.01,9.21h-6.7c8.38-5.29,15.94-11.27,22.76-17.94,22.4-5.99,41.73-11.84,58.21-23.81-.18.27-.35.55-.53.82-4.26,6.33-8.95,12.24-14.11,17.73Z"/><path class="cls-3" d="m675.34,320.53c-15.21,4.73-32.05,8.56-50.62,13.99-7.23,2.12-9.58,5.53-9.01,9.21h-6.7c8.38-5.29,15.94-11.27,22.76-17.94,22.4-5.99,41.73-11.84,58.21-23.81-.18.27-.35.55-.53.82-4.26,6.33-8.95,12.24-14.11,17.73Z"/><path class="cls-3" d="m675.34,320.53c-15.21,4.73-32.05,8.56-50.62,13.99-7.23,2.12-9.58,5.53-9.01,9.21h-6.7c8.38-5.29,15.94-11.27,22.76-17.94,22.4-5.99,41.73-11.84,58.21-23.81-.18.27-.35.55-.53.82-4.26,6.33-8.95,12.24-14.11,17.73Z"/><path class="cls-1" d="m675.34,320.53c-15.21,4.73-32.05,8.56-50.62,13.99-7.23,2.12-9.58,5.53-9.01,9.21h-6.7c8.38-5.29,15.94-11.27,22.76-17.94,22.4-5.99,41.73-11.84,58.21-23.81-.18.27-.35.55-.53.82-4.26,6.33-8.95,12.24-14.11,17.73Z"/><path class="cls-2" d="m599.66,334.52c11.34-3.32,22.04-6.04,32.12-8.73-6.82,6.67-14.38,12.65-22.76,17.94h-18.37c-.57-3.68,1.78-7.09,9.01-9.21Z"/><path class="cls-3" d="m599.66,334.52c11.34-3.32,22.04-6.04,32.12-8.73-6.82,6.67-14.38,12.65-22.76,17.94h-18.37c-.57-3.68,1.78-7.09,9.01-9.21Z"/><path class="cls-3" d="m599.66,334.52c11.34-3.32,22.04-6.04,32.12-8.73-6.82,6.67-14.38,12.65-22.76,17.94h-18.37c-.57-3.68,1.78-7.09,9.01-9.21Z"/><path class="cls-3" d="m599.66,334.52c11.34-3.32,22.04-6.04,32.12-8.73-6.82,6.67-14.38,12.65-22.76,17.94h-18.37c-.57-3.68,1.78-7.09,9.01-9.21Z"/><path class="cls-1" d="m599.66,334.52c11.34-3.32,22.04-6.04,32.12-8.73-6.82,6.67-14.38,12.65-22.76,17.94h-18.37c-.57-3.68,1.78-7.09,9.01-9.21Z"/><path class="cls-2" d="m565.92,334.52c9.75-2.86,19.03-5.27,27.85-7.6-6.7,6.23-14.09,11.84-22.24,16.81h-14.62c-.57-3.68,1.78-7.09,9.01-9.21Z"/><path class="cls-3" d="m565.92,334.52c9.75-2.86,19.03-5.27,27.85-7.6-6.7,6.23-14.09,11.84-22.24,16.81h-14.62c-.57-3.68,1.78-7.09,9.01-9.21Z"/><path class="cls-3" d="m565.92,334.52c9.75-2.86,19.03-5.27,27.85-7.6-6.7,6.23-14.09,11.84-22.24,16.81h-14.62c-.57-3.68,1.78-7.09,9.01-9.21Z"/><path class="cls-1" d="m565.92,334.52c9.75-2.86,19.03-5.27,27.85-7.6-6.7,6.23-14.09,11.84-22.24,16.81h-14.62c-.57-3.68,1.78-7.09,9.01-9.21Z"/><path class="cls-1" d="m565.92,334.52c9.75-2.86,19.03-5.27,27.85-7.6-6.7,6.23-14.09,11.84-22.24,16.81h-14.62c-.57-3.68,1.78-7.09,9.01-9.21Z"/><path class="cls-3" d="m702.31,309.83c15.9-8.29,29.51-20.19,40.98-40.11,2.35-4.08,4.28-8.24,5.84-12.46-1.62,14.98-6.84,30.31-17.07,45.55-4.56,6.79-9.63,13.09-15.23,18.91-10.79,3.2-22.37,6.07-34.78,9.45,7.55-6.38,14.28-13.5,20.25-21.32Z"/><path class="cls-2" d="m702.31,309.83c15.9-8.29,29.51-20.19,40.98-40.11,2.35-4.08,4.28-8.24,5.84-12.46-1.62,14.98-6.84,30.31-17.07,45.55-4.56,6.79-9.63,13.09-15.23,18.91-10.79,3.2-22.37,6.07-34.78,9.45,7.55-6.38,14.28-13.5,20.25-21.32Z"/><path class="cls-1" d="m702.31,309.83c15.9-8.29,29.51-20.19,40.98-40.11,2.35-4.08,4.28-8.24,5.84-12.46-1.62,14.98-6.84,30.31-17.07,45.55-4.56,6.79-9.63,13.09-15.23,18.91-10.79,3.2-22.37,6.07-34.78,9.45,7.55-6.38,14.28-13.5,20.25-21.32Z"/><path class="cls-3" d="m682.05,331.15c-3.9,1.06-7.89,2.18-11.96,3.37-7.23,2.12-9.58,5.53-9.01,9.21h-14.39c10.84-6.61,20.35-14.35,28.66-23.2,9.63-2.99,18.61-6.35,26.96-10.7-5.98,7.83-12.71,14.94-20.25,21.32Z"/><path class="cls-3" d="m682.05,331.15c-3.9,1.06-7.89,2.18-11.96,3.37-7.23,2.12-9.58,5.53-9.01,9.21h-14.39c10.84-6.61,20.35-14.35,28.66-23.2,9.63-2.99,18.61-6.35,26.96-10.7-5.98,7.83-12.71,14.94-20.25,21.32Z"/><path class="cls-2" d="m682.05,331.15c-3.9,1.06-7.89,2.18-11.96,3.37-7.23,2.12-9.58,5.53-9.01,9.21h-14.39c10.84-6.61,20.35-14.35,28.66-23.2,9.63-2.99,18.61-6.35,26.96-10.7-5.98,7.83-12.71,14.94-20.25,21.32Z"/><path class="cls-1" d="m682.05,331.15c-3.9,1.06-7.89,2.18-11.96,3.37-7.23,2.12-9.58,5.53-9.01,9.21h-14.39c10.84-6.61,20.35-14.35,28.66-23.2,9.63-2.99,18.61-6.35,26.96-10.7-5.98,7.83-12.71,14.94-20.25,21.32Z"/><path class="cls-2" d="m624.72,334.52c18.56-5.43,35.41-9.27,50.62-13.99-8.31,8.85-17.82,16.59-28.66,23.2h-30.97c-.57-3.68,1.78-7.09,9.01-9.21Z"/><path class="cls-3" d="m624.72,334.52c18.56-5.43,35.41-9.27,50.62-13.99-8.31,8.85-17.82,16.59-28.66,23.2h-30.97c-.57-3.68,1.78-7.09,9.01-9.21Z"/><path class="cls-3" d="m624.72,334.52c18.56-5.43,35.41-9.27,50.62-13.99-8.31,8.85-17.82,16.59-28.66,23.2h-30.97c-.57-3.68,1.78-7.09,9.01-9.21Z"/><path class="cls-2" d="m624.72,334.52c18.56-5.43,35.41-9.27,50.62-13.99-8.31,8.85-17.82,16.59-28.66,23.2h-30.97c-.57-3.68,1.78-7.09,9.01-9.21Z"/><path class="cls-1" d="m624.72,334.52c18.56-5.43,35.41-9.27,50.62-13.99-8.31,8.85-17.82,16.59-28.66,23.2h-30.97c-.57-3.68,1.78-7.09,9.01-9.21Z"/><path class="cls-1" d="m762.29,103.2c51.43,37.41,90.35,111.49,58.67,166.51-8.93,15.51-19.16,26.16-30.76,34.03.22-.32.44-.63.65-.95,52.61-78.29-26.99-159.17-49.16-182.04-19.51-20.13-48.2-46.57-55.21-53.36C636.17,16.93,633.15.26,633.15.26h-7.78c0-.18.01-.26.01-.26l53.13.26h-22.08s13.55,35.8,105.85,102.95Z"/><path class="cls-2" d="m787.07,120.75c9.26,9.56,28.55,29.24,44.03,54.63,15.55,31.31,20.7,64.62,3.6,94.33-14.36,24.93-32.06,37.31-53.43,45.76,3.17-3.73,6.14-7.64,8.94-11.72,11.6-7.87,21.83-18.52,30.76-34.03,31.67-55.02-7.25-129.1-58.67-166.51C670,36.06,656.45.26,656.45.26h22.08s3.01,16.67,53.34,67.14c7.01,6.79,35.7,33.23,55.21,53.36Z"/><path class="cls-1" d="m787.07,120.75c9.26,9.56,28.55,29.24,44.03,54.63,15.55,31.31,20.7,64.62,3.6,94.33-14.36,24.93-32.06,37.31-53.43,45.76,3.17-3.73,6.14-7.64,8.94-11.72,11.6-7.87,21.83-18.52,30.76-34.03,31.67-55.02-7.25-129.1-58.67-166.51C670,36.06,656.45.26,656.45.26h22.08s3.01,16.67,53.34,67.14c7.01,6.79,35.7,33.23,55.21,53.36Z"/><path class="cls-2" d="m756.74,338.01c-1.83,1.71-2.43,3.67-2.11,5.72h-6.54c2.98-1.82,5.86-3.73,8.65-5.72Z"/><path class="cls-3" d="m756.74,338.01c-1.83,1.71-2.43,3.67-2.11,5.72h-6.54c2.98-1.82,5.86-3.73,8.65-5.72Z"/><path class="cls-1" d="m756.74,338.01c-1.83,1.71-2.43,3.67-2.11,5.72h-6.54c2.98-1.82,5.86-3.73,8.65-5.72Z"/><path class="cls-2" d="m758.79,336.52c8.38-6.22,15.85-13.25,22.48-21.05,21.36-8.45,39.07-20.82,53.43-45.76,17.1-29.71,11.95-63.02-3.6-94.33,21.57,35.38,35.76,81.83,5.13,127.41-3.28,4.88-6.82,9.51-10.63,13.89-18.06,6.71-38.65,11.01-61.95,17.83-1.97.58-3.57,1.25-4.85,2Z"/><path class="cls-3" d="m758.79,336.52c8.38-6.22,15.85-13.25,22.48-21.05,21.36-8.45,39.07-20.82,53.43-45.76,17.1-29.71,11.95-63.02-3.6-94.33,21.57,35.38,35.76,81.83,5.13,127.41-3.28,4.88-6.82,9.51-10.63,13.89-18.06,6.71-38.65,11.01-61.95,17.83-1.97.58-3.57,1.25-4.85,2Z"/><path class="cls-1" d="m758.79,336.52c8.38-6.22,15.85-13.25,22.48-21.05,21.36-8.45,39.07-20.82,53.43-45.76,17.1-29.71,11.95-63.02-3.6-94.33,21.57,35.38,35.76,81.83,5.13,127.41-3.28,4.88-6.82,9.51-10.63,13.89-18.06,6.71-38.65,11.01-61.95,17.83-1.97.58-3.57,1.25-4.85,2Z"/><path class="cls-2" d="m818.01,324.71c-11.23,3.05-23.26,6.05-36.11,9.81-7.23,2.12-9.58,5.53-9.01,9.21h-18.26c-.32-2.05.28-4.01,2.11-5.72.69-.49,1.37-.99,2.05-1.49,1.29-.75,2.88-1.42,4.85-2,23.3-6.82,43.89-11.12,61.95-17.83-2.41,2.78-4.94,5.45-7.58,8.02Z"/><path class="cls-3" d="m818.01,324.71c-11.23,3.05-23.26,6.05-36.11,9.81-7.23,2.12-9.58,5.53-9.01,9.21h-18.26c-.32-2.05.28-4.01,2.11-5.72.69-.49,1.37-.99,2.05-1.49,1.29-.75,2.88-1.42,4.85-2,23.3-6.82,43.89-11.12,61.95-17.83-2.41,2.78-4.94,5.45-7.58,8.02Z"/><path class="cls-1" d="m818.01,324.71c-11.23,3.05-23.26,6.05-36.11,9.81-7.23,2.12-9.58,5.53-9.01,9.21h-18.26c-.32-2.05.28-4.01,2.11-5.72.69-.49,1.37-.99,2.05-1.49,1.29-.75,2.88-1.42,4.85-2,23.3-6.82,43.89-11.12,61.95-17.83-2.41,2.78-4.94,5.45-7.58,8.02Z"/><path class="cls-1" d="m818.01,324.71c-11.23,3.05-23.26,6.05-36.11,9.81-7.23,2.12-9.58,5.53-9.01,9.21h-18.26c-.32-2.05.28-4.01,2.11-5.72.69-.49,1.37-.99,2.05-1.49,1.29-.75,2.88-1.42,4.85-2,23.3-6.82,43.89-11.12,61.95-17.83-2.41,2.78-4.94,5.45-7.58,8.02Z"/><path class="cls-2" d="m686.49,67.39c7.01,6.79,35.7,33.23,55.21,53.36,22.16,22.87,101.77,103.75,49.16,182.04-.21.32-.44.63-.65.95-11.62,7.88-24.62,12.97-39.06,17.36,5.37-5.65,10.24-11.75,14.65-18.31,2.53-3.76,4.74-7.52,6.68-11.29,5.81-5.99,11.2-13.13,16.18-21.79,31.67-55.02-41.44-135.74-87.03-179.95C628.66,19.01,625.44,2.39,625.38.26h7.78s3.01,16.67,53.34,67.14Z"/><path class="cls-1" d="m686.49,67.39c7.01,6.79,35.7,33.23,55.21,53.36,22.16,22.87,101.77,103.75,49.16,182.04-.21.32-.44.63-.65.95-11.62,7.88-24.62,12.97-39.06,17.36,5.37-5.65,10.24-11.75,14.65-18.31,2.53-3.76,4.74-7.52,6.68-11.29,5.81-5.99,11.2-13.13,16.18-21.79,31.67-55.02-41.44-135.74-87.03-179.95C628.66,19.01,625.44,2.39,625.38.26h7.78s3.01,16.67,53.34,67.14Z"/><path class="cls-2" d="m751.15,321.1c14.44-4.38,27.44-9.48,39.06-17.36-2.79,4.09-5.77,7.99-8.94,11.72-10.87,4.3-22.69,7.58-35.5,10.98,1.84-1.73,3.64-3.51,5.38-5.34Z"/><path class="cls-2" d="m751.15,321.1c14.44-4.38,27.44-9.48,39.06-17.36-2.79,4.09-5.77,7.99-8.94,11.72-10.87,4.3-22.69,7.58-35.5,10.98,1.84-1.73,3.64-3.51,5.38-5.34Z"/><path class="cls-1" d="m751.15,321.1c14.44-4.38,27.44-9.48,39.06-17.36-2.79,4.09-5.77,7.99-8.94,11.72-10.87,4.3-22.69,7.58-35.5,10.98,1.84-1.73,3.64-3.51,5.38-5.34Z"/><path class="cls-2" d="m758.79,336.52c-.8.47-1.48.97-2.05,1.49-2.79,1.99-5.66,3.9-8.65,5.72h-25.07c8.35-5.09,15.91-10.86,22.74-17.28,12.81-3.4,24.63-6.68,35.5-10.98-6.63,7.81-14.1,14.83-22.48,21.05Z"/><path class="cls-3" d="m758.79,336.52c-.8.47-1.48.97-2.05,1.49-2.79,1.99-5.66,3.9-8.65,5.72h-25.07c8.35-5.09,15.91-10.86,22.74-17.28,12.81-3.4,24.63-6.68,35.5-10.98-6.63,7.81-14.1,14.83-22.48,21.05Z"/><path class="cls-2" d="m758.79,336.52c-.8.47-1.48.97-2.05,1.49-2.79,1.99-5.66,3.9-8.65,5.72h-25.07c8.35-5.09,15.91-10.86,22.74-17.28,12.81-3.4,24.63-6.68,35.5-10.98-6.63,7.81-14.1,14.83-22.48,21.05Z"/><path class="cls-1" d="m758.79,336.52c-.8.47-1.48.97-2.05,1.49-2.79,1.99-5.66,3.9-8.65,5.72h-25.07c8.35-5.09,15.91-10.86,22.74-17.28,12.81-3.4,24.63-6.68,35.5-10.98-6.63,7.81-14.1,14.83-22.48,21.05Z"/><path class="cls-3" d="m693.55,341.02c-.26.88-.3,1.78-.16,2.71h-4.11c1.45-.88,2.87-1.79,4.27-2.71Z"/><path class="cls-2" d="m693.55,341.02c-.26.88-.3,1.78-.16,2.71h-4.11c1.45-.88,2.87-1.79,4.27-2.71Z"/><path class="cls-1" d="m693.55,341.02c-.26.88-.3,1.78-.16,2.71h-4.11c1.45-.88,2.87-1.79,4.27-2.71Z"/><path class="cls-3" d="m716.83,321.71c21.68-6.43,40.15-14.21,55.65-30.2-1.94,3.76-4.15,7.53-6.68,11.29-4.4,6.56-9.28,12.66-14.65,18.31-14.63,4.44-30.74,8.16-48.42,13.32,5.04-3.94,9.73-8.18,14.1-12.72Z"/><path class="cls-2" d="m716.83,321.71c21.68-6.43,40.15-14.21,55.65-30.2-1.94,3.76-4.15,7.53-6.68,11.29-4.4,6.56-9.28,12.66-14.65,18.31-14.63,4.44-30.74,8.16-48.42,13.32,5.04-3.94,9.73-8.18,14.1-12.72Z"/><path class="cls-1" d="m716.83,321.71c21.68-6.43,40.15-14.21,55.65-30.2-1.94,3.76-4.15,7.53-6.68,11.29-4.4,6.56-9.28,12.66-14.65,18.31-14.63,4.44-30.74,8.16-48.42,13.32,5.04-3.94,9.73-8.18,14.1-12.72Z"/><path class="cls-2" d="m745.77,326.45c-9.35,2.48-19.22,5.02-29.64,8.07-7.23,2.12-9.58,5.53-9.01,9.21h-13.73c-.14-.93-.1-1.83.16-2.71,3.18-2.09,6.23-4.29,9.17-6.59,17.68-5.16,33.79-8.88,48.42-13.32-1.74,1.83-3.53,3.61-5.38,5.34Z"/><path class="cls-3" d="m745.77,326.45c-9.35,2.48-19.22,5.02-29.64,8.07-7.23,2.12-9.58,5.53-9.01,9.21h-13.73c-.14-.93-.1-1.83.16-2.71,3.18-2.09,6.23-4.29,9.17-6.59,17.68-5.16,33.79-8.88,48.42-13.32-1.74,1.83-3.53,3.61-5.38,5.34Z"/><path class="cls-2" d="m745.77,326.45c-9.35,2.48-19.22,5.02-29.64,8.07-7.23,2.12-9.58,5.53-9.01,9.21h-13.73c-.14-.93-.1-1.83.16-2.71,3.18-2.09,6.23-4.29,9.17-6.59,17.68-5.16,33.79-8.88,48.42-13.32-1.74,1.83-3.53,3.61-5.38,5.34Z"/><path class="cls-1" d="m745.77,326.45c-9.35,2.48-19.22,5.02-29.64,8.07-7.23,2.12-9.58,5.53-9.01,9.21h-13.73c-.14-.93-.1-1.83.16-2.71,3.18-2.09,6.23-4.29,9.17-6.59,17.68-5.16,33.79-8.88,48.42-13.32-1.74,1.83-3.53,3.61-5.38,5.34Z"/><path class="cls-2" d="m716.13,334.52c10.42-3.05,20.29-5.59,29.64-8.07-6.83,6.42-14.39,12.19-22.74,17.28h-15.91c-.57-3.68,1.78-7.09,9.01-9.21Z"/><path class="cls-3" d="m716.13,334.52c10.42-3.05,20.29-5.59,29.64-8.07-6.83,6.42-14.39,12.19-22.74,17.28h-15.91c-.57-3.68,1.78-7.09,9.01-9.21Z"/><path class="cls-3" d="m716.13,334.52c10.42-3.05,20.29-5.59,29.64-8.07-6.83,6.42-14.39,12.19-22.74,17.28h-15.91c-.57-3.68,1.78-7.09,9.01-9.21Z"/><path class="cls-2" d="m716.13,334.52c10.42-3.05,20.29-5.59,29.64-8.07-6.83,6.42-14.39,12.19-22.74,17.28h-15.91c-.57-3.68,1.78-7.09,9.01-9.21Z"/><path class="cls-1" d="m716.13,334.52c10.42-3.05,20.29-5.59,29.64-8.07-6.83,6.42-14.39,12.19-22.74,17.28h-15.91c-.57-3.68,1.78-7.09,9.01-9.21Z"/><path class="cls-2" d="m756.74,338.01c.56-.52,1.24-1.02,2.05-1.49-.68.5-1.36,1-2.05,1.49Z"/><path class="cls-3" d="m756.74,338.01c.56-.52,1.24-1.02,2.05-1.49-.68.5-1.36,1-2.05,1.49Z"/><path class="cls-1" d="m756.74,338.01c.56-.52,1.24-1.02,2.05-1.49-.68.5-1.36,1-2.05,1.49Z"/><path class="cls-2" d="m756.74,338.01c.56-.52,1.24-1.02,2.05-1.49-.68.5-1.36,1-2.05,1.49Z"/><path class="cls-1" d="m756.74,338.01c.56-.52,1.24-1.02,2.05-1.49-.68.5-1.36,1-2.05,1.49Z"/><path class="cls-2" d="m796.09,342.09c-.87.55-1.74,1.1-2.63,1.64h-20.57c-.57-3.68,1.78-7.09,9.01-9.21,12.85-3.76,24.88-6.76,36.11-9.81-3.25,3.17-6.67,6.2-10.27,9.06-.86.25-1.73.5-2.59.75-6.14,1.8-8.76,4.53-9.06,7.57Z"/><path class="cls-3" d="m796.09,342.09c-.87.55-1.74,1.1-2.63,1.64h-20.57c-.57-3.68,1.78-7.09,9.01-9.21,12.85-3.76,24.88-6.76,36.11-9.81-3.25,3.17-6.67,6.2-10.27,9.06-.86.25-1.73.5-2.59.75-6.14,1.8-8.76,4.53-9.06,7.57Z"/><path class="cls-1" d="m796.09,342.09c-.87.55-1.74,1.1-2.63,1.64h-20.57c-.57-3.68,1.78-7.09,9.01-9.21,12.85-3.76,24.88-6.76,36.11-9.81-3.25,3.17-6.67,6.2-10.27,9.06-.86.25-1.73.5-2.59.75-6.14,1.8-8.76,4.53-9.06,7.57Z"/><path class="cls-2" d="m796.09,342.09c-.87.55-1.74,1.1-2.63,1.64h-20.57c-.57-3.68,1.78-7.09,9.01-9.21,12.85-3.76,24.88-6.76,36.11-9.81-3.25,3.17-6.67,6.2-10.27,9.06-.86.25-1.73.5-2.59.75-6.14,1.8-8.76,4.53-9.06,7.57Z"/><path class="cls-1" d="m796.09,342.09c-.87.55-1.74,1.1-2.63,1.64h-20.57c-.57-3.68,1.78-7.09,9.01-9.21,12.85-3.76,24.88-6.76,36.11-9.81-3.25,3.17-6.67,6.2-10.27,9.06-.86.25-1.73.5-2.59.75-6.14,1.8-8.76,4.53-9.06,7.57Z"/><path class="cls-2" d="m805.14,334.52c.87-.25,1.73-.5,2.59-.75-3.7,2.94-7.58,5.71-11.65,8.32.3-3.04,2.91-5.77,9.06-7.57Z"/><path class="cls-3" d="m805.14,334.52c.87-.25,1.73-.5,2.59-.75-3.7,2.94-7.58,5.71-11.65,8.32.3-3.04,2.91-5.77,9.06-7.57Z"/><path class="cls-3" d="m805.14,334.52c.87-.25,1.73-.5,2.59-.75-3.7,2.94-7.58,5.71-11.65,8.32.3-3.04,2.91-5.77,9.06-7.57Z"/><path class="cls-1" d="m805.14,334.52c.87-.25,1.73-.5,2.59-.75-3.7,2.94-7.58,5.71-11.65,8.32.3-3.04,2.91-5.77,9.06-7.57Z"/><path class="cls-2" d="m805.14,334.52c.87-.25,1.73-.5,2.59-.75-3.7,2.94-7.58,5.71-11.65,8.32.3-3.04,2.91-5.77,9.06-7.57Z"/><path class="cls-1" d="m805.14,334.52c.87-.25,1.73-.5,2.59-.75-3.7,2.94-7.58,5.71-11.65,8.32.3-3.04,2.91-5.77,9.06-7.57Z"/><path class="cls-3" d="m702.73,334.43c-.11.03-.22.06-.32.09-5.41,1.58-8.08,3.89-8.85,6.5-1.4.92-2.82,1.83-4.27,2.71h-24.71c6.26-3.82,12.07-8.01,17.47-12.58,12.41-3.38,23.99-6.25,34.78-9.45-4.37,4.54-9.06,8.78-14.1,12.72Z"/><path class="cls-2" d="m702.73,334.43c-.11.03-.22.06-.32.09-5.41,1.58-8.08,3.89-8.85,6.5-1.4.92-2.82,1.83-4.27,2.71h-24.71c6.26-3.82,12.07-8.01,17.47-12.58,12.41-3.38,23.99-6.25,34.78-9.45-4.37,4.54-9.06,8.78-14.1,12.72Z"/><path class="cls-1" d="m702.73,334.43c-.11.03-.22.06-.32.09-5.41,1.58-8.08,3.89-8.85,6.5-1.4.92-2.82,1.83-4.27,2.71h-24.71c6.26-3.82,12.07-8.01,17.47-12.58,12.41-3.38,23.99-6.25,34.78-9.45-4.37,4.54-9.06,8.78-14.1,12.72Z"/><path class="cls-1" d="m702.73,334.43c-.11.03-.22.06-.32.09-5.41,1.58-8.08,3.89-8.85,6.5-1.4.92-2.82,1.83-4.27,2.71h-24.71c6.26-3.82,12.07-8.01,17.47-12.58,12.41-3.38,23.99-6.25,34.78-9.45-4.37,4.54-9.06,8.78-14.1,12.72Z"/><path class="cls-2" d="m702.4,334.52c.11-.03.22-.06.32-.09-2.94,2.3-6,4.5-9.17,6.59.77-2.6,3.44-4.91,8.85-6.5Z"/><path class="cls-3" d="m702.4,334.52c.11-.03.22-.06.32-.09-2.94,2.3-6,4.5-9.17,6.59.77-2.6,3.44-4.91,8.85-6.5Z"/><path class="cls-2" d="m702.4,334.52c.11-.03.22-.06.32-.09-2.94,2.3-6,4.5-9.17,6.59.77-2.6,3.44-4.91,8.85-6.5Z"/><path class="cls-1" d="m702.4,334.52c.11-.03.22-.06.32-.09-2.94,2.3-6,4.5-9.17,6.59.77-2.6,3.44-4.91,8.85-6.5Z"/><path class="cls-1" d="m702.4,334.52c.11-.03.22-.06.32-.09-2.94,2.3-6,4.5-9.17,6.59.77-2.6,3.44-4.91,8.85-6.5Z"/><path class="cls-3" d="m670.09,334.52c4.07-1.19,8.05-2.3,11.96-3.37-5.4,4.57-11.21,8.76-17.47,12.58h-3.5c-.57-3.68,1.78-7.09,9.01-9.21Z"/><path class="cls-3" d="m670.09,334.52c4.07-1.19,8.05-2.3,11.96-3.37-5.4,4.57-11.21,8.76-17.47,12.58h-3.5c-.57-3.68,1.78-7.09,9.01-9.21Z"/><path class="cls-2" d="m670.09,334.52c4.07-1.19,8.05-2.3,11.96-3.37-5.4,4.57-11.21,8.76-17.47,12.58h-3.5c-.57-3.68,1.78-7.09,9.01-9.21Z"/><path class="cls-1" d="m670.09,334.52c4.07-1.19,8.05-2.3,11.96-3.37-5.4,4.57-11.21,8.76-17.47,12.58h-3.5c-.57-3.68,1.78-7.09,9.01-9.21Z"/><path class="cls-1" d="m670.09,334.52c4.07-1.19,8.05-2.3,11.96-3.37-5.4,4.57-11.21,8.76-17.47,12.58h-3.5c-.57-3.68,1.78-7.09,9.01-9.21Z"/></g><g id="Ebene_2"><path class="cls-4" d="m474.08,12.31c6.46,8.31,32.89,40.7,50.86,65.36,20.42,28.02,93.74,127.1,45.28,223.01-16.44,32.54-39.94,56.04-72.38,69.93-26.79,11.94-58.6,13.02-82.29-7.68-7.44-7.77-11.05-18.45,1.63-23.39,48.56-18.91,98.26-27.52,123.13-84.96,29.18-67.4-11.88-148.64-53.98-202.66-27.66-35.48-80.43-92.19-65.08-123.22.84-1.69,2.93-1.83,3.7-.1,5.62,12.6,2.78,21.88,49.13,83.7Z"/><path class="cls-4" d="m335.56,12.31c-6.46,8.31-32.89,40.7-50.86,65.36-20.42,28.02-93.74,127.1-45.28,223.01,16.44,32.54,39.94,56.04,72.38,69.93,26.79,11.94,58.6,13.02,82.29-7.68,7.44-7.77,11.05-18.45-1.63-23.39-48.56-18.91-98.26-27.52-123.13-84.96-29.18-67.4,11.88-148.64,53.98-202.66,27.66-35.48,80.43-92.19,65.08-123.22-.84-1.69-2.93-1.83-3.7-.1-5.62,12.6-2.78,21.88-49.13,83.7Z"/></g></svg>