<?xml version="1.0" encoding="UTF-8"?><svg xmlns="http://www.w3.org/2000/svg" viewBox="0 0 817.39 382.13"><defs><style>.cls-1{fill:#49b6e1;}.cls-1,.cls-2,.cls-3{opacity:.6;}.cls-1,.cls-2,.cls-3,.cls-4,.cls-5{stroke-width:0px;}.cls-2{fill:#69c5e1;}.cls-3{fill:#b1def2;}.cls-4{fill:#0581bc;}.cls-5{fill:#fff;}</style></defs><g id="Ebene_3"><rect class="cls-5" x=".77" y="342.91" width="816.62" height="39.23"/><path class="cls-2" d="m599.71,121.94c17.21,17.76,69.05,70.51,66.72,129.86,15.18-51.75-22.55-112.34-66.33-148.6C527.82,43.33,519.16.26,519.16.26h-28s3.01,17.86,53.34,68.33c7.01,6.79,35.7,33.23,55.21,53.36Z"/><path class="cls-2" d="m786.07,120.75c6.76,6.98,18.87,19.37,30.95,35.43v-3.27c-12.11-18.24-26.99-35.24-41.99-49.71C744.99,74.24,696.1.26,696.1.26h-18.58s3.01,16.67,53.34,67.14c7.01,6.79,35.7,33.23,55.21,53.36Z"/><path class="cls-3" d="m555.83,101.62c15.55,16.36,29.8,35.54,40.27,55.93,26.7,36,52.45,89.79,18.84,142.7,9.64-7.47,18.27-17.21,25.94-30.54,31.67-55.02-13.33-125.75-62.24-166.34C485.85,26.36,491.17.26,491.17.26h-9.12s-8.41,14.9,73.78,101.36Z"/><path class="cls-2" d="m578.65,103.37c48.91,40.59,93.91,111.32,62.24,166.34-7.67,13.33-16.31,23.07-25.94,30.54-.54.85-1.07,1.7-1.64,2.54-3.21,4.78-6.68,9.32-10.4,13.62,22.46-8.47,40.98-20.82,55.88-46.7,3.35-5.81,5.87-11.8,7.66-17.91,2.33-59.35-49.51-112.1-66.72-129.86-19.51-20.13-48.2-46.57-55.21-53.36C494.18,18.12,491.17.26,491.17.26c0,0-5.32,26.11,87.48,103.12Z"/><path class="cls-3" d="m578.65,103.37c48.91,40.59,93.91,111.32,62.24,166.34-7.67,13.33-16.31,23.07-25.94,30.54-.54.85-1.07,1.7-1.64,2.54-3.21,4.78-6.68,9.32-10.4,13.62,22.46-8.47,40.98-20.82,55.88-46.7,3.35-5.81,5.87-11.8,7.66-17.91,2.33-59.35-49.51-112.1-66.72-129.86-19.51-20.13-48.2-46.57-55.21-53.36C494.18,18.12,491.17.26,491.17.26c0,0-5.32,26.11,87.48,103.12Z"/><path class="cls-3" d="m817.01,9.62c-3.94-6.62-4.44-9.36-4.44-9.36h-23.24s1.9,10.46,27.68,39.88V9.62Z"/><path class="cls-3" d="m639.29,120.75c7.55,7.79,21.75,22.3,35.12,41.14-13.82-25.79-33.33-49.72-52.83-67.65C545.89,24.65,545.89.26,545.89.26h-14.25s2.12,16.67,52.44,67.14c7.01,6.79,35.7,33.23,55.21,53.36Z"/><path class="cls-2" d="m600.1,103.2c43.78,36.26,81.51,96.84,66.33,148.6-.67,17.07-5.81,34.69-17.56,52.18-.87,1.29-1.76,2.56-2.67,3.82,14.32-8.19,26.71-19.74,37.28-38.09,18.46-32.07,10.25-71.77-9.07-107.82-13.38-18.84-27.58-33.35-35.12-41.14-19.51-20.13-48.2-46.57-55.21-53.36C533.76,16.93,531.64.26,531.64.26h-12.48s8.66,43.07,80.94,102.95Z"/><path class="cls-3" d="m600.1,103.2c43.78,36.26,81.51,96.84,66.33,148.6-.67,17.07-5.81,34.69-17.56,52.18-.87,1.29-1.76,2.56-2.67,3.82,14.32-8.19,26.71-19.74,37.28-38.09,18.46-32.07,10.25-71.77-9.07-107.82-13.38-18.84-27.58-33.35-35.12-41.14-19.51-20.13-48.2-46.57-55.21-53.36C533.76,16.93,531.64.26,531.64.26h-12.48s8.66,43.07,80.94,102.95Z"/><path class="cls-2" d="m666.44,251.8c-1.79,6.11-4.31,12.1-7.66,17.91-14.9,25.88-33.41,38.23-55.88,46.7-3.18,3.68-6.56,7.18-10.13,10.51,20.18-5.34,37.94-10.26,53.44-19.11.91-1.26,1.8-2.53,2.67-3.82,11.75-17.49,16.89-35.11,17.56-52.18Z"/><path class="cls-3" d="m666.44,251.8c-1.79,6.11-4.31,12.1-7.66,17.91-14.9,25.88-33.41,38.23-55.88,46.7-3.18,3.68-6.56,7.18-10.13,10.51,20.18-5.34,37.94-10.26,53.44-19.11.91-1.26,1.8-2.53,2.67-3.82,11.75-17.49,16.89-35.11,17.56-52.18Z"/><path class="cls-3" d="m666.44,251.8c-1.79,6.11-4.31,12.1-7.66,17.91-14.9,25.88-33.41,38.23-55.88,46.7-3.18,3.68-6.56,7.18-10.13,10.51,20.18-5.34,37.94-10.26,53.44-19.11.91-1.26,1.8-2.53,2.67-3.82,11.75-17.49,16.89-35.11,17.56-52.18Z"/><path class="cls-3" d="m817.01,119.35v-6.71c-6.72-7.02-13.32-13.57-19.48-19.52C767.5,64.15,724,.26,724,.26h-14.17s3.01,16.67,53.34,67.14c6.85,6.63,34.39,32.02,53.84,51.96Z"/><path class="cls-2" d="m775.02,103.2c15.01,14.48,29.88,31.48,41.99,49.71v-33.57c-19.46-19.94-47-45.33-53.84-51.96C712.85,16.93,709.83.26,709.83.26h-13.73s48.89,73.98,78.92,102.95Z"/><path class="cls-3" d="m775.02,103.2c15.01,14.48,29.88,31.48,41.99,49.71v-33.57c-19.46-19.94-47-45.33-53.84-51.96C712.85,16.93,709.83.26,709.83.26h-13.73s48.89,73.98,78.92,102.95Z"/><path class="cls-3" d="m681.89,120.75c17.85,18.42,72.95,74.48,66.23,136.5,19.4-52.64-20.83-114.66-64.51-154.05C598.61,26.55,604.7.26,604.7.26h-31.35s3.01,16.67,53.34,67.14c7.01,6.79,35.7,33.23,55.21,53.36Z"/><path class="cls-1" d="m482.74,335.71c52.72-15.43,91.57-17.92,118.56-64.81,31.67-55.02-12.96-122.41-58.67-166.51-7.74-7.47,6.48.85,21.51,16.36-15.03-15.51-35.51-34.77-47.33-45.89C490.65,41.67,463.71.26,463.71.26h-15.52s46.78,65.01,76.81,93.98c45.71,44.1,72.4,120.46,40.73,175.48-26.99,46.89-65.84,49.37-118.56,64.81-7.23,2.12-9.58,5.53-9.01,9.21h35.49c.08-3.22,2.65-6.13,9.09-8.02Z"/><path class="cls-3" d="m564.14,120.75c6.95,7.18,19.56,20.07,31.96,36.79-10.48-20.39-24.72-39.57-40.27-55.93C473.64,15.15,482.05.26,482.05.26h-18.34s26.93,41.41,53.1,74.6c11.82,11.12,32.29,30.38,47.33,45.89Z"/><path class="cls-1" d="m564.14,120.75c6.95,7.18,19.56,20.07,31.96,36.79-10.48-20.39-24.72-39.57-40.27-55.93C473.64,15.15,482.05.26,482.05.26h-18.34s26.93,41.41,53.1,74.6c11.82,11.12,32.29,30.38,47.33,45.89Z"/><path class="cls-3" d="m522.32,334.52c37.73-11.05,68.36-15.46,92.62-34.27,33.61-52.91,7.86-106.7-18.84-142.7,18.99,36.95,25.61,77.9,5.2,113.36-26.99,46.89-65.84,49.37-118.56,64.81-6.45,1.89-9.01,4.8-9.09,8.02h39.66c-.57-3.68,1.78-7.09,9.01-9.21Z"/><path class="cls-1" d="m542.63,104.39c45.71,44.1,90.35,111.49,58.67,166.51,20.41-35.45,13.79-76.4-5.2-113.36-12.4-16.73-25.01-29.62-31.96-36.79-15.03-15.51-29.25-23.83-21.51-16.36Z"/><path class="cls-3" d="m542.63,104.39c45.71,44.1,90.35,111.49,58.67,166.51,20.41-35.45,13.79-76.4-5.2-113.36-12.4-16.73-25.01-29.62-31.96-36.79-15.03-15.51-29.25-23.83-21.51-16.36Z"/><path class="cls-2" d="m540.21,334.52c23.62-6.91,44.45-11.23,62.69-18.11,3.72-4.3,7.19-8.84,10.4-13.62.57-.85,1.1-1.7,1.64-2.54-24.26,18.81-54.89,23.22-92.62,34.27-7.23,2.12-9.58,5.53-9.01,9.21h17.89c-.57-3.68,1.78-7.09,9.01-9.21Z"/><path class="cls-3" d="m540.21,334.52c23.62-6.91,44.45-11.23,62.69-18.11,3.72-4.3,7.19-8.84,10.4-13.62.57-.85,1.1-1.7,1.64-2.54-24.26,18.81-54.89,23.22-92.62,34.27-7.23,2.12-9.58,5.53-9.01,9.21h17.89c-.57-3.68,1.78-7.09,9.01-9.21Z"/><path class="cls-1" d="m540.21,334.52c23.62-6.91,44.45-11.23,62.69-18.11,3.72-4.3,7.19-8.84,10.4-13.62.57-.85,1.1-1.7,1.64-2.54-24.26,18.81-54.89,23.22-92.62,34.27-7.23,2.12-9.58,5.53-9.01,9.21h17.89c-.57-3.68,1.78-7.09,9.01-9.21Z"/><path class="cls-2" d="m564.92,334.52c9.75-2.86,19.03-5.27,27.85-7.6,3.57-3.32,6.95-6.83,10.13-10.51-18.23,6.87-39.07,11.19-62.69,18.11-7.23,2.12-9.58,5.53-9.01,9.21h24.71c-.57-3.68,1.78-7.09,9.01-9.21Z"/><path class="cls-3" d="m564.92,334.52c9.75-2.86,19.03-5.27,27.85-7.6,3.57-3.32,6.95-6.83,10.13-10.51-18.23,6.87-39.07,11.19-62.69,18.11-7.23,2.12-9.58,5.53-9.01,9.21h24.71c-.57-3.68,1.78-7.09,9.01-9.21Z"/><path class="cls-3" d="m564.92,334.52c9.75-2.86,19.03-5.27,27.85-7.6,3.57-3.32,6.95-6.83,10.13-10.51-18.23,6.87-39.07,11.19-62.69,18.11-7.23,2.12-9.58,5.53-9.01,9.21h24.71c-.57-3.68,1.78-7.09,9.01-9.21Z"/><path class="cls-1" d="m564.92,334.52c9.75-2.86,19.03-5.27,27.85-7.6,3.57-3.32,6.95-6.83,10.13-10.51-18.23,6.87-39.07,11.19-62.69,18.11-7.23,2.12-9.58,5.53-9.01,9.21h24.71c-.57-3.68,1.78-7.09,9.01-9.21Z"/><path class="cls-1" d="m817.01,76.41C790.23,43.16,761.88.26,761.88.26h-20.03s28.3,52.86,75.17,104.58v-28.42Z"/><path class="cls-3" d="m797.53,93.12c6.16,5.94,12.76,12.5,19.48,19.52v-7.8C770.15,53.11,741.85.26,741.85.26h-17.85s43.5,63.89,73.53,92.86Z"/><path class="cls-1" d="m797.53,93.12c6.16,5.94,12.76,12.5,19.48,19.52v-7.8C770.15,53.11,741.85.26,741.85.26h-17.85s43.5,63.89,73.53,92.86Z"/><path class="cls-2" d="m715.64,120.75c21.1,21.77,94.25,96.12,55.84,170.75,5.81-5.99,11.2-13.13,16.18-21.79,31.67-55.02-41.44-135.74-87.03-179.95C627.66,19.01,624.44,2.39,624.38.26h-17.29s3.01,16.67,53.34,67.14c7.01,6.79,35.7,33.23,55.21,53.36Z"/><path class="cls-3" d="m683.62,103.2c43.68,39.39,83.91,101.4,64.51,154.05-1.62,14.98-6.84,30.31-17.07,45.55-4.56,6.79-9.63,13.09-15.23,18.91,21.68-6.43,40.15-14.21,55.65-30.2,38.41-74.64-34.74-148.98-55.84-170.75-19.51-20.13-48.2-46.57-55.21-53.36C610.1,16.93,607.09.26,607.09.26h-2.39s-6.09,26.29,78.92,102.95Z"/><path class="cls-2" d="m683.62,103.2c43.68,39.39,83.91,101.4,64.51,154.05-1.62,14.98-6.84,30.31-17.07,45.55-4.56,6.79-9.63,13.09-15.23,18.91,21.68-6.43,40.15-14.21,55.65-30.2,38.41-74.64-34.74-148.98-55.84-170.75-19.51-20.13-48.2-46.57-55.21-53.36C610.1,16.93,607.09.26,607.09.26h-2.39s-6.09,26.29,78.92,102.95Z"/><path class="cls-2" d="m817.01,53.68c-30.27-36.77-31.89-53.43-31.89-53.43h-14.05s2.72,15,45.94,59.62v-6.19Z"/><path class="cls-3" d="m817.01,40.14c-25.78-29.42-27.68-39.88-27.68-39.88h-4.21s1.62,16.65,31.89,53.43v-13.54Z"/><path class="cls-2" d="m817.01,40.14c-25.78-29.42-27.68-39.88-27.68-39.88h-4.21s1.62,16.65,31.89,53.43v-13.54Z"/><path class="cls-1" d="m817.01,59.87C773.79,15.26,771.07.26,771.07.26h-9.19s28.35,42.9,55.14,76.16v-16.54Z"/><path class="cls-2" d="m817.01,59.87C773.79,15.26,771.07.26,771.07.26h-9.19s28.35,42.9,55.14,76.16v-16.54Z"/><path class="cls-2" d="m806.74,333.77c3.49-1,6.91-1.94,10.27-2.86v-6.2c-3.25,3.17-6.67,6.2-10.27,9.06Z"/><path class="cls-3" d="m806.74,333.77c3.49-1,6.91-1.94,10.27-2.86v-6.2c-3.25,3.17-6.67,6.2-10.27,9.06Z"/><path class="cls-1" d="m806.74,333.77c3.49-1,6.91-1.94,10.27-2.86v-6.2c-3.25,3.17-6.67,6.2-10.27,9.06Z"/><path class="cls-2" d="m806.74,333.77c3.49-1,6.91-1.94,10.27-2.86v-6.2c-3.25,3.17-6.67,6.2-10.27,9.06Z"/><path class="cls-2" d="m795.09,342.09c-.87.55-1.74,1.1-2.63,1.64h2.68c-.09-.55-.1-1.1-.05-1.64Z"/><path class="cls-3" d="m795.09,342.09c-.87.55-1.74,1.1-2.63,1.64h2.68c-.09-.55-.1-1.1-.05-1.64Z"/><path class="cls-1" d="m795.09,342.09c-.87.55-1.74,1.1-2.63,1.64h2.68c-.09-.55-.1-1.1-.05-1.64Z"/><path class="cls-2" d="m795.09,342.09c-.87.55-1.74,1.1-2.63,1.64h2.68c-.09-.55-.1-1.1-.05-1.64Z"/><path class="cls-2" d="m806.74,333.77c-3.7,2.94-7.58,5.71-11.65,8.32-.05.54-.04,1.09.05,1.64h21.88v-12.82c-3.37.91-6.78,1.85-10.27,2.86Z"/><path class="cls-3" d="m806.74,333.77c-3.7,2.94-7.58,5.71-11.65,8.32-.05.54-.04,1.09.05,1.64h21.88v-12.82c-3.37.91-6.78,1.85-10.27,2.86Z"/><path class="cls-3" d="m806.74,333.77c-3.7,2.94-7.58,5.71-11.65,8.32-.05.54-.04,1.09.05,1.64h21.88v-12.82c-3.37.91-6.78,1.85-10.27,2.86Z"/><path class="cls-1" d="m806.74,333.77c-3.7,2.94-7.58,5.71-11.65,8.32-.05.54-.04,1.09.05,1.64h21.88v-12.82c-3.37.91-6.78,1.85-10.27,2.86Z"/><path class="cls-2" d="m806.74,333.77c-3.7,2.94-7.58,5.71-11.65,8.32-.05.54-.04,1.09.05,1.64h21.88v-12.82c-3.37.91-6.78,1.85-10.27,2.86Z"/><path class="cls-1" d="m657.19,120.75c17.74,18.3,72.25,73.76,66.36,135.31,19.21-53.33-16.45-120.21-64.99-152.86C596.15,61.23,565.12.26,565.12.26h-16.48s3.01,16.67,53.34,67.14c7.01,6.79,35.7,33.23,55.21,53.36Z"/><path class="cls-3" d="m621.58,94.24c19.51,17.93,39.01,41.86,52.83,67.65,25.78,36.31,48.48,88.71,14.57,140.08,10.57-7.68,19.96-17.88,28.24-32.26,2.55-4.43,4.64-8.99,6.32-13.65,5.89-61.55-48.62-117.01-66.36-135.31-19.51-20.13-48.2-46.57-55.21-53.36C551.66,16.93,548.64.26,548.64.26h-2.75s0,24.4,75.69,93.98Z"/><path class="cls-1" d="m621.58,94.24c19.51,17.93,39.01,41.86,52.83,67.65,25.78,36.31,48.48,88.71,14.57,140.08,10.57-7.68,19.96-17.88,28.24-32.26,2.55-4.43,4.64-8.99,6.32-13.65,5.89-61.55-48.62-117.01-66.36-135.31-19.51-20.13-48.2-46.57-55.21-53.36C551.66,16.93,548.64.26,548.64.26h-2.75s0,24.4,75.69,93.98Z"/><path class="cls-2" d="m674.42,161.89c19.32,36.05,27.53,75.75,9.07,107.82-10.57,18.36-22.95,29.91-37.28,38.09-4.65,6.46-9.78,12.45-15.43,17.98,22.4-5.99,41.73-11.84,58.21-23.81,33.91-51.38,11.21-103.77-14.57-140.08Z"/><path class="cls-3" d="m674.42,161.89c19.32,36.05,27.53,75.75,9.07,107.82-10.57,18.36-22.95,29.91-37.28,38.09-4.65,6.46-9.78,12.45-15.43,17.98,22.4-5.99,41.73-11.84,58.21-23.81,33.91-51.38,11.21-103.77-14.57-140.08Z"/><path class="cls-1" d="m674.42,161.89c19.32,36.05,27.53,75.75,9.07,107.82-10.57,18.36-22.95,29.91-37.28,38.09-4.65,6.46-9.78,12.45-15.43,17.98,22.4-5.99,41.73-11.84,58.21-23.81,33.91-51.38,11.21-103.77-14.57-140.08Z"/><path class="cls-2" d="m598.66,334.52c11.34-3.32,22.04-6.04,32.12-8.73,5.65-5.53,10.78-11.52,15.43-17.98-15.49,8.86-33.26,13.78-53.44,19.11-6.7,6.23-14.09,11.84-22.24,16.81h19.12c-.57-3.68,1.78-7.09,9.01-9.21Z"/><path class="cls-3" d="m598.66,334.52c11.34-3.32,22.04-6.04,32.12-8.73,5.65-5.53,10.78-11.52,15.43-17.98-15.49,8.86-33.26,13.78-53.44,19.11-6.7,6.23-14.09,11.84-22.24,16.81h19.12c-.57-3.68,1.78-7.09,9.01-9.21Z"/><path class="cls-3" d="m598.66,334.52c11.34-3.32,22.04-6.04,32.12-8.73,5.65-5.53,10.78-11.52,15.43-17.98-15.49,8.86-33.26,13.78-53.44,19.11-6.7,6.23-14.09,11.84-22.24,16.81h19.12c-.57-3.68,1.78-7.09,9.01-9.21Z"/><path class="cls-1" d="m598.66,334.52c11.34-3.32,22.04-6.04,32.12-8.73,5.65-5.53,10.78-11.52,15.43-17.98-15.49,8.86-33.26,13.78-53.44,19.11-6.7,6.23-14.09,11.84-22.24,16.81h19.12c-.57-3.68,1.78-7.09,9.01-9.21Z"/><path class="cls-3" d="m658.55,103.2c48.54,32.65,84.2,99.53,64.99,152.86-1.47,15.36-6.69,31.1-17.2,46.73-1.62,2.41-3.3,4.75-5.04,7.03,15.9-8.29,29.51-20.19,40.98-40.11,2.35-4.08,4.28-8.24,5.84-12.46,6.72-62.02-48.38-118.08-66.23-136.5-19.51-20.13-48.2-46.57-55.21-53.36C576.36,16.93,573.35.26,573.35.26h-8.23s31.03,60.97,93.43,102.95Z"/><path class="cls-1" d="m658.55,103.2c48.54,32.65,84.2,99.53,64.99,152.86-1.47,15.36-6.69,31.1-17.2,46.73-1.62,2.41-3.3,4.75-5.04,7.03,15.9-8.29,29.51-20.19,40.98-40.11,2.35-4.08,4.28-8.24,5.84-12.46,6.72-62.02-48.38-118.08-66.23-136.5-19.51-20.13-48.2-46.57-55.21-53.36C576.36,16.93,573.35.26,573.35.26h-8.23s31.03,60.97,93.43,102.95Z"/><path class="cls-3" d="m723.55,256.06c-1.68,4.66-3.77,9.23-6.32,13.65-8.28,14.38-17.67,24.58-28.24,32.26-.18.27-.35.55-.53.82-4.26,6.33-8.95,12.24-14.11,17.73,9.63-2.99,18.61-6.35,26.96-10.7,1.74-2.28,3.42-4.63,5.04-7.03,10.51-15.64,15.73-31.37,17.2-46.73Z"/><path class="cls-3" d="m723.55,256.06c-1.68,4.66-3.77,9.23-6.32,13.65-8.28,14.38-17.67,24.58-28.24,32.26-.18.27-.35.55-.53.82-4.26,6.33-8.95,12.24-14.11,17.73,9.63-2.99,18.61-6.35,26.96-10.7,1.74-2.28,3.42-4.63,5.04-7.03,10.51-15.64,15.73-31.37,17.2-46.73Z"/><path class="cls-1" d="m723.55,256.06c-1.68,4.66-3.77,9.23-6.32,13.65-8.28,14.38-17.67,24.58-28.24,32.26-.18.27-.35.55-.53.82-4.26,6.33-8.95,12.24-14.11,17.73,9.63-2.99,18.61-6.35,26.96-10.7,1.74-2.28,3.42-4.63,5.04-7.03,10.51-15.64,15.73-31.37,17.2-46.73Z"/><path class="cls-2" d="m623.72,334.52c18.56-5.43,35.41-9.27,50.62-13.99,5.15-5.49,9.85-11.4,14.11-17.73.18-.27.35-.55.53-.82-16.48,11.98-35.81,17.83-58.21,23.81-6.82,6.67-14.38,12.65-22.76,17.94h6.7c-.57-3.68,1.78-7.09,9.01-9.21Z"/><path class="cls-3" d="m623.72,334.52c18.56-5.43,35.41-9.27,50.62-13.99,5.15-5.49,9.85-11.4,14.11-17.73.18-.27.35-.55.53-.82-16.48,11.98-35.81,17.83-58.21,23.81-6.82,6.67-14.38,12.65-22.76,17.94h6.7c-.57-3.68,1.78-7.09,9.01-9.21Z"/><path class="cls-3" d="m623.72,334.52c18.56-5.43,35.41-9.27,50.62-13.99,5.15-5.49,9.85-11.4,14.11-17.73.18-.27.35-.55.53-.82-16.48,11.98-35.81,17.83-58.21,23.81-6.82,6.67-14.38,12.65-22.76,17.94h6.7c-.57-3.68,1.78-7.09,9.01-9.21Z"/><path class="cls-1" d="m623.72,334.52c18.56-5.43,35.41-9.27,50.62-13.99,5.15-5.49,9.85-11.4,14.11-17.73.18-.27.35-.55.53-.82-16.48,11.98-35.81,17.83-58.21,23.81-6.82,6.67-14.38,12.65-22.76,17.94h6.7c-.57-3.68,1.78-7.09,9.01-9.21Z"/><path class="cls-2" d="m598.66,334.52c-7.23,2.12-9.58,5.53-9.01,9.21h18.37c8.38-5.29,15.94-11.27,22.76-17.94-10.08,2.69-20.78,5.41-32.12,8.73Z"/><path class="cls-3" d="m598.66,334.52c-7.23,2.12-9.58,5.53-9.01,9.21h18.37c8.38-5.29,15.94-11.27,22.76-17.94-10.08,2.69-20.78,5.41-32.12,8.73Z"/><path class="cls-3" d="m598.66,334.52c-7.23,2.12-9.58,5.53-9.01,9.21h18.37c8.38-5.29,15.94-11.27,22.76-17.94-10.08,2.69-20.78,5.41-32.12,8.73Z"/><path class="cls-3" d="m598.66,334.52c-7.23,2.12-9.58,5.53-9.01,9.21h18.37c8.38-5.29,15.94-11.27,22.76-17.94-10.08,2.69-20.78,5.41-32.12,8.73Z"/><path class="cls-1" d="m598.66,334.52c-7.23,2.12-9.58,5.53-9.01,9.21h18.37c8.38-5.29,15.94-11.27,22.76-17.94-10.08,2.69-20.78,5.41-32.12,8.73Z"/><path class="cls-2" d="m564.92,334.52c-7.23,2.12-9.58,5.53-9.01,9.21h14.62c8.14-4.97,15.54-10.57,22.24-16.81-8.82,2.33-18.09,4.74-27.85,7.6Z"/><path class="cls-3" d="m564.92,334.52c-7.23,2.12-9.58,5.53-9.01,9.21h14.62c8.14-4.97,15.54-10.57,22.24-16.81-8.82,2.33-18.09,4.74-27.85,7.6Z"/><path class="cls-3" d="m564.92,334.52c-7.23,2.12-9.58,5.53-9.01,9.21h14.62c8.14-4.97,15.54-10.57,22.24-16.81-8.82,2.33-18.09,4.74-27.85,7.6Z"/><path class="cls-1" d="m564.92,334.52c-7.23,2.12-9.58,5.53-9.01,9.21h14.62c8.14-4.97,15.54-10.57,22.24-16.81-8.82,2.33-18.09,4.74-27.85,7.6Z"/><path class="cls-1" d="m564.92,334.52c-7.23,2.12-9.58,5.53-9.01,9.21h14.62c8.14-4.97,15.54-10.57,22.24-16.81-8.82,2.33-18.09,4.74-27.85,7.6Z"/><path class="cls-3" d="m748.12,257.25c-1.56,4.22-3.48,8.38-5.84,12.46-11.47,19.92-25.08,31.83-40.98,40.11-5.98,7.83-12.71,14.94-20.25,21.32,12.41-3.38,23.99-6.25,34.78-9.45,5.6-5.82,10.66-12.12,15.23-18.91,10.24-15.23,15.45-30.56,17.07-45.55Z"/><path class="cls-2" d="m748.12,257.25c-1.56,4.22-3.48,8.38-5.84,12.46-11.47,19.92-25.08,31.83-40.98,40.11-5.98,7.83-12.71,14.94-20.25,21.32,12.41-3.38,23.99-6.25,34.78-9.45,5.6-5.82,10.66-12.12,15.23-18.91,10.24-15.23,15.45-30.56,17.07-45.55Z"/><path class="cls-1" d="m748.12,257.25c-1.56,4.22-3.48,8.38-5.84,12.46-11.47,19.92-25.08,31.83-40.98,40.11-5.98,7.83-12.71,14.94-20.25,21.32,12.41-3.38,23.99-6.25,34.78-9.45,5.6-5.82,10.66-12.12,15.23-18.91,10.24-15.23,15.45-30.56,17.07-45.55Z"/><path class="cls-3" d="m669.09,334.52c4.07-1.19,8.05-2.3,11.96-3.37,7.55-6.38,14.28-13.5,20.25-21.32-8.35,4.35-17.33,7.71-26.96,10.7-8.31,8.85-17.82,16.59-28.66,23.2h14.4c-.57-3.68,1.78-7.09,9.01-9.21Z"/><path class="cls-3" d="m669.09,334.52c4.07-1.19,8.05-2.3,11.96-3.37,7.55-6.38,14.28-13.5,20.25-21.32-8.35,4.35-17.33,7.71-26.96,10.7-8.31,8.85-17.82,16.59-28.66,23.2h14.4c-.57-3.68,1.78-7.09,9.01-9.21Z"/><path class="cls-2" d="m669.09,334.52c4.07-1.19,8.05-2.3,11.96-3.37,7.55-6.38,14.28-13.5,20.25-21.32-8.35,4.35-17.33,7.71-26.96,10.7-8.31,8.85-17.82,16.59-28.66,23.2h14.4c-.57-3.68,1.78-7.09,9.01-9.21Z"/><path class="cls-1" d="m669.09,334.52c4.07-1.19,8.05-2.3,11.96-3.37,7.55-6.38,14.28-13.5,20.25-21.32-8.35,4.35-17.33,7.71-26.96,10.7-8.31,8.85-17.82,16.59-28.66,23.2h14.4c-.57-3.68,1.78-7.09,9.01-9.21Z"/><path class="cls-2" d="m674.34,320.53c-15.21,4.73-32.05,8.56-50.62,13.99-7.23,2.12-9.58,5.53-9.01,9.21h30.97c10.84-6.61,20.35-14.35,28.66-23.2Z"/><path class="cls-3" d="m674.34,320.53c-15.21,4.73-32.05,8.56-50.62,13.99-7.23,2.12-9.58,5.53-9.01,9.21h30.97c10.84-6.61,20.35-14.35,28.66-23.2Z"/><path class="cls-3" d="m674.34,320.53c-15.21,4.73-32.05,8.56-50.62,13.99-7.23,2.12-9.58,5.53-9.01,9.21h30.97c10.84-6.61,20.35-14.35,28.66-23.2Z"/><path class="cls-2" d="m674.34,320.53c-15.21,4.73-32.05,8.56-50.62,13.99-7.23,2.12-9.58,5.53-9.01,9.21h30.97c10.84-6.61,20.35-14.35,28.66-23.2Z"/><path class="cls-1" d="m674.34,320.53c-15.21,4.73-32.05,8.56-50.62,13.99-7.23,2.12-9.58,5.53-9.01,9.21h30.97c10.84-6.61,20.35-14.35,28.66-23.2Z"/><path class="cls-1" d="m685.49,67.39c7.01,6.79,35.7,33.23,55.21,53.36,22.16,22.87,101.77,103.75,49.16,182.04-.21.32-.44.63-.65.95,10.34-7.02,19.59-16.25,27.81-29.17v-105.33c-12.83-25.95-33.06-49.56-55.72-66.04C669,36.06,655.45.26,655.45.26h22.08L624.39,0s-.02.08-.01.26h7.78s3.01,16.67,53.34,67.14Z"/><path class="cls-2" d="m761.29,103.2c22.66,16.48,42.89,40.09,55.72,66.04v-13.06c-12.07-16.06-24.18-28.45-30.95-35.43-19.51-20.13-48.2-46.57-55.21-53.36C680.53,16.93,677.52.26,677.52.26h-22.08s13.55,35.8,105.85,102.95Z"/><path class="cls-1" d="m761.29,103.2c22.66,16.48,42.89,40.09,55.72,66.04v-13.06c-12.07-16.06-24.18-28.45-30.95-35.43-19.51-20.13-48.2-46.57-55.21-53.36C680.53,16.93,677.52.26,677.52.26h-22.08s13.55,35.8,105.85,102.95Z"/><path class="cls-2" d="m817.01,292.01v-17.43c-8.22,12.91-17.47,22.15-27.81,29.17-2.79,4.09-5.77,7.99-8.94,11.72,13.73-5.43,25.95-12.49,36.75-23.46Z"/><path class="cls-1" d="m817.01,292.01v-17.43c-8.22,12.91-17.47,22.15-27.81,29.17-2.79,4.09-5.77,7.99-8.94,11.72,13.73-5.43,25.95-12.49,36.75-23.46Z"/><path class="cls-2" d="m755.74,338.01c-2.79,1.99-5.66,3.9-8.65,5.72h6.54c-.32-2.05.28-4.01,2.11-5.72Z"/><path class="cls-3" d="m755.74,338.01c-2.79,1.99-5.66,3.9-8.65,5.72h6.54c-.32-2.05.28-4.01,2.11-5.72Z"/><path class="cls-1" d="m755.74,338.01c-2.79,1.99-5.66,3.9-8.65,5.72h6.54c-.32-2.05.28-4.01,2.11-5.72Z"/><path class="cls-2" d="m780.27,315.47c-6.63,7.81-14.1,14.83-22.48,21.05,1.29-.75,2.88-1.42,4.85-2,20.11-5.89,38.19-9.89,54.37-15.19v-27.32c-10.79,10.97-23.01,18.03-36.75,23.46Z"/><path class="cls-3" d="m780.27,315.47c-6.63,7.81-14.1,14.83-22.48,21.05,1.29-.75,2.88-1.42,4.85-2,20.11-5.89,38.19-9.89,54.37-15.19v-27.32c-10.79,10.97-23.01,18.03-36.75,23.46Z"/><path class="cls-1" d="m780.27,315.47c-6.63,7.81-14.1,14.83-22.48,21.05,1.29-.75,2.88-1.42,4.85-2,20.11-5.89,38.19-9.89,54.37-15.19v-27.32c-10.79,10.97-23.01,18.03-36.75,23.46Z"/><path class="cls-2" d="m780.9,334.52c12.85-3.76,24.88-6.76,36.11-9.81v-5.39c-16.18,5.3-34.27,9.31-54.37,15.19-1.97.58-3.57,1.25-4.85,2-.68.5-1.36,1-2.05,1.49-1.83,1.71-2.43,3.67-2.11,5.72h18.26c-.57-3.68,1.78-7.09,9.01-9.21Z"/><path class="cls-3" d="m780.9,334.52c12.85-3.76,24.88-6.76,36.11-9.81v-5.39c-16.18,5.3-34.27,9.31-54.37,15.19-1.97.58-3.57,1.25-4.85,2-.68.5-1.36,1-2.05,1.49-1.83,1.71-2.43,3.67-2.11,5.72h18.26c-.57-3.68,1.78-7.09,9.01-9.21Z"/><path class="cls-1" d="m780.9,334.52c12.85-3.76,24.88-6.76,36.11-9.81v-5.39c-16.18,5.3-34.27,9.31-54.37,15.19-1.97.58-3.57,1.25-4.85,2-.68.5-1.36,1-2.05,1.49-1.83,1.71-2.43,3.67-2.11,5.72h18.26c-.57-3.68,1.78-7.09,9.01-9.21Z"/><path class="cls-1" d="m780.9,334.52c12.85-3.76,24.88-6.76,36.11-9.81v-5.39c-16.18,5.3-34.27,9.31-54.37,15.19-1.97.58-3.57,1.25-4.85,2-.68.5-1.36,1-2.05,1.49-1.83,1.71-2.43,3.67-2.11,5.72h18.26c-.57-3.68,1.78-7.09,9.01-9.21Z"/><path class="cls-2" d="m700.62,89.76c45.6,44.21,118.71,124.94,87.03,179.95-4.99,8.66-10.38,15.8-16.18,21.79-1.94,3.76-4.15,7.53-6.68,11.29-4.4,6.56-9.28,12.66-14.65,18.31,14.44-4.38,27.44-9.48,39.06-17.36.22-.32.44-.63.65-.95,52.61-78.29-26.99-159.17-49.16-182.04-19.51-20.13-48.2-46.57-55.21-53.36C635.17,16.93,632.15.26,632.15.26h-7.78c.06,2.14,3.28,18.76,76.25,89.5Z"/><path class="cls-1" d="m700.62,89.76c45.6,44.21,118.71,124.94,87.03,179.95-4.99,8.66-10.38,15.8-16.18,21.79-1.94,3.76-4.15,7.53-6.68,11.29-4.4,6.56-9.28,12.66-14.65,18.31,14.44-4.38,27.44-9.48,39.06-17.36.22-.32.44-.63.65-.95,52.61-78.29-26.99-159.17-49.16-182.04-19.51-20.13-48.2-46.57-55.21-53.36C635.17,16.93,632.15.26,632.15.26h-7.78c.06,2.14,3.28,18.76,76.25,89.5Z"/><path class="cls-2" d="m750.15,321.1c-1.74,1.83-3.53,3.61-5.38,5.34,12.81-3.4,24.63-6.68,35.5-10.98,3.17-3.73,6.15-7.64,8.94-11.72-11.62,7.88-24.62,12.97-39.06,17.36Z"/><path class="cls-2" d="m750.15,321.1c-1.74,1.83-3.53,3.61-5.38,5.34,12.81-3.4,24.63-6.68,35.5-10.98,3.17-3.73,6.15-7.64,8.94-11.72-11.62,7.88-24.62,12.97-39.06,17.36Z"/><path class="cls-1" d="m750.15,321.1c-1.74,1.83-3.53,3.61-5.38,5.34,12.81-3.4,24.63-6.68,35.5-10.98,3.17-3.73,6.15-7.64,8.94-11.72-11.62,7.88-24.62,12.97-39.06,17.36Z"/><path class="cls-2" d="m757.79,336.52c8.38-6.22,15.85-13.25,22.48-21.05-10.87,4.3-22.69,7.58-35.5,10.98-6.83,6.42-14.39,12.19-22.74,17.28h25.07c2.98-1.82,5.86-3.73,8.65-5.72.56-.52,1.24-1.02,2.05-1.49Z"/><path class="cls-3" d="m757.79,336.52c8.38-6.22,15.85-13.25,22.48-21.05-10.87,4.3-22.69,7.58-35.5,10.98-6.83,6.42-14.39,12.19-22.74,17.28h25.07c2.98-1.82,5.86-3.73,8.65-5.72.56-.52,1.24-1.02,2.05-1.49Z"/><path class="cls-2" d="m757.79,336.52c8.38-6.22,15.85-13.25,22.48-21.05-10.87,4.3-22.69,7.58-35.5,10.98-6.83,6.42-14.39,12.19-22.74,17.28h25.07c2.98-1.82,5.86-3.73,8.65-5.72.56-.52,1.24-1.02,2.05-1.49Z"/><path class="cls-1" d="m757.79,336.52c8.38-6.22,15.85-13.25,22.48-21.05-10.87,4.3-22.69,7.58-35.5,10.98-6.83,6.42-14.39,12.19-22.74,17.28h25.07c2.98-1.82,5.86-3.73,8.65-5.72.56-.52,1.24-1.02,2.05-1.49Z"/><path class="cls-3" d="m692.55,341.02c-1.4.92-2.82,1.83-4.27,2.71h4.11c-.14-.93-.1-1.83.16-2.71Z"/><path class="cls-2" d="m692.55,341.02c-1.4.92-2.82,1.83-4.27,2.71h4.11c-.14-.93-.1-1.83.16-2.71Z"/><path class="cls-1" d="m692.55,341.02c-1.4.92-2.82,1.83-4.27,2.71h4.11c-.14-.93-.1-1.83.16-2.71Z"/><path class="cls-3" d="m771.47,291.51c-15.5,15.99-33.97,23.77-55.65,30.2-4.37,4.54-9.06,8.78-14.1,12.72,17.68-5.16,33.79-8.88,48.42-13.32,5.37-5.65,10.24-11.75,14.65-18.31,2.53-3.76,4.74-7.52,6.68-11.29Z"/><path class="cls-2" d="m771.47,291.51c-15.5,15.99-33.97,23.77-55.65,30.2-4.37,4.54-9.06,8.78-14.1,12.72,17.68-5.16,33.79-8.88,48.42-13.32,5.37-5.65,10.24-11.75,14.65-18.31,2.53-3.76,4.74-7.52,6.68-11.29Z"/><path class="cls-1" d="m771.47,291.51c-15.5,15.99-33.97,23.77-55.65,30.2-4.37,4.54-9.06,8.78-14.1,12.72,17.68-5.16,33.79-8.88,48.42-13.32,5.37-5.65,10.24-11.75,14.65-18.31,2.53-3.76,4.74-7.52,6.68-11.29Z"/><path class="cls-2" d="m715.13,334.52c10.42-3.05,20.29-5.59,29.64-8.07,1.84-1.73,3.64-3.51,5.38-5.34-14.63,4.44-30.74,8.16-48.42,13.32-2.94,2.3-6,4.5-9.17,6.59-.26.88-.3,1.78-.16,2.71h13.73c-.57-3.68,1.78-7.09,9.01-9.21Z"/><path class="cls-3" d="m715.13,334.52c10.42-3.05,20.29-5.59,29.64-8.07,1.84-1.73,3.64-3.51,5.38-5.34-14.63,4.44-30.74,8.16-48.42,13.32-2.94,2.3-6,4.5-9.17,6.59-.26.88-.3,1.78-.16,2.71h13.73c-.57-3.68,1.78-7.09,9.01-9.21Z"/><path class="cls-2" d="m715.13,334.52c10.42-3.05,20.29-5.59,29.64-8.07,1.84-1.73,3.64-3.51,5.38-5.34-14.63,4.44-30.74,8.16-48.42,13.32-2.94,2.3-6,4.5-9.17,6.59-.26.88-.3,1.78-.16,2.71h13.73c-.57-3.68,1.78-7.09,9.01-9.21Z"/><path class="cls-1" d="m715.13,334.52c10.42-3.05,20.29-5.59,29.64-8.07,1.84-1.73,3.64-3.51,5.38-5.34-14.63,4.44-30.74,8.16-48.42,13.32-2.94,2.3-6,4.5-9.17,6.59-.26.88-.3,1.78-.16,2.71h13.73c-.57-3.68,1.78-7.09,9.01-9.21Z"/><path class="cls-2" d="m715.13,334.52c-7.23,2.12-9.58,5.53-9.01,9.21h15.91c8.35-5.09,15.91-10.86,22.74-17.28-9.35,2.48-19.22,5.02-29.64,8.07Z"/><path class="cls-3" d="m715.13,334.52c-7.23,2.12-9.58,5.53-9.01,9.21h15.91c8.35-5.09,15.91-10.86,22.74-17.28-9.35,2.48-19.22,5.02-29.64,8.07Z"/><path class="cls-3" d="m715.13,334.52c-7.23,2.12-9.58,5.53-9.01,9.21h15.91c8.35-5.09,15.91-10.86,22.74-17.28-9.35,2.48-19.22,5.02-29.64,8.07Z"/><path class="cls-2" d="m715.13,334.52c-7.23,2.12-9.58,5.53-9.01,9.21h15.91c8.35-5.09,15.91-10.86,22.74-17.28-9.35,2.48-19.22,5.02-29.64,8.07Z"/><path class="cls-1" d="m715.13,334.52c-7.23,2.12-9.58,5.53-9.01,9.21h15.91c8.35-5.09,15.91-10.86,22.74-17.28-9.35,2.48-19.22,5.02-29.64,8.07Z"/><path class="cls-2" d="m757.79,336.52c-.81.47-1.48.97-2.05,1.49.69-.49,1.37-.99,2.05-1.49Z"/><path class="cls-3" d="m757.79,336.52c-.81.47-1.48.97-2.05,1.49.69-.49,1.37-.99,2.05-1.49Z"/><path class="cls-1" d="m757.79,336.52c-.81.47-1.48.97-2.05,1.49.69-.49,1.37-.99,2.05-1.49Z"/><path class="cls-2" d="m757.79,336.52c-.81.47-1.48.97-2.05,1.49.69-.49,1.37-.99,2.05-1.49Z"/><path class="cls-1" d="m757.79,336.52c-.81.47-1.48.97-2.05,1.49.69-.49,1.37-.99,2.05-1.49Z"/><path class="cls-2" d="m804.14,334.52c.87-.25,1.73-.5,2.59-.75,3.6-2.86,7.02-5.88,10.27-9.06-11.23,3.05-23.26,6.05-36.11,9.81-7.23,2.12-9.58,5.53-9.01,9.21h20.57c.88-.54,1.76-1.09,2.63-1.64.3-3.04,2.91-5.77,9.06-7.57Z"/><path class="cls-3" d="m804.14,334.52c.87-.25,1.73-.5,2.59-.75,3.6-2.86,7.02-5.88,10.27-9.06-11.23,3.05-23.26,6.05-36.11,9.81-7.23,2.12-9.58,5.53-9.01,9.21h20.57c.88-.54,1.76-1.09,2.63-1.64.3-3.04,2.91-5.77,9.06-7.57Z"/><path class="cls-1" d="m804.14,334.52c.87-.25,1.73-.5,2.59-.75,3.6-2.86,7.02-5.88,10.27-9.06-11.23,3.05-23.26,6.05-36.11,9.81-7.23,2.12-9.58,5.53-9.01,9.21h20.57c.88-.54,1.76-1.09,2.63-1.64.3-3.04,2.91-5.77,9.06-7.57Z"/><path class="cls-2" d="m804.14,334.52c.87-.25,1.73-.5,2.59-.75,3.6-2.86,7.02-5.88,10.27-9.06-11.23,3.05-23.26,6.05-36.11,9.81-7.23,2.12-9.58,5.53-9.01,9.21h20.57c.88-.54,1.76-1.09,2.63-1.64.3-3.04,2.91-5.77,9.06-7.57Z"/><path class="cls-1" d="m804.14,334.52c.87-.25,1.73-.5,2.59-.75,3.6-2.86,7.02-5.88,10.27-9.06-11.23,3.05-23.26,6.05-36.11,9.81-7.23,2.12-9.58,5.53-9.01,9.21h20.57c.88-.54,1.76-1.09,2.63-1.64.3-3.04,2.91-5.77,9.06-7.57Z"/><path class="cls-2" d="m795.09,342.09c4.08-2.61,7.96-5.38,11.65-8.32-.86.25-1.73.5-2.59.75-6.14,1.8-8.76,4.53-9.06,7.57Z"/><path class="cls-3" d="m795.09,342.09c4.08-2.61,7.96-5.38,11.65-8.32-.86.25-1.73.5-2.59.75-6.14,1.8-8.76,4.53-9.06,7.57Z"/><path class="cls-3" d="m795.09,342.09c4.08-2.61,7.96-5.38,11.65-8.32-.86.25-1.73.5-2.59.75-6.14,1.8-8.76,4.53-9.06,7.57Z"/><path class="cls-1" d="m795.09,342.09c4.08-2.61,7.96-5.38,11.65-8.32-.86.25-1.73.5-2.59.75-6.14,1.8-8.76,4.53-9.06,7.57Z"/><path class="cls-2" d="m795.09,342.09c4.08-2.61,7.96-5.38,11.65-8.32-.86.25-1.73.5-2.59.75-6.14,1.8-8.76,4.53-9.06,7.57Z"/><path class="cls-1" d="m795.09,342.09c4.08-2.61,7.96-5.38,11.65-8.32-.86.25-1.73.5-2.59.75-6.14,1.8-8.76,4.53-9.06,7.57Z"/><path class="cls-3" d="m701.4,334.52c.11-.03.22-.06.32-.09,5.04-3.94,9.73-8.18,14.1-12.72-10.79,3.2-22.37,6.07-34.78,9.45-5.4,4.57-11.21,8.76-17.47,12.58h24.71c1.45-.88,2.87-1.79,4.27-2.71.77-2.6,3.44-4.91,8.85-6.5Z"/><path class="cls-2" d="m701.4,334.52c.11-.03.22-.06.32-.09,5.04-3.94,9.73-8.18,14.1-12.72-10.79,3.2-22.37,6.07-34.78,9.45-5.4,4.57-11.21,8.76-17.47,12.58h24.71c1.45-.88,2.87-1.79,4.27-2.71.77-2.6,3.44-4.91,8.85-6.5Z"/><path class="cls-1" d="m701.4,334.52c.11-.03.22-.06.32-.09,5.04-3.94,9.73-8.18,14.1-12.72-10.79,3.2-22.37,6.07-34.78,9.45-5.4,4.57-11.21,8.76-17.47,12.58h24.71c1.45-.88,2.87-1.79,4.27-2.71.77-2.6,3.44-4.91,8.85-6.5Z"/><path class="cls-1" d="m701.4,334.52c.11-.03.22-.06.32-.09,5.04-3.94,9.73-8.18,14.1-12.72-10.79,3.2-22.37,6.07-34.78,9.45-5.4,4.57-11.21,8.76-17.47,12.58h24.71c1.45-.88,2.87-1.79,4.27-2.71.77-2.6,3.44-4.91,8.85-6.5Z"/><path class="cls-2" d="m692.55,341.02c3.18-2.09,6.23-4.29,9.17-6.59-.11.03-.22.06-.32.09-5.41,1.58-8.08,3.89-8.85,6.5Z"/><path class="cls-3" d="m692.55,341.02c3.18-2.09,6.23-4.29,9.17-6.59-.11.03-.22.06-.32.09-5.41,1.58-8.08,3.89-8.85,6.5Z"/><path class="cls-2" d="m692.55,341.02c3.18-2.09,6.23-4.29,9.17-6.59-.11.03-.22.06-.32.09-5.41,1.58-8.08,3.89-8.85,6.5Z"/><path class="cls-1" d="m692.55,341.02c3.18-2.09,6.23-4.29,9.17-6.59-.11.03-.22.06-.32.09-5.41,1.58-8.08,3.89-8.85,6.5Z"/><path class="cls-1" d="m692.55,341.02c3.18-2.09,6.23-4.29,9.17-6.59-.11.03-.22.06-.32.09-5.41,1.58-8.08,3.89-8.85,6.5Z"/><path class="cls-3" d="m669.09,334.52c-7.23,2.12-9.58,5.53-9.01,9.21h3.5c6.26-3.82,12.07-8.01,17.47-12.58-3.9,1.06-7.89,2.18-11.96,3.37Z"/><path class="cls-3" d="m669.09,334.52c-7.23,2.12-9.58,5.53-9.01,9.21h3.5c6.26-3.82,12.07-8.01,17.47-12.58-3.9,1.06-7.89,2.18-11.96,3.37Z"/><path class="cls-2" d="m669.09,334.52c-7.23,2.12-9.58,5.53-9.01,9.21h3.5c6.26-3.82,12.07-8.01,17.47-12.58-3.9,1.06-7.89,2.18-11.96,3.37Z"/><path class="cls-1" d="m669.09,334.52c-7.23,2.12-9.58,5.53-9.01,9.21h3.5c6.26-3.82,12.07-8.01,17.47-12.58-3.9,1.06-7.89,2.18-11.96,3.37Z"/><path class="cls-1" d="m669.09,334.52c-7.23,2.12-9.58,5.53-9.01,9.21h3.5c6.26-3.82,12.07-8.01,17.47-12.58-3.9,1.06-7.89,2.18-11.96,3.37Z"/></g><g id="Ebene_2"><path class="cls-2" d="m207.41,103.2c-43.78,36.26-81.51,96.84-66.33,148.6-2.33-59.35,49.51-112.1,66.72-129.86,19.51-20.13,48.2-46.57,55.21-53.36C313.33,18.12,316.34.26,316.34.26h-28s-8.66,43.07-80.94,102.95Z"/><path class="cls-2" d="m32.49,103.2C21.21,114.08,10.02,126.39,0,139.57v4.65c8.61-10.29,16.47-18.34,21.45-23.47,19.51-20.13,48.2-46.57,55.21-53.36C126.98,16.93,129.99.26,129.99.26h-18.58S62.52,74.24,32.49,103.2Z"/><path class="cls-3" d="m228.87,103.37c-48.91,40.59-93.91,111.32-62.24,166.34,7.67,13.33,16.31,23.07,25.94,30.54-33.61-52.91-7.86-106.7,18.84-142.7,10.48-20.39,24.72-39.57,40.27-55.93C333.87,15.15,325.46.26,325.46.26h-9.12s5.32,26.11-87.48,103.12Z"/><path class="cls-2" d="m207.8,121.94c-17.21,17.76-69.05,70.51-66.72,129.86,1.79,6.11,4.31,12.1,7.66,17.91,14.9,25.88,33.41,38.23,55.88,46.7-3.72-4.3-7.19-8.84-10.4-13.62-.57-.85-1.1-1.7-1.64-2.54-9.64-7.47-18.27-17.21-25.94-30.54-31.67-55.02,13.33-125.75,62.24-166.34C321.67,26.36,316.34.26,316.34.26c0,0-3.01,17.86-53.34,68.33-7.01,6.79-35.7,33.23-55.21,53.36Z"/><path class="cls-3" d="m207.8,121.94c-17.21,17.76-69.05,70.51-66.72,129.86,1.79,6.11,4.31,12.1,7.66,17.91,14.9,25.88,33.41,38.23,55.88,46.7-3.72-4.3-7.19-8.84-10.4-13.62-.57-.85-1.1-1.7-1.64-2.54-9.64-7.47-18.27-17.21-25.94-30.54-31.67-55.02,13.33-125.75,62.24-166.34C321.67,26.36,316.34.26,316.34.26c0,0-3.01,17.86-53.34,68.33-7.01,6.79-35.7,33.23-55.21,53.36Z"/><path class="cls-3" d="m18.18.26H0v28.6C16.78,7.99,18.18.26,18.18.26Z"/><path class="cls-3" d="m185.93,94.24c-19.51,17.93-39.01,41.86-52.83,67.65,13.38-18.84,27.58-33.35,35.12-41.14,19.51-20.13,48.2-46.57,55.21-53.36C273.75,16.93,275.87.26,275.87.26h-14.25s0,24.4-75.69,93.98Z"/><path class="cls-2" d="m168.22,120.75c-7.55,7.79-21.75,22.3-35.12,41.14-19.32,36.05-27.53,75.75-9.07,107.82,10.57,18.36,22.95,29.91,37.28,38.09-.91-1.26-1.8-2.53-2.67-3.82-11.75-17.49-16.89-35.11-17.56-52.18-15.18-51.75,22.56-112.34,66.33-148.6C279.69,43.33,288.35.26,288.35.26h-12.48s-2.12,16.67-52.44,67.14c-7.01,6.79-35.7,33.23-55.21,53.36Z"/><path class="cls-3" d="m168.22,120.75c-7.55,7.79-21.75,22.3-35.12,41.14-19.32,36.05-27.53,75.75-9.07,107.82,10.57,18.36,22.95,29.91,37.28,38.09-.91-1.26-1.8-2.53-2.67-3.82-11.75-17.49-16.89-35.11-17.56-52.18-15.18-51.75,22.56-112.34,66.33-148.6C279.69,43.33,288.35.26,288.35.26h-12.48s-2.12,16.67-52.44,67.14c-7.01,6.79-35.7,33.23-55.21,53.36Z"/><path class="cls-2" d="m148.74,269.71c-3.35-5.81-5.87-11.8-7.66-17.91.67,17.07,5.81,34.69,17.56,52.18.87,1.29,1.76,2.56,2.67,3.82,15.49,8.86,33.26,13.78,53.44,19.11-3.57-3.32-6.95-6.83-10.13-10.51-22.46-8.47-40.98-20.82-55.88-46.7Z"/><path class="cls-3" d="m148.74,269.71c-3.35-5.81-5.87-11.8-7.66-17.91.67,17.07,5.81,34.69,17.56,52.18.87,1.29,1.76,2.56,2.67,3.82,15.49,8.86,33.26,13.78,53.44,19.11-3.57-3.32-6.95-6.83-10.13-10.51-22.46-8.47-40.98-20.82-55.88-46.7Z"/><path class="cls-3" d="m148.74,269.71c-3.35-5.81-5.87-11.8-7.66-17.91.67,17.07,5.81,34.69,17.56,52.18.87,1.29,1.76,2.56,2.67,3.82,15.49,8.86,33.26,13.78,53.44,19.11-3.57-3.32-6.95-6.83-10.13-10.51-22.46-8.47-40.98-20.82-55.88-46.7Z"/><path class="cls-3" d="m9.98,93.12C6.76,96.23,3.42,99.51,0,102.93v6.87c17.98-17.79,38.55-36.8,44.34-42.4C94.67,16.93,97.68.26,97.68.26h-14.17S40.01,64.15,9.98,93.12Z"/><path class="cls-2" d="m0,109.8v29.77c10.02-13.18,21.21-25.49,32.49-36.37C62.52,74.24,111.41.26,111.41.26h-13.73s-3.01,16.67-53.34,67.14C38.55,73,17.98,92.01,0,109.8Z"/><path class="cls-3" d="m0,109.8v29.77c10.02-13.18,21.21-25.49,32.49-36.37C62.52,74.24,111.41.26,111.41.26h-13.73s-3.01,16.67-53.34,67.14C38.55,73,17.98,92.01,0,109.8Z"/><path class="cls-3" d="m123.9,103.2c-43.68,39.39-83.91,101.4-64.51,154.05-6.72-62.02,48.38-118.08,66.23-136.5,19.51-20.13,48.2-46.57,55.21-53.36C231.15,16.93,234.16.26,234.16.26h-31.35s6.09,26.29-78.92,102.95Z"/><path class="cls-1" d="m360.35,334.52c-52.72-15.43-91.57-17.92-118.56-64.81-31.67-55.02-4.98-131.38,40.73-175.48C312.54,65.27,359.32.26,359.32.26h-15.52s-26.93,41.41-53.1,74.6c-11.82,11.12-32.29,30.38-47.33,45.89,15.03-15.51,29.25-23.83,21.51-16.36-45.71,44.1-90.35,111.49-58.67,166.51,26.99,46.89,65.84,49.37,118.56,64.81,6.45,1.89,9.01,4.8,9.09,8.02h35.49c.57-3.68-1.78-7.09-9.01-9.21Z"/><path class="cls-3" d="m251.69,101.62c-15.55,16.36-29.8,35.54-40.27,55.93,12.4-16.73,25.01-29.62,31.96-36.79,15.03-15.51,35.51-34.77,47.33-45.89C316.87,41.67,343.8.26,343.8.26h-18.34s8.41,14.9-73.78,101.36Z"/><path class="cls-1" d="m251.69,101.62c-15.55,16.36-29.8,35.54-40.27,55.93,12.4-16.73,25.01-29.62,31.96-36.79,15.03-15.51,35.51-34.77,47.33-45.89C316.87,41.67,343.8.26,343.8.26h-18.34s8.41,14.9-73.78,101.36Z"/><path class="cls-3" d="m324.77,335.71c-52.72-15.43-91.57-17.92-118.56-64.81-20.41-35.45-13.79-76.4,5.2-113.36-26.7,36-52.45,89.79-18.84,142.7,24.26,18.81,54.89,23.22,92.62,34.27,7.23,2.12,9.58,5.53,9.01,9.21h39.66c-.08-3.22-2.65-6.13-9.09-8.02Z"/><path class="cls-1" d="m206.21,270.9c-31.67-55.02,12.96-122.41,58.67-166.51,7.74-7.47-6.48.85-21.51,16.36-6.95,7.18-19.56,20.07-31.96,36.79-18.99,36.95-25.61,77.9-5.2,113.36Z"/><path class="cls-3" d="m206.21,270.9c-31.67-55.02,12.96-122.41,58.67-166.51,7.74-7.47-6.48.85-21.51,16.36-6.95,7.18-19.56,20.07-31.96,36.79-18.99,36.95-25.61,77.9-5.2,113.36Z"/><path class="cls-2" d="m285.19,334.52c-37.73-11.05-68.36-15.46-92.62-34.27.54.85,1.07,1.7,1.64,2.54,3.21,4.78,6.68,9.32,10.4,13.62,18.23,6.87,39.07,11.19,62.69,18.11,7.23,2.12,9.58,5.53,9.01,9.21h17.89c.57-3.68-1.78-7.09-9.01-9.21Z"/><path class="cls-3" d="m285.19,334.52c-37.73-11.05-68.36-15.46-92.62-34.27.54.85,1.07,1.7,1.64,2.54,3.21,4.78,6.68,9.32,10.4,13.62,18.23,6.87,39.07,11.19,62.69,18.11,7.23,2.12,9.58,5.53,9.01,9.21h17.89c.57-3.68-1.78-7.09-9.01-9.21Z"/><path class="cls-1" d="m285.19,334.52c-37.73-11.05-68.36-15.46-92.62-34.27.54.85,1.07,1.7,1.64,2.54,3.21,4.78,6.68,9.32,10.4,13.62,18.23,6.87,39.07,11.19,62.69,18.11,7.23,2.12,9.58,5.53,9.01,9.21h17.89c.57-3.68-1.78-7.09-9.01-9.21Z"/><path class="cls-2" d="m267.3,334.52c-23.62-6.91-44.45-11.23-62.69-18.11,3.18,3.68,6.56,7.18,10.13,10.51,8.82,2.33,18.09,4.74,27.85,7.6,7.23,2.12,9.58,5.53,9.01,9.21h24.71c.57-3.68-1.78-7.09-9.01-9.21Z"/><path class="cls-3" d="m267.3,334.52c-23.62-6.91-44.45-11.23-62.69-18.11,3.18,3.68,6.56,7.18,10.13,10.51,8.82,2.33,18.09,4.74,27.85,7.6,7.23,2.12,9.58,5.53,9.01,9.21h24.71c.57-3.68-1.78-7.09-9.01-9.21Z"/><path class="cls-3" d="m267.3,334.52c-23.62-6.91-44.45-11.23-62.69-18.11,3.18,3.68,6.56,7.18,10.13,10.51,8.82,2.33,18.09,4.74,27.85,7.6,7.23,2.12,9.58,5.53,9.01,9.21h24.71c.57-3.68-1.78-7.09-9.01-9.21Z"/><path class="cls-1" d="m267.3,334.52c-23.62-6.91-44.45-11.23-62.69-18.11,3.18,3.68,6.56,7.18,10.13,10.51,8.82,2.33,18.09,4.74,27.85,7.6,7.23,2.12,9.58,5.53,9.01,9.21h24.71c.57-3.68-1.78-7.09-9.01-9.21Z"/><path class="cls-1" d="m0,94.05C41.16,46.02,65.67.26,65.67.26h-20.03S23.58,33.63,0,64.32v29.73Z"/><path class="cls-3" d="m0,102.93c3.42-3.42,6.76-6.7,9.98-9.81C40.01,64.15,83.51.26,83.51.26h-17.85S41.16,46.02,0,94.05v8.88Z"/><path class="cls-1" d="m0,102.93c3.42-3.42,6.76-6.7,9.98-9.81C40.01,64.15,83.51.26,83.51.26h-17.85S41.16,46.02,0,94.05v8.88Z"/><path class="cls-2" d="m106.89,89.76C61.29,133.97-11.82,214.7,19.86,269.71c4.99,8.66,10.38,15.8,16.18,21.79C-2.37,216.87,70.78,142.52,91.88,120.75c19.51-20.13,48.2-46.57,55.21-53.36C197.41,16.93,200.42.26,200.42.26h-17.29c-.06,2.14-3.28,18.76-76.25,89.5Z"/><path class="cls-3" d="m91.88,120.75c-21.1,21.77-94.25,96.12-55.84,170.75,15.5,15.99,33.97,23.77,55.65,30.2-5.6-5.82-10.66-12.12-15.23-18.91-10.24-15.23-15.45-30.56-17.07-45.55-19.4-52.64,20.83-114.66,64.51-154.05C208.9,26.55,202.81.26,202.81.26h-2.39s-3.01,16.67-53.34,67.14c-7.01,6.79-35.7,33.23-55.21,53.36Z"/><path class="cls-2" d="m91.88,120.75c-21.1,21.77-94.25,96.12-55.84,170.75,15.5,15.99,33.97,23.77,55.65,30.2-5.6-5.82-10.66-12.12-15.23-18.91-10.24-15.23-15.45-30.56-17.07-45.55-19.4-52.64,20.83-114.66,64.51-154.05C208.9,26.55,202.81.26,202.81.26h-2.39s-3.01,16.67-53.34,67.14c-7.01,6.79-35.7,33.23-55.21,53.36Z"/><path class="cls-2" d="m0,49.85C34.14,12.98,36.44.26,36.44.26h-14.05S21.13,13.24,0,41.59v8.27Z"/><path class="cls-3" d="m0,41.59C21.13,13.24,22.39.26,22.39.26h-4.21S16.78,7.99,0,28.85v12.73Z"/><path class="cls-2" d="m0,41.59C21.13,13.24,22.39.26,22.39.26h-4.21S16.78,7.99,0,28.85v12.73Z"/><path class="cls-1" d="m0,64.32C23.58,33.63,45.63.26,45.63.26h-9.19S34.14,12.98,0,49.85v14.47Z"/><path class="cls-2" d="m0,64.32C23.58,33.63,45.63.26,45.63.26h-9.19S34.14,12.98,0,49.85v14.47Z"/><path class="cls-2" d="m.77,333.77c-.26-.21-.51-.42-.77-.63v.41c.26.07.51.14.77.22Z"/><path class="cls-3" d="m.77,333.77c-.26-.21-.51-.42-.77-.63v.41c.26.07.51.14.77.22Z"/><path class="cls-1" d="m.77,333.77c-.26-.21-.51-.42-.77-.63v.41c.26.07.51.14.77.22Z"/><path class="cls-2" d="m.77,333.77c-.26-.21-.51-.42-.77-.63v.41c.26.07.51.14.77.22Z"/><path class="cls-2" d="m12.38,343.73h2.68c-.88-.54-1.76-1.09-2.63-1.64.05.54.04,1.09-.05,1.64Z"/><path class="cls-3" d="m12.38,343.73h2.68c-.88-.54-1.76-1.09-2.63-1.64.05.54.04,1.09-.05,1.64Z"/><path class="cls-1" d="m12.38,343.73h2.68c-.88-.54-1.76-1.09-2.63-1.64.05.54.04,1.09-.05,1.64Z"/><path class="cls-2" d="m12.38,343.73h2.68c-.88-.54-1.76-1.09-2.63-1.64.05.54.04,1.09-.05,1.64Z"/><path class="cls-2" d="m12.43,342.09c-4.08-2.61-7.96-5.38-11.65-8.32-.26-.07-.51-.14-.77-.22v10.18h12.38c.09-.55.1-1.1.05-1.64Z"/><path class="cls-3" d="m12.43,342.09c-4.08-2.61-7.96-5.38-11.65-8.32-.26-.07-.51-.14-.77-.22v10.18h12.38c.09-.55.1-1.1.05-1.64Z"/><path class="cls-3" d="m12.43,342.09c-4.08-2.61-7.96-5.38-11.65-8.32-.26-.07-.51-.14-.77-.22v10.18h12.38c.09-.55.1-1.1.05-1.64Z"/><path class="cls-1" d="m12.43,342.09c-4.08-2.61-7.96-5.38-11.65-8.32-.26-.07-.51-.14-.77-.22v10.18h12.38c.09-.55.1-1.1.05-1.64Z"/><path class="cls-2" d="m12.43,342.09c-4.08-2.61-7.96-5.38-11.65-8.32-.26-.07-.51-.14-.77-.22v10.18h12.38c.09-.55.1-1.1.05-1.64Z"/><path class="cls-1" d="m148.96,103.2c-48.54,32.65-84.2,99.53-64.99,152.86-5.89-61.55,48.62-117.01,66.36-135.31,19.51-20.13,48.2-46.57,55.21-53.36C255.86,16.93,258.87.26,258.87.26h-16.48s-31.03,60.97-93.43,102.95Z"/><path class="cls-3" d="m150.32,120.75c-17.74,18.3-72.25,73.76-66.36,135.31,1.68,4.66,3.77,9.23,6.32,13.65,8.28,14.38,17.67,24.58,28.24,32.26-33.91-51.38-11.21-103.77,14.57-140.08,13.82-25.79,33.33-49.72,52.83-67.65C261.62,24.65,261.62.26,261.62.26h-2.75s-3.01,16.67-53.34,67.14c-7.01,6.79-35.7,33.23-55.21,53.36Z"/><path class="cls-1" d="m150.32,120.75c-17.74,18.3-72.25,73.76-66.36,135.31,1.68,4.66,3.77,9.23,6.32,13.65,8.28,14.38,17.67,24.58,28.24,32.26-33.91-51.38-11.21-103.77,14.57-140.08,13.82-25.79,33.33-49.72,52.83-67.65C261.62,24.65,261.62.26,261.62.26h-2.75s-3.01,16.67-53.34,67.14c-7.01,6.79-35.7,33.23-55.21,53.36Z"/><path class="cls-2" d="m124.03,269.71c-18.46-32.07-10.25-71.77,9.07-107.82-25.78,36.31-48.48,88.71-14.57,140.08,16.48,11.98,35.81,17.83,58.21,23.81-5.65-5.53-10.78-11.52-15.43-17.98-14.32-8.19-26.71-19.74-37.28-38.09Z"/><path class="cls-3" d="m124.03,269.71c-18.46-32.07-10.25-71.77,9.07-107.82-25.78,36.31-48.48,88.71-14.57,140.08,16.48,11.98,35.81,17.83,58.21,23.81-5.65-5.53-10.78-11.52-15.43-17.98-14.32-8.19-26.71-19.74-37.28-38.09Z"/><path class="cls-1" d="m124.03,269.71c-18.46-32.07-10.25-71.77,9.07-107.82-25.78,36.31-48.48,88.71-14.57,140.08,16.48,11.98,35.81,17.83,58.21,23.81-5.65-5.53-10.78-11.52-15.43-17.98-14.32-8.19-26.71-19.74-37.28-38.09Z"/><path class="cls-2" d="m161.31,307.81c4.65,6.46,9.78,12.45,15.43,17.98,10.08,2.69,20.78,5.41,32.12,8.73,7.23,2.12,9.58,5.53,9.01,9.21h19.12c-8.14-4.97-15.54-10.57-22.24-16.81-20.18-5.34-37.94-10.26-53.44-19.11Z"/><path class="cls-3" d="m161.31,307.81c4.65,6.46,9.78,12.45,15.43,17.98,10.08,2.69,20.78,5.41,32.12,8.73,7.23,2.12,9.58,5.53,9.01,9.21h19.12c-8.14-4.97-15.54-10.57-22.24-16.81-20.18-5.34-37.94-10.26-53.44-19.11Z"/><path class="cls-3" d="m161.31,307.81c4.65,6.46,9.78,12.45,15.43,17.98,10.08,2.69,20.78,5.41,32.12,8.73,7.23,2.12,9.58,5.53,9.01,9.21h19.12c-8.14-4.97-15.54-10.57-22.24-16.81-20.18-5.34-37.94-10.26-53.44-19.11Z"/><path class="cls-1" d="m161.31,307.81c4.65,6.46,9.78,12.45,15.43,17.98,10.08,2.69,20.78,5.41,32.12,8.73,7.23,2.12,9.58,5.53,9.01,9.21h19.12c-8.14-4.97-15.54-10.57-22.24-16.81-20.18-5.34-37.94-10.26-53.44-19.11Z"/><path class="cls-3" d="m125.62,120.75c-17.85,18.42-72.95,74.48-66.23,136.5,1.56,4.22,3.48,8.38,5.84,12.46,11.47,19.92,25.08,31.83,40.98,40.11-1.74-2.28-3.42-4.63-5.04-7.03-10.51-15.64-15.73-31.37-17.2-46.73-19.21-53.33,16.45-120.21,64.99-152.86C211.36,61.23,242.39.26,242.39.26h-8.23s-3.01,16.67-53.34,67.14c-7.01,6.79-35.7,33.23-55.21,53.36Z"/><path class="cls-1" d="m125.62,120.75c-17.85,18.42-72.95,74.48-66.23,136.5,1.56,4.22,3.48,8.38,5.84,12.46,11.47,19.92,25.08,31.83,40.98,40.11-1.74-2.28-3.42-4.63-5.04-7.03-10.51-15.64-15.73-31.37-17.2-46.73-19.21-53.33,16.45-120.21,64.99-152.86C211.36,61.23,242.39.26,242.39.26h-8.23s-3.01,16.67-53.34,67.14c-7.01,6.79-35.7,33.23-55.21,53.36Z"/><path class="cls-3" d="m90.29,269.71c-2.55-4.43-4.64-8.99-6.32-13.65,1.47,15.36,6.69,31.1,17.2,46.73,1.62,2.41,3.3,4.75,5.04,7.03,8.35,4.35,17.33,7.71,26.96,10.7-5.15-5.49-9.85-11.4-14.11-17.73-.18-.27-.35-.55-.53-.82-10.57-7.68-19.96-17.88-28.24-32.26Z"/><path class="cls-3" d="m90.29,269.71c-2.55-4.43-4.64-8.99-6.32-13.65,1.47,15.36,6.69,31.1,17.2,46.73,1.62,2.41,3.3,4.75,5.04,7.03,8.35,4.35,17.33,7.71,26.96,10.7-5.15-5.49-9.85-11.4-14.11-17.73-.18-.27-.35-.55-.53-.82-10.57-7.68-19.96-17.88-28.24-32.26Z"/><path class="cls-1" d="m90.29,269.71c-2.55-4.43-4.64-8.99-6.32-13.65,1.47,15.36,6.69,31.1,17.2,46.73,1.62,2.41,3.3,4.75,5.04,7.03,8.35,4.35,17.33,7.71,26.96,10.7-5.15-5.49-9.85-11.4-14.11-17.73-.18-.27-.35-.55-.53-.82-10.57-7.68-19.96-17.88-28.24-32.26Z"/><path class="cls-2" d="m118.53,301.97c.18.27.35.55.53.82,4.26,6.33,8.95,12.24,14.11,17.73,15.21,4.73,32.05,8.56,50.62,13.99,7.23,2.12,9.58,5.53,9.01,9.21h6.7c-8.38-5.29-15.94-11.27-22.76-17.94-22.4-5.99-41.73-11.84-58.21-23.81Z"/><path class="cls-3" d="m118.53,301.97c.18.27.35.55.53.82,4.26,6.33,8.95,12.24,14.11,17.73,15.21,4.73,32.05,8.56,50.62,13.99,7.23,2.12,9.58,5.53,9.01,9.21h6.7c-8.38-5.29-15.94-11.27-22.76-17.94-22.4-5.99-41.73-11.84-58.21-23.81Z"/><path class="cls-3" d="m118.53,301.97c.18.27.35.55.53.82,4.26,6.33,8.95,12.24,14.11,17.73,15.21,4.73,32.05,8.56,50.62,13.99,7.23,2.12,9.58,5.53,9.01,9.21h6.7c-8.38-5.29-15.94-11.27-22.76-17.94-22.4-5.99-41.73-11.84-58.21-23.81Z"/><path class="cls-1" d="m118.53,301.97c.18.27.35.55.53.82,4.26,6.33,8.95,12.24,14.11,17.73,15.21,4.73,32.05,8.56,50.62,13.99,7.23,2.12,9.58,5.53,9.01,9.21h6.7c-8.38-5.29-15.94-11.27-22.76-17.94-22.4-5.99-41.73-11.84-58.21-23.81Z"/><path class="cls-2" d="m208.85,334.52c-11.34-3.32-22.04-6.04-32.12-8.73,6.82,6.67,14.38,12.65,22.76,17.94h18.37c.57-3.68-1.78-7.09-9.01-9.21Z"/><path class="cls-3" d="m208.85,334.52c-11.34-3.32-22.04-6.04-32.12-8.73,6.82,6.67,14.38,12.65,22.76,17.94h18.37c.57-3.68-1.78-7.09-9.01-9.21Z"/><path class="cls-3" d="m208.85,334.52c-11.34-3.32-22.04-6.04-32.12-8.73,6.82,6.67,14.38,12.65,22.76,17.94h18.37c.57-3.68-1.78-7.09-9.01-9.21Z"/><path class="cls-3" d="m208.85,334.52c-11.34-3.32-22.04-6.04-32.12-8.73,6.82,6.67,14.38,12.65,22.76,17.94h18.37c.57-3.68-1.78-7.09-9.01-9.21Z"/><path class="cls-1" d="m208.85,334.52c-11.34-3.32-22.04-6.04-32.12-8.73,6.82,6.67,14.38,12.65,22.76,17.94h18.37c.57-3.68-1.78-7.09-9.01-9.21Z"/><path class="cls-2" d="m242.59,334.52c-9.75-2.86-19.03-5.27-27.85-7.6,6.7,6.23,14.09,11.84,22.24,16.81h14.62c.57-3.68-1.78-7.09-9.01-9.21Z"/><path class="cls-3" d="m242.59,334.52c-9.75-2.86-19.03-5.27-27.85-7.6,6.7,6.23,14.09,11.84,22.24,16.81h14.62c.57-3.68-1.78-7.09-9.01-9.21Z"/><path class="cls-3" d="m242.59,334.52c-9.75-2.86-19.03-5.27-27.85-7.6,6.7,6.23,14.09,11.84,22.24,16.81h14.62c.57-3.68-1.78-7.09-9.01-9.21Z"/><path class="cls-1" d="m242.59,334.52c-9.75-2.86-19.03-5.27-27.85-7.6,6.7,6.23,14.09,11.84,22.24,16.81h14.62c.57-3.68-1.78-7.09-9.01-9.21Z"/><path class="cls-1" d="m242.59,334.52c-9.75-2.86-19.03-5.27-27.85-7.6,6.7,6.23,14.09,11.84,22.24,16.81h14.62c.57-3.68-1.78-7.09-9.01-9.21Z"/><path class="cls-3" d="m65.22,269.71c-2.35-4.08-4.28-8.24-5.84-12.46,1.62,14.98,6.84,30.31,17.07,45.55,4.56,6.79,9.63,13.09,15.23,18.91,10.79,3.2,22.37,6.07,34.78,9.45-7.55-6.38-14.28-13.5-20.25-21.32-15.9-8.29-29.51-20.19-40.98-40.11Z"/><path class="cls-2" d="m65.22,269.71c-2.35-4.08-4.28-8.24-5.84-12.46,1.62,14.98,6.84,30.31,17.07,45.55,4.56,6.79,9.63,13.09,15.23,18.91,10.79,3.2,22.37,6.07,34.78,9.45-7.55-6.38-14.28-13.5-20.25-21.32-15.9-8.29-29.51-20.19-40.98-40.11Z"/><path class="cls-1" d="m65.22,269.71c-2.35-4.08-4.28-8.24-5.84-12.46,1.62,14.98,6.84,30.31,17.07,45.55,4.56,6.79,9.63,13.09,15.23,18.91,10.79,3.2,22.37,6.07,34.78,9.45-7.55-6.38-14.28-13.5-20.25-21.32-15.9-8.29-29.51-20.19-40.98-40.11Z"/><path class="cls-3" d="m133.17,320.53c-9.63-2.99-18.61-6.35-26.96-10.7,5.98,7.83,12.71,14.94,20.25,21.32,3.9,1.06,7.89,2.18,11.96,3.37,7.23,2.12,9.58,5.53,9.01,9.21h14.4c-10.84-6.61-20.35-14.35-28.66-23.2Z"/><path class="cls-3" d="m133.17,320.53c-9.63-2.99-18.61-6.35-26.96-10.7,5.98,7.83,12.71,14.94,20.25,21.32,3.9,1.06,7.89,2.18,11.96,3.37,7.23,2.12,9.58,5.53,9.01,9.21h14.4c-10.84-6.61-20.35-14.35-28.66-23.2Z"/><path class="cls-2" d="m133.17,320.53c-9.63-2.99-18.61-6.35-26.96-10.7,5.98,7.83,12.71,14.94,20.25,21.32,3.9,1.06,7.89,2.18,11.96,3.37,7.23,2.12,9.58,5.53,9.01,9.21h14.4c-10.84-6.61-20.35-14.35-28.66-23.2Z"/><path class="cls-1" d="m133.17,320.53c-9.63-2.99-18.61-6.35-26.96-10.7,5.98,7.83,12.71,14.94,20.25,21.32,3.9,1.06,7.89,2.18,11.96,3.37,7.23,2.12,9.58,5.53,9.01,9.21h14.4c-10.84-6.61-20.35-14.35-28.66-23.2Z"/><path class="cls-2" d="m183.79,334.52c-18.56-5.43-35.41-9.27-50.62-13.99,8.31,8.85,17.82,16.59,28.66,23.2h30.97c.57-3.68-1.78-7.09-9.01-9.21Z"/><path class="cls-3" d="m183.79,334.52c-18.56-5.43-35.41-9.27-50.62-13.99,8.31,8.85,17.82,16.59,28.66,23.2h30.97c.57-3.68-1.78-7.09-9.01-9.21Z"/><path class="cls-3" d="m183.79,334.52c-18.56-5.43-35.41-9.27-50.62-13.99,8.31,8.85,17.82,16.59,28.66,23.2h30.97c.57-3.68-1.78-7.09-9.01-9.21Z"/><path class="cls-2" d="m183.79,334.52c-18.56-5.43-35.41-9.27-50.62-13.99,8.31,8.85,17.82,16.59,28.66,23.2h30.97c.57-3.68-1.78-7.09-9.01-9.21Z"/><path class="cls-1" d="m183.79,334.52c-18.56-5.43-35.41-9.27-50.62-13.99,8.31,8.85,17.82,16.59,28.66,23.2h30.97c.57-3.68-1.78-7.09-9.01-9.21Z"/><path class="cls-1" d="m46.22,103.2C28.55,116.06,12.36,133.24,0,152.49v134.95c5.68,6.57,11.77,11.88,18.31,16.31-.22-.32-.44-.63-.65-.95-52.61-78.29,26.99-159.17,49.16-182.04,19.51-20.13,48.2-46.57,55.21-53.36C172.34,16.93,175.36.26,175.36.26h7.78c0-.18-.01-.26-.01-.26l-53.13.26h22.08s-13.55,35.8-105.85,102.95Z"/><path class="cls-2" d="m0,287.43v13c8.32,6.41,17.39,11.14,27.24,15.04-3.17-3.73-6.15-7.64-8.94-11.72C11.77,299.31,5.68,294,0,287.43Z"/><path class="cls-1" d="m0,287.43v13c8.32,6.41,17.39,11.14,27.24,15.04-3.17-3.73-6.15-7.64-8.94-11.72C11.77,299.31,5.68,294,0,287.43Z"/><path class="cls-2" d="m21.45,120.75C16.47,125.88,8.61,133.94,0,144.22v8.26c12.36-19.25,28.55-36.43,46.22-49.28C138.51,36.06,152.07.26,152.07.26h-22.08s-3.01,16.67-53.34,67.14c-7.01,6.79-35.7,33.23-55.21,53.36Z"/><path class="cls-1" d="m21.45,120.75C16.47,125.88,8.61,133.94,0,144.22v8.26c12.36-19.25,28.55-36.43,46.22-49.28C138.51,36.06,152.07.26,152.07.26h-22.08s-3.01,16.67-53.34,67.14c-7.01,6.79-35.7,33.23-55.21,53.36Z"/><path class="cls-2" d="m53.88,343.73h6.54c-2.98-1.82-5.86-3.73-8.65-5.72,1.83,1.71,2.43,3.67,2.11,5.72Z"/><path class="cls-3" d="m53.88,343.73h6.54c-2.98-1.82-5.86-3.73-8.65-5.72,1.83,1.71,2.43,3.67,2.11,5.72Z"/><path class="cls-1" d="m53.88,343.73h6.54c-2.98-1.82-5.86-3.73-8.65-5.72,1.83,1.71,2.43,3.67,2.11,5.72Z"/><path class="cls-2" d="m0,322.25c13.68,3.98,28.61,7.51,44.87,12.27,1.97.58,3.57,1.25,4.85,2-8.38-6.22-15.85-13.25-22.48-21.05C17.39,311.58,8.32,306.84,0,300.43v21.82Z"/><path class="cls-3" d="m0,322.25c13.68,3.98,28.61,7.51,44.87,12.27,1.97.58,3.57,1.25,4.85,2-8.38-6.22-15.85-13.25-22.48-21.05C17.39,311.58,8.32,306.84,0,300.43v21.82Z"/><path class="cls-1" d="m0,322.25c13.68,3.98,28.61,7.51,44.87,12.27,1.97.58,3.57,1.25,4.85,2-8.38-6.22-15.85-13.25-22.48-21.05C17.39,311.58,8.32,306.84,0,300.43v21.82Z"/><path class="cls-2" d="m51.77,338.01c-.69-.49-1.37-.99-2.05-1.49-1.29-.75-2.88-1.42-4.85-2C28.61,329.76,13.68,326.23,0,322.25v5c8.45,2.23,17.31,4.55,26.61,7.27,7.23,2.12,9.58,5.53,9.01,9.21h18.26c.32-2.05-.28-4.01-2.11-5.72Z"/><path class="cls-3" d="m51.77,338.01c-.69-.49-1.37-.99-2.05-1.49-1.29-.75-2.88-1.42-4.85-2C28.61,329.76,13.68,326.23,0,322.25v5c8.45,2.23,17.31,4.55,26.61,7.27,7.23,2.12,9.58,5.53,9.01,9.21h18.26c.32-2.05-.28-4.01-2.11-5.72Z"/><path class="cls-1" d="m51.77,338.01c-.69-.49-1.37-.99-2.05-1.49-1.29-.75-2.88-1.42-4.85-2C28.61,329.76,13.68,326.23,0,322.25v5c8.45,2.23,17.31,4.55,26.61,7.27,7.23,2.12,9.58,5.53,9.01,9.21h18.26c.32-2.05-.28-4.01-2.11-5.72Z"/><path class="cls-1" d="m51.77,338.01c-.69-.49-1.37-.99-2.05-1.49-1.29-.75-2.88-1.42-4.85-2C28.61,329.76,13.68,326.23,0,322.25v5c8.45,2.23,17.31,4.55,26.61,7.27,7.23,2.12,9.58,5.53,9.01,9.21h18.26c.32-2.05-.28-4.01-2.11-5.72Z"/><path class="cls-2" d="m122.02,67.39c-7.01,6.79-35.7,33.23-55.21,53.36-22.16,22.87-101.77,103.75-49.16,182.04.21.32.44.63.65.95,11.62,7.88,24.62,12.97,39.06,17.36-5.37-5.65-10.24-11.75-14.65-18.31-2.53-3.76-4.74-7.52-6.68-11.29-5.81-5.99-11.2-13.13-16.18-21.79-31.67-55.02,41.44-135.74,87.03-179.95C179.86,19.01,183.07,2.39,183.14.26h-7.78s-3.01,16.67-53.34,67.14Z"/><path class="cls-1" d="m122.02,67.39c-7.01,6.79-35.7,33.23-55.21,53.36-22.16,22.87-101.77,103.75-49.16,182.04.21.32.44.63.65.95,11.62,7.88,24.62,12.97,39.06,17.36-5.37-5.65-10.24-11.75-14.65-18.31-2.53-3.76-4.74-7.52-6.68-11.29-5.81-5.99-11.2-13.13-16.18-21.79-31.67-55.02,41.44-135.74,87.03-179.95C179.86,19.01,183.07,2.39,183.14.26h-7.78s-3.01,16.67-53.34,67.14Z"/><path class="cls-2" d="m27.24,315.47c10.87,4.3,22.69,7.58,35.5,10.98-1.84-1.73-3.64-3.51-5.38-5.34-14.44-4.38-27.44-9.48-39.06-17.36,2.79,4.09,5.77,7.99,8.94,11.72Z"/><path class="cls-2" d="m27.24,315.47c10.87,4.3,22.69,7.58,35.5,10.98-1.84-1.73-3.64-3.51-5.38-5.34-14.44-4.38-27.44-9.48-39.06-17.36,2.79,4.09,5.77,7.99,8.94,11.72Z"/><path class="cls-1" d="m27.24,315.47c10.87,4.3,22.69,7.58,35.5,10.98-1.84-1.73-3.64-3.51-5.38-5.34-14.44-4.38-27.44-9.48-39.06-17.36,2.79,4.09,5.77,7.99,8.94,11.72Z"/><path class="cls-2" d="m27.24,315.47c6.63,7.81,14.1,14.83,22.48,21.05.8.47,1.48.97,2.05,1.49,2.79,1.99,5.66,3.9,8.65,5.72h25.07c-8.35-5.09-15.91-10.86-22.74-17.28-12.81-3.4-24.63-6.68-35.5-10.98Z"/><path class="cls-3" d="m27.24,315.47c6.63,7.81,14.1,14.83,22.48,21.05.8.47,1.48.97,2.05,1.49,2.79,1.99,5.66,3.9,8.65,5.72h25.07c-8.35-5.09-15.91-10.86-22.74-17.28-12.81-3.4-24.63-6.68-35.5-10.98Z"/><path class="cls-2" d="m27.24,315.47c6.63,7.81,14.1,14.83,22.48,21.05.8.47,1.48.97,2.05,1.49,2.79,1.99,5.66,3.9,8.65,5.72h25.07c-8.35-5.09-15.91-10.86-22.74-17.28-12.81-3.4-24.63-6.68-35.5-10.98Z"/><path class="cls-1" d="m27.24,315.47c6.63,7.81,14.1,14.83,22.48,21.05.8.47,1.48.97,2.05,1.49,2.79,1.99,5.66,3.9,8.65,5.72h25.07c-8.35-5.09-15.91-10.86-22.74-17.28-12.81-3.4-24.63-6.68-35.5-10.98Z"/><path class="cls-3" d="m115.12,343.73h4.11c-1.45-.88-2.87-1.79-4.27-2.71.26.88.3,1.78.16,2.71Z"/><path class="cls-2" d="m115.12,343.73h4.11c-1.45-.88-2.87-1.79-4.27-2.71.26.88.3,1.78.16,2.71Z"/><path class="cls-1" d="m115.12,343.73h4.11c-1.45-.88-2.87-1.79-4.27-2.71.26.88.3,1.78.16,2.71Z"/><path class="cls-3" d="m42.72,302.79c4.4,6.56,9.28,12.66,14.65,18.31,14.63,4.44,30.74,8.16,48.42,13.32-5.04-3.94-9.73-8.18-14.1-12.72-21.68-6.43-40.15-14.21-55.65-30.2,1.94,3.76,4.15,7.53,6.68,11.29Z"/><path class="cls-2" d="m42.72,302.79c4.4,6.56,9.28,12.66,14.65,18.31,14.63,4.44,30.74,8.16,48.42,13.32-5.04-3.94-9.73-8.18-14.1-12.72-21.68-6.43-40.15-14.21-55.65-30.2,1.94,3.76,4.15,7.53,6.68,11.29Z"/><path class="cls-1" d="m42.72,302.79c4.4,6.56,9.28,12.66,14.65,18.31,14.63,4.44,30.74,8.16,48.42,13.32-5.04-3.94-9.73-8.18-14.1-12.72-21.68-6.43-40.15-14.21-55.65-30.2,1.94,3.76,4.15,7.53,6.68,11.29Z"/><path class="cls-2" d="m114.96,341.02c-3.18-2.09-6.23-4.29-9.17-6.59-17.68-5.16-33.79-8.88-48.42-13.32,1.74,1.83,3.53,3.61,5.38,5.34,9.35,2.48,19.22,5.02,29.64,8.07,7.23,2.12,9.58,5.53,9.01,9.21h13.73c.14-.93.1-1.83-.16-2.71Z"/><path class="cls-3" d="m114.96,341.02c-3.18-2.09-6.23-4.29-9.17-6.59-17.68-5.16-33.79-8.88-48.42-13.32,1.74,1.83,3.53,3.61,5.38,5.34,9.35,2.48,19.22,5.02,29.64,8.07,7.23,2.12,9.58,5.53,9.01,9.21h13.73c.14-.93.1-1.83-.16-2.71Z"/><path class="cls-2" d="m114.96,341.02c-3.18-2.09-6.23-4.29-9.17-6.59-17.68-5.16-33.79-8.88-48.42-13.32,1.74,1.83,3.53,3.61,5.38,5.34,9.35,2.48,19.22,5.02,29.64,8.07,7.23,2.12,9.58,5.53,9.01,9.21h13.73c.14-.93.1-1.83-.16-2.71Z"/><path class="cls-1" d="m114.96,341.02c-3.18-2.09-6.23-4.29-9.17-6.59-17.68-5.16-33.79-8.88-48.42-13.32,1.74,1.83,3.53,3.61,5.38,5.34,9.35,2.48,19.22,5.02,29.64,8.07,7.23,2.12,9.58,5.53,9.01,9.21h13.73c.14-.93.1-1.83-.16-2.71Z"/><path class="cls-2" d="m92.38,334.52c-10.42-3.05-20.29-5.59-29.64-8.07,6.83,6.42,14.39,12.19,22.74,17.28h15.91c.57-3.68-1.78-7.09-9.01-9.21Z"/><path class="cls-3" d="m92.38,334.52c-10.42-3.05-20.29-5.59-29.64-8.07,6.83,6.42,14.39,12.19,22.74,17.28h15.91c.57-3.68-1.78-7.09-9.01-9.21Z"/><path class="cls-3" d="m92.38,334.52c-10.42-3.05-20.29-5.59-29.64-8.07,6.83,6.42,14.39,12.19,22.74,17.28h15.91c.57-3.68-1.78-7.09-9.01-9.21Z"/><path class="cls-2" d="m92.38,334.52c-10.42-3.05-20.29-5.59-29.64-8.07,6.83,6.42,14.39,12.19,22.74,17.28h15.91c.57-3.68-1.78-7.09-9.01-9.21Z"/><path class="cls-1" d="m92.38,334.52c-10.42-3.05-20.29-5.59-29.64-8.07,6.83,6.42,14.39,12.19,22.74,17.28h15.91c.57-3.68-1.78-7.09-9.01-9.21Z"/><path class="cls-2" d="m49.73,336.52c.68.5,1.36,1,2.05,1.49-.56-.52-1.24-1.02-2.05-1.49Z"/><path class="cls-3" d="m49.73,336.52c.68.5,1.36,1,2.05,1.49-.56-.52-1.24-1.02-2.05-1.49Z"/><path class="cls-1" d="m49.73,336.52c.68.5,1.36,1,2.05,1.49-.56-.52-1.24-1.02-2.05-1.49Z"/><path class="cls-2" d="m49.73,336.52c.68.5,1.36,1,2.05,1.49-.56-.52-1.24-1.02-2.05-1.49Z"/><path class="cls-1" d="m49.73,336.52c.68.5,1.36,1,2.05,1.49-.56-.52-1.24-1.02-2.05-1.49Z"/><path class="cls-2" d="m26.61,334.52C17.31,331.8,8.45,329.48,0,327.25v5.89c.26.21.51.42.77.63.86.25,1.73.5,2.59.75,6.14,1.8,8.76,4.53,9.06,7.57.87.55,1.74,1.1,2.63,1.64h20.57c.57-3.68-1.78-7.09-9.01-9.21Z"/><path class="cls-3" d="m26.61,334.52C17.31,331.8,8.45,329.48,0,327.25v5.89c.26.21.51.42.77.63.86.25,1.73.5,2.59.75,6.14,1.8,8.76,4.53,9.06,7.57.87.55,1.74,1.1,2.63,1.64h20.57c.57-3.68-1.78-7.09-9.01-9.21Z"/><path class="cls-1" d="m26.61,334.52C17.31,331.8,8.45,329.48,0,327.25v5.89c.26.21.51.42.77.63.86.25,1.73.5,2.59.75,6.14,1.8,8.76,4.53,9.06,7.57.87.55,1.74,1.1,2.63,1.64h20.57c.57-3.68-1.78-7.09-9.01-9.21Z"/><path class="cls-2" d="m26.61,334.52C17.31,331.8,8.45,329.48,0,327.25v5.89c.26.21.51.42.77.63.86.25,1.73.5,2.59.75,6.14,1.8,8.76,4.53,9.06,7.57.87.55,1.74,1.1,2.63,1.64h20.57c.57-3.68-1.78-7.09-9.01-9.21Z"/><path class="cls-1" d="m26.61,334.52C17.31,331.8,8.45,329.48,0,327.25v5.89c.26.21.51.42.77.63.86.25,1.73.5,2.59.75,6.14,1.8,8.76,4.53,9.06,7.57.87.55,1.74,1.1,2.63,1.64h20.57c.57-3.68-1.78-7.09-9.01-9.21Z"/><path class="cls-2" d="m3.37,334.52c-.87-.25-1.73-.5-2.59-.75,3.7,2.94,7.58,5.71,11.65,8.32-.3-3.04-2.91-5.77-9.06-7.57Z"/><path class="cls-3" d="m3.37,334.52c-.87-.25-1.73-.5-2.59-.75,3.7,2.94,7.58,5.71,11.65,8.32-.3-3.04-2.91-5.77-9.06-7.57Z"/><path class="cls-3" d="m3.37,334.52c-.87-.25-1.73-.5-2.59-.75,3.7,2.94,7.58,5.71,11.65,8.32-.3-3.04-2.91-5.77-9.06-7.57Z"/><path class="cls-1" d="m3.37,334.52c-.87-.25-1.73-.5-2.59-.75,3.7,2.94,7.58,5.71,11.65,8.32-.3-3.04-2.91-5.77-9.06-7.57Z"/><path class="cls-2" d="m3.37,334.52c-.87-.25-1.73-.5-2.59-.75,3.7,2.94,7.58,5.71,11.65,8.32-.3-3.04-2.91-5.77-9.06-7.57Z"/><path class="cls-1" d="m3.37,334.52c-.87-.25-1.73-.5-2.59-.75,3.7,2.94,7.58,5.71,11.65,8.32-.3-3.04-2.91-5.77-9.06-7.57Z"/><path class="cls-3" d="m91.69,321.71c4.37,4.54,9.06,8.78,14.1,12.72.11.03.22.06.32.09,5.41,1.58,8.08,3.89,8.85,6.5,1.4.92,2.82,1.83,4.27,2.71h24.71c-6.26-3.82-12.07-8.01-17.47-12.58-12.41-3.38-23.99-6.25-34.78-9.45Z"/><path class="cls-2" d="m91.69,321.71c4.37,4.54,9.06,8.78,14.1,12.72.11.03.22.06.32.09,5.41,1.58,8.08,3.89,8.85,6.5,1.4.92,2.82,1.83,4.27,2.71h24.71c-6.26-3.82-12.07-8.01-17.47-12.58-12.41-3.38-23.99-6.25-34.78-9.45Z"/><path class="cls-1" d="m91.69,321.71c4.37,4.54,9.06,8.78,14.1,12.72.11.03.22.06.32.09,5.41,1.58,8.08,3.89,8.85,6.5,1.4.92,2.82,1.83,4.27,2.71h24.71c-6.26-3.82-12.07-8.01-17.47-12.58-12.41-3.38-23.99-6.25-34.78-9.45Z"/><path class="cls-1" d="m91.69,321.71c4.37,4.54,9.06,8.78,14.1,12.72.11.03.22.06.32.09,5.41,1.58,8.08,3.89,8.85,6.5,1.4.92,2.82,1.83,4.27,2.71h24.71c-6.26-3.82-12.07-8.01-17.47-12.58-12.41-3.38-23.99-6.25-34.78-9.45Z"/><path class="cls-2" d="m106.11,334.52c-.11-.03-.22-.06-.32-.09,2.94,2.3,6,4.5,9.17,6.59-.77-2.6-3.44-4.91-8.85-6.5Z"/><path class="cls-3" d="m106.11,334.52c-.11-.03-.22-.06-.32-.09,2.94,2.3,6,4.5,9.17,6.59-.77-2.6-3.44-4.91-8.85-6.5Z"/><path class="cls-2" d="m106.11,334.52c-.11-.03-.22-.06-.32-.09,2.94,2.3,6,4.5,9.17,6.59-.77-2.6-3.44-4.91-8.85-6.5Z"/><path class="cls-1" d="m106.11,334.52c-.11-.03-.22-.06-.32-.09,2.94,2.3,6,4.5,9.17,6.59-.77-2.6-3.44-4.91-8.85-6.5Z"/><path class="cls-1" d="m106.11,334.52c-.11-.03-.22-.06-.32-.09,2.94,2.3,6,4.5,9.17,6.59-.77-2.6-3.44-4.91-8.85-6.5Z"/><path class="cls-3" d="m138.42,334.52c-4.07-1.19-8.05-2.3-11.96-3.37,5.4,4.57,11.21,8.76,17.47,12.58h3.5c.57-3.68-1.78-7.09-9.01-9.21Z"/><path class="cls-3" d="m138.42,334.52c-4.07-1.19-8.05-2.3-11.96-3.37,5.4,4.57,11.21,8.76,17.47,12.58h3.5c.57-3.68-1.78-7.09-9.01-9.21Z"/><path class="cls-2" d="m138.42,334.52c-4.07-1.19-8.05-2.3-11.96-3.37,5.4,4.57,11.21,8.76,17.47,12.58h3.5c.57-3.68-1.78-7.09-9.01-9.21Z"/><path class="cls-1" d="m138.42,334.52c-4.07-1.19-8.05-2.3-11.96-3.37,5.4,4.57,11.21,8.76,17.47,12.58h3.5c.57-3.68-1.78-7.09-9.01-9.21Z"/><path class="cls-1" d="m138.42,334.52c-4.07-1.19-8.05-2.3-11.96-3.37,5.4,4.57,11.21,8.76,17.47,12.58h3.5c.57-3.68-1.78-7.09-9.01-9.21Z"/><path class="cls-4" d="m524.94,77.67c-17.97-24.66-44.4-57.05-50.86-65.36-3.2-4.26-6.15-8.27-8.9-12.05h-19.51c13.45,18.64,29.2,36.97,40.66,51.67,42.11,54.02,83.16,135.27,53.98,202.66-24.87,57.44-74.56,66.05-123.13,84.96-12.68,4.94-9.07,15.62-1.63,23.39,23.69,20.7,55.5,19.61,82.29,7.68,32.44-13.89,55.93-37.39,72.38-69.93,48.46-95.91-24.87-194.99-45.28-223.01Z"/><path class="cls-4" d="m335.56,12.31c-6.46,8.31-32.89,40.7-50.86,65.36-20.42,28.02-93.74,127.1-45.28,223.01,16.44,32.54,39.94,56.04,72.38,69.93,26.79,11.94,58.6,13.02,82.29-7.68,7.44-7.77,11.05-18.45-1.63-23.39-48.56-18.91-98.26-27.52-123.13-84.96-29.18-67.4,11.88-148.64,53.98-202.66,11.45-14.69,27.21-33.03,40.66-51.67h-19.51c-2.75,3.78-5.7,7.79-8.9,12.05Z"/></g></svg>